Coda Normal-Regular.ufo
<glyph name="exclam" format="1">
  <advance width="515"/>
  <unicode hex="0021"/>
  <outline>
    <contour>
      <point x="257" y="498" type="curve" smooth="yes"/>
      <point x="269" y="498"/>
      <point x="283" y="502"/>
      <point x="286" y="533" type="curve" smooth="yes"/>
      <point x="321" y="917"/>
      <point x="364" y="1387"/>
      <point x="364" y="1418" type="curve" smooth="yes"/>
      <point x="364" y="1510"/>
      <point x="340" y="1555"/>
      <point x="257" y="1555" type="curve" smooth="yes"/>
      <point x="175" y="1555"/>
      <point x="151" y="1510"/>
      <point x="151" y="1418" type="curve" smooth="yes"/>
      <point x="151" y="1387"/>
      <point x="191" y="917"/>
      <point x="229" y="533" type="curve" smooth="yes"/>
      <point x="231" y="502"/>
      <point x="245" y="498"/>
    </contour>
    <contour>
      <point x="260" y="-21" type="curve" smooth="yes"/>
      <point x="330" y="-21"/>
      <point x="398" y="27"/>
      <point x="398" y="127" type="curve" smooth="yes"/>
      <point x="398" y="222"/>
      <point x="325" y="273"/>
      <point x="254" y="273" type="curve" smooth="yes"/>
      <point x="186" y="273"/>
      <point x="118" y="225"/>
      <point x="118" y="127" type="curve" smooth="yes"/>
      <point x="118" y="30"/>
      <point x="190" y="-21"/>
    </contour>
  </outline>
</glyph>
<glyph name="quotedbl" format="1">
  <advance width="775"/>
  <unicode hex="0022"/>
  <outline>
    <contour>
      <point x="230" y="914" type="curve"/>
      <point x="232" y="914"/>
      <point x="246" y="914"/>
      <point x="247" y="919" type="curve"/>
      <point x="251" y="944"/>
      <point x="326" y="1301"/>
      <point x="326" y="1388" type="curve" smooth="yes"/>
      <point x="326" y="1474"/>
      <point x="289" y="1517"/>
      <point x="229" y="1517" type="curve" smooth="yes"/>
      <point x="154" y="1517"/>
      <point x="132" y="1475"/>
      <point x="132" y="1375" type="curve" smooth="yes"/>
      <point x="132" y="1292"/>
      <point x="209" y="950"/>
      <point x="213" y="925" type="curve"/>
      <point x="214" y="920"/>
      <point x="228" y="914"/>
    </contour>
    <contour>
      <point x="558" y="914" type="curve"/>
      <point x="560" y="914"/>
      <point x="573" y="914"/>
      <point x="574" y="919" type="curve"/>
      <point x="579" y="944"/>
      <point x="654" y="1301"/>
      <point x="654" y="1388" type="curve" smooth="yes"/>
      <point x="654" y="1474"/>
      <point x="617" y="1517"/>
      <point x="557" y="1517" type="curve" smooth="yes"/>
      <point x="482" y="1517"/>
      <point x="460" y="1475"/>
      <point x="460" y="1375" type="curve" smooth="yes"/>
      <point x="460" y="1292"/>
      <point x="536" y="950"/>
      <point x="541" y="925" type="curve"/>
      <point x="542" y="920"/>
      <point x="556" y="914"/>
    </contour>
  </outline>
</glyph>
<glyph name="numbersign" format="1">
  <advance width="1613"/>
  <unicode hex="0023"/>
  <outline>
    <contour>
      <point x="337" y="0" type="line"/>
      <point x="511" y="0" type="line"/>
      <point x="583" y="406" type="line"/>
      <point x="912" y="406" type="line"/>
      <point x="842" y="0" type="line"/>
      <point x="1015" y="0" type="line"/>
      <point x="1085" y="406" type="line"/>
      <point x="1365" y="406" type="line"/>
      <point x="1388" y="560" type="line"/>
      <point x="1110" y="560" type="line"/>
      <point x="1177" y="963" type="line"/>
      <point x="1456" y="963" type="line"/>
      <point x="1479" y="1130" type="line"/>
      <point x="1205" y="1130" type="line"/>
      <point x="1266" y="1489" type="line"/>
      <point x="1093" y="1489" type="line"/>
      <point x="1031" y="1130" type="line"/>
      <point x="708" y="1130" type="line"/>
      <point x="771" y="1489" type="line"/>
      <point x="592" y="1489" type="line"/>
      <point x="528" y="1130" type="line"/>
      <point x="255" y="1130" type="line"/>
      <point x="228" y="963" type="line"/>
      <point x="499" y="963" type="line"/>
      <point x="432" y="560" type="line"/>
      <point x="156" y="560" type="line"/>
      <point x="129" y="406" type="line"/>
      <point x="406" y="406" type="line"/>
    </contour>
    <contour>
      <point x="610" y="560" type="line"/>
      <point x="679" y="963" type="line"/>
      <point x="1004" y="963" type="line"/>
      <point x="936" y="560" type="line"/>
    </contour>
  </outline>
</glyph>
<glyph name="dollar" format="1">
  <advance width="1313"/>
  <unicode hex="0024"/>
  <outline>
    <contour>
      <point x="614" y="48" type="line"/>
      <point x="614" y="-267" type="line"/>
      <point x="707" y="-267" type="line"/>
      <point x="707" y="48" type="line"/>
    </contour>
    <contour>
      <point x="614" y="1742" type="line"/>
      <point x="614" y="1427" type="line"/>
      <point x="707" y="1427" type="line"/>
      <point x="707" y="1742" type="line"/>
    </contour>
    <component base="S"/>
  </outline>
</glyph>
<glyph name="percent" format="1">
  <advance width="2336"/>
  <unicode hex="0025"/>
  <outline>
    <contour>
      <point x="494" y="731" type="curve" smooth="yes"/>
      <point x="342" y="731"/>
      <point x="325" y="743"/>
      <point x="325" y="921" type="curve" smooth="yes"/>
      <point x="325" y="956"/>
      <point x="326" y="1068"/>
      <point x="326" y="1118" type="curve" smooth="yes"/>
      <point x="326" y="1315"/>
      <point x="345" y="1316"/>
      <point x="509" y="1316" type="curve" smooth="yes"/>
      <point x="682" y="1316"/>
      <point x="690" y="1314"/>
      <point x="690" y="1114" type="curve" smooth="yes"/>
      <point x="690" y="917" type="line" smooth="yes"/>
      <point x="690" y="744"/>
      <point x="673" y="731"/>
    </contour>
    <contour>
      <point x="509" y="588" type="curve" smooth="yes"/>
      <point x="765" y="588"/>
      <point x="870" y="649"/>
      <point x="870" y="902" type="curve" smooth="yes"/>
      <point x="870" y="980"/>
      <point x="870" y="1092"/>
      <point x="867" y="1148" type="curve" smooth="yes"/>
      <point x="854" y="1400"/>
      <point x="777" y="1458"/>
      <point x="509" y="1458" type="curve" smooth="yes"/>
      <point x="257" y="1458"/>
      <point x="152" y="1402"/>
      <point x="152" y="1145" type="curve" smooth="yes"/>
      <point x="152" y="1069"/>
      <point x="152" y="958"/>
      <point x="155" y="904" type="curve" smooth="yes"/>
      <point x="165" y="645"/>
      <point x="239" y="588"/>
    </contour>
    <contour>
      <point x="1813" y="304" type="curve" smooth="yes"/>
      <point x="1661" y="304"/>
      <point x="1644" y="317"/>
      <point x="1644" y="494" type="curve" smooth="yes"/>
      <point x="1644" y="529"/>
      <point x="1644" y="641"/>
      <point x="1644" y="691" type="curve" smooth="yes"/>
      <point x="1644" y="889"/>
      <point x="1663" y="889"/>
      <point x="1828" y="889" type="curve" smooth="yes"/>
      <point x="2001" y="889"/>
      <point x="2009" y="887"/>
      <point x="2009" y="688" type="curve" smooth="yes"/>
      <point x="2009" y="491" type="line" smooth="yes"/>
      <point x="2009" y="317"/>
      <point x="1992" y="304"/>
    </contour>
    <contour>
      <point x="1828" y="161" type="curve" smooth="yes"/>
      <point x="2084" y="161"/>
      <point x="2189" y="223"/>
      <point x="2189" y="475" type="curve" smooth="yes"/>
      <point x="2189" y="550"/>
      <point x="2188" y="660"/>
      <point x="2186" y="714" type="curve" smooth="yes"/>
      <point x="2174" y="972"/>
      <point x="2098" y="1032"/>
      <point x="1828" y="1032" type="curve" smooth="yes"/>
      <point x="1576" y="1032"/>
      <point x="1471" y="975"/>
      <point x="1471" y="718" type="curve" smooth="yes"/>
      <point x="1471" y="643"/>
      <point x="1471" y="533"/>
      <point x="1473" y="479" type="curve" smooth="yes"/>
      <point x="1484" y="219"/>
      <point x="1557" y="161"/>
    </contour>
    <contour>
      <point x="883" y="-4" type="line"/>
      <point x="1073" y="-4" type="line"/>
      <point x="1454" y="1581" type="line"/>
      <point x="1262" y="1581" type="line"/>
    </contour>
  </outline>
</glyph>
<glyph name="ampersand" format="1">
  <advance width="1477"/>
  <unicode hex="0026"/>
  <outline>
    <contour>
      <point x="677" y="-23" type="curve" smooth="yes"/>
      <point x="1112" y="-23"/>
      <point x="1211" y="85"/>
      <point x="1210" y="369" type="curve" smooth="yes"/>
      <point x="1209" y="727" type="line"/>
      <point x="1343" y="728" type="line"/>
      <point x="1343" y="852" type="line"/>
      <point x="1210" y="852" type="line"/>
      <point x="1210" y="961" type="line"/>
      <point x="1031" y="961" type="line"/>
      <point x="1031" y="852" type="line"/>
      <point x="546" y="852" type="line" smooth="yes"/>
      <point x="458" y="852"/>
      <point x="407" y="895"/>
      <point x="403" y="1122" type="curve" smooth="yes"/>
      <point x="403" y="1144" type="line" smooth="yes"/>
      <point x="403" y="1305"/>
      <point x="476" y="1357"/>
      <point x="711" y="1357" type="curve" smooth="yes"/>
      <point x="858" y="1357"/>
      <point x="942" y="1353"/>
      <point x="987" y="1329" type="curve" smooth="yes"/>
      <point x="1033" y="1304"/>
      <point x="1039" y="1263"/>
      <point x="1044" y="1183" type="curve"/>
      <point x="1192" y="1199" type="line"/>
      <point x="1192" y="1302" type="line" smooth="yes"/>
      <point x="1192" y="1489"/>
      <point x="1013" y="1521"/>
      <point x="711" y="1521" type="curve" smooth="yes"/>
      <point x="330" y="1521"/>
      <point x="210" y="1430"/>
      <point x="210" y="1146" type="curve" smooth="yes"/>
      <point x="210" y="1030"/>
      <point x="234" y="933"/>
      <point x="285" y="875" type="curve" smooth="yes"/>
      <point x="301" y="856"/>
      <point x="338" y="840"/>
      <point x="360" y="830" type="curve"/>
      <point x="360" y="825" type="line"/>
      <point x="331" y="819"/>
      <point x="306" y="808"/>
      <point x="283" y="792" type="curve" smooth="yes"/>
      <point x="194" y="729"/>
      <point x="146" y="590"/>
      <point x="146" y="381" type="curve" smooth="yes"/>
      <point x="146" y="105"/>
      <point x="306" y="-23"/>
    </contour>
    <contour>
      <point x="676" y="137" type="curve" smooth="yes"/>
      <point x="407" y="137"/>
      <point x="338" y="215"/>
      <point x="338" y="383" type="curve" smooth="yes"/>
      <point x="338" y="611"/>
      <point x="341" y="728"/>
      <point x="491" y="728" type="curve" smooth="yes"/>
      <point x="1031" y="728" type="line"/>
      <point x="1031" y="358" type="line" smooth="yes"/>
      <point x="1031" y="211"/>
      <point x="1003" y="137"/>
    </contour>
  </outline>
</glyph>
<glyph name="quotesingle" format="1">
  <advance width="437"/>
  <unicode hex="0027"/>
  <outline>
    <contour>
      <point x="233" y="923" type="curve"/>
      <point x="233" y="921"/>
      <point x="306" y="1295"/>
      <point x="306" y="1377" type="curve" smooth="yes"/>
      <point x="306" y="1459"/>
      <point x="276" y="1499"/>
      <point x="221" y="1499" type="curve" smooth="yes"/>
      <point x="148" y="1499"/>
      <point x="135" y="1459"/>
      <point x="135" y="1362" type="curve" smooth="yes"/>
      <point x="135" y="1283"/>
      <point x="210" y="927"/>
      <point x="209" y="929" type="curve"/>
      <point x="209" y="930"/>
      <point x="222" y="927"/>
      <point x="222" y="927" type="curve"/>
      <point x="221" y="927"/>
      <point x="233" y="924"/>
    </contour>
  </outline>
</glyph>
<glyph name="parenleft" format="1">
  <advance width="847"/>
  <unicode hex="0028"/>
  <outline>
    <contour>
      <point x="708" y="-221" type="curve"/>
      <point x="721" y="-66" type="line"/>
      <point x="457" y="-30"/>
      <point x="369" y="288"/>
      <point x="369" y="741" type="curve" smooth="yes"/>
      <point x="369" y="1194"/>
      <point x="457" y="1514"/>
      <point x="721" y="1550" type="curve"/>
      <point x="708" y="1705" type="line"/>
      <point x="297" y="1676"/>
      <point x="157" y="1251"/>
      <point x="157" y="742" type="curve" smooth="yes"/>
      <point x="157" y="231"/>
      <point x="297" y="-192"/>
    </contour>
  </outline>
</glyph>
<glyph name="parenright" format="1">
  <advance width="800"/>
  <unicode hex="0029"/>
  <outline>
    <contour>
      <point x="125" y="-230" type="line"/>
      <point x="523" y="-195"/>
      <point x="655" y="218"/>
      <point x="655" y="728" type="curve"/>
      <point x="655" y="1238"/>
      <point x="523" y="1649"/>
      <point x="125" y="1683" type="curve"/>
      <point x="110" y="1548" type="line"/>
      <point x="378" y="1506"/>
      <point x="466" y="1195"/>
      <point x="466" y="727" type="curve" smooth="yes"/>
      <point x="466" y="259"/>
      <point x="378" y="-53"/>
      <point x="110" y="-94" type="curve"/>
    </contour>
  </outline>
</glyph>
<glyph name="asterisk" format="1">
  <advance width="1167"/>
  <unicode hex="002A"/>
  <outline>
    <contour>
      <point x="403" y="575" type="curve" smooth="yes"/>
      <point x="494" y="575"/>
      <point x="511" y="714"/>
      <point x="586" y="989" type="curve"/>
      <point x="617" y="856"/>
      <point x="654" y="684"/>
      <point x="710" y="611" type="curve" smooth="yes"/>
      <point x="771" y="532"/>
      <point x="858" y="592"/>
      <point x="858" y="665" type="curve" smooth="yes"/>
      <point x="858" y="701"/>
      <point x="770" y="812"/>
      <point x="602" y="998" type="curve"/>
      <point x="682" y="974"/>
      <point x="849" y="916"/>
      <point x="929" y="916" type="curve" smooth="yes"/>
      <point x="997" y="916"/>
      <point x="1031" y="946"/>
      <point x="1031" y="1006" type="curve" smooth="yes"/>
      <point x="1031" y="1066"/>
      <point x="999" y="1096"/>
      <point x="933" y="1096" type="curve" smooth="yes"/>
      <point x="854" y="1096"/>
      <point x="785" y="1067"/>
      <point x="602" y="1012" type="curve"/>
      <point x="809" y="1232"/>
      <point x="844" y="1298"/>
      <point x="844" y="1353" type="curve" smooth="yes"/>
      <point x="844" y="1400"/>
      <point x="805" y="1435"/>
      <point x="766" y="1436" type="curve" smooth="yes"/>
      <point x="636" y="1437"/>
      <point x="598" y="1064"/>
      <point x="586" y="1021" type="curve"/>
      <point x="543" y="1213"/>
      <point x="495" y="1437"/>
      <point x="400" y="1436" type="curve" smooth="yes"/>
      <point x="346" y="1435"/>
      <point x="315" y="1396"/>
      <point x="315" y="1344" type="curve" smooth="yes"/>
      <point x="315" y="1307"/>
      <point x="400" y="1197"/>
      <point x="571" y="1012" type="curve"/>
      <point x="496" y="1032"/>
      <point x="315" y="1096"/>
      <point x="236" y="1096" type="curve" smooth="yes"/>
      <point x="170" y="1096"/>
      <point x="137" y="1066"/>
      <point x="137" y="1006" type="curve" smooth="yes"/>
      <point x="137" y="946"/>
      <point x="171" y="916"/>
      <point x="238" y="916" type="curve" smooth="yes"/>
      <point x="313" y="916"/>
      <point x="444" y="960"/>
      <point x="571" y="998" type="curve"/>
      <point x="432" y="844"/>
      <point x="325" y="735"/>
      <point x="325" y="649" type="curve" smooth="yes"/>
      <point x="325" y="613"/>
      <point x="368" y="575"/>
    </contour>
  </outline>
</glyph>
<glyph name="plus" format="1">
  <advance width="1079"/>
  <unicode hex="002B"/>
  <outline>
    <contour>
      <point x="444" y="207" type="line"/>
      <point x="633" y="207" type="line"/>
      <point x="633" y="571" type="line"/>
      <point x="946" y="571" type="line"/>
      <point x="946" y="761" type="line"/>
      <point x="633" y="761" type="line"/>
      <point x="633" y="1127" type="line"/>
      <point x="444" y="1127" type="line"/>
      <point x="444" y="761" type="line"/>
      <point x="131" y="761" type="line"/>
      <point x="131" y="571" type="line"/>
      <point x="444" y="571" type="line"/>
    </contour>
  </outline>
</glyph>
<glyph name="comma" format="1">
  <advance width="558"/>
  <unicode hex="002C"/>
  <outline>
    <contour>
      <point x="176" y="-231" type="curve" smooth="yes"/>
      <point x="316" y="-231"/>
      <point x="431" y="-39"/>
      <point x="431" y="130" type="curve" smooth="yes"/>
      <point x="431" y="224"/>
      <point x="379" y="308"/>
      <point x="291" y="308" type="curve" smooth="yes"/>
      <point x="198" y="308"/>
      <point x="145" y="239"/>
      <point x="145" y="153" type="curve" smooth="yes"/>
      <point x="145" y="70"/>
      <point x="203" y="0"/>
      <point x="288" y="0" type="curve"/>
      <point x="288" y="-89"/>
      <point x="204" y="-159"/>
      <point x="116" y="-159" type="curve"/>
      <point x="116" y="-227" type="line"/>
      <point x="127" y="-230"/>
      <point x="147" y="-231"/>
    </contour>
  </outline>
</glyph>
<glyph name="hyphen" format="1">
  <advance width="837"/>
  <unicode hex="002D"/>
  <outline>
    <contour>
      <point x="417" y="605" type="move" name="_mid"/>
    </contour>
    <contour>
      <point x="128" y="540" type="line"/>
      <point x="707" y="540" type="line"/>
      <point x="707" y="671" type="line"/>
      <point x="128" y="671" type="line"/>
    </contour>
  </outline>
</glyph>
<glyph name="period" format="1">
  <advance width="532"/>
  <unicode hex="002E"/>
  <outline>
    <contour>
      <point x="268" y="-31" type="curve" smooth="yes"/>
      <point x="338" y="-31"/>
      <point x="405" y="17"/>
      <point x="405" y="116" type="curve" smooth="yes"/>
      <point x="405" y="212"/>
      <point x="332" y="263"/>
      <point x="262" y="263" type="curve" smooth="yes"/>
      <point x="193" y="263"/>
      <point x="125" y="215"/>
      <point x="125" y="116" type="curve" smooth="yes"/>
      <point x="125" y="20"/>
      <point x="197" y="-31"/>
    </contour>
  </outline>
</glyph>
<glyph name="slash" format="1">
  <advance width="766"/>
  <unicode hex="002F"/>
  <outline>
    <contour>
      <point x="112" y="-26" type="line"/>
      <point x="278" y="-26" type="line"/>
      <point x="654" y="1515" type="line"/>
      <point x="479" y="1515" type="line"/>
    </contour>
  </outline>
</glyph>
<glyph name="zero" format="1">
  <advance width="1302"/>
  <unicode hex="0030"/>
  <outline>
    <contour>
      <point x="651" y="133" type="curve" smooth="yes"/>
      <point x="442" y="133"/>
      <point x="350" y="182"/>
      <point x="343" y="297" type="curve" smooth="yes"/>
      <point x="334" y="440"/>
      <point x="332" y="588"/>
      <point x="332" y="743" type="curve" smooth="yes"/>
      <point x="332" y="895"/>
      <point x="335" y="1038"/>
      <point x="344" y="1181" type="curve" smooth="yes"/>
      <point x="351" y="1309"/>
      <point x="451" y="1361"/>
      <point x="651" y="1361" type="curve" smooth="yes"/>
      <point x="850" y="1361"/>
      <point x="950" y="1309"/>
      <point x="958" y="1181" type="curve" smooth="yes"/>
      <point x="966" y="1038"/>
      <point x="970" y="895"/>
      <point x="970" y="743" type="curve" smooth="yes"/>
      <point x="970" y="588"/>
      <point x="968" y="440"/>
      <point x="959" y="297" type="curve" smooth="yes"/>
      <point x="952" y="182"/>
      <point x="860" y="133"/>
    </contour>
    <contour>
      <point x="651" y="-20" type="curve" smooth="yes"/>
      <point x="1147" y="-20"/>
      <point x="1151" y="227"/>
      <point x="1151" y="784" type="curve" smooth="yes"/>
      <point x="1151" y="829" type="line" smooth="yes"/>
      <point x="1151" y="1305"/>
      <point x="1093" y="1509"/>
      <point x="651" y="1509" type="curve" smooth="yes"/>
      <point x="189" y="1509"/>
      <point x="150" y="1290"/>
      <point x="150" y="776" type="curve" smooth="yes"/>
      <point x="150" y="716" type="line" smooth="yes"/>
      <point x="150" y="208"/>
      <point x="174" y="-20"/>
    </contour>
  </outline>
</glyph>
<glyph name="one" format="1">
  <advance width="759"/>
  <unicode hex="0031"/>
  <outline>
    <contour>
      <point x="319" y="0" type="line"/>
      <point x="548" y="0" type="line"/>
      <point x="548" y="1504" type="line"/>
      <point x="361" y="1504" type="line"/>
      <point x="317" y="1413"/>
      <point x="236" y="1369"/>
      <point x="131" y="1366" type="curve"/>
      <point x="131" y="1257" type="line"/>
      <point x="319" y="1257" type="line"/>
    </contour>
  </outline>
</glyph>
<glyph name="two" format="1">
  <advance width="1314"/>
  <unicode hex="0032"/>
  <outline>
    <contour>
      <point x="193" y="0" type="line"/>
      <point x="1088" y="0" type="line"/>
      <point x="1088" y="166" type="line"/>
      <point x="410" y="166" type="line"/>
      <point x="410" y="363"/>
      <point x="465" y="397"/>
      <point x="662" y="515" type="curve" smooth="yes"/>
      <point x="940" y="681"/>
      <point x="1122" y="750"/>
      <point x="1122" y="1101" type="curve" smooth="yes"/>
      <point x="1122" y="1433"/>
      <point x="991" y="1524"/>
      <point x="651" y="1524" type="curve" smooth="yes"/>
      <point x="335" y="1524"/>
      <point x="193" y="1439"/>
      <point x="193" y="1180" type="curve" smooth="yes"/>
      <point x="194" y="1149" type="line"/>
      <point x="394" y="1118" type="line"/>
      <point x="402" y="1212"/>
      <point x="402" y="1300"/>
      <point x="441" y="1330" type="curve" smooth="yes"/>
      <point x="482" y="1359"/>
      <point x="571" y="1368"/>
      <point x="663" y="1368" type="curve" smooth="yes"/>
      <point x="769" y="1368"/>
      <point x="836" y="1352"/>
      <point x="863" y="1313" type="curve" smooth="yes"/>
      <point x="891" y="1275"/>
      <point x="905" y="1180"/>
      <point x="905" y="1098" type="curve" smooth="yes"/>
      <point x="905" y="836"/>
      <point x="794" y="824"/>
      <point x="555" y="680" type="curve" smooth="yes"/>
      <point x="339" y="551"/>
      <point x="193" y="473"/>
      <point x="193" y="140" type="curve" smooth="yes"/>
    </contour>
  </outline>
</glyph>
<glyph name="three" format="1">
  <advance width="1283"/>
  <unicode hex="0033"/>
  <outline>
    <contour>
      <point x="601" y="-20" type="curve" smooth="yes"/>
      <point x="919" y="-20"/>
      <point x="1091" y="34"/>
      <point x="1091" y="393" type="curve" smooth="yes"/>
      <point x="1091" y="707"/>
      <point x="1004" y="740"/>
      <point x="921" y="766" type="curve"/>
      <point x="995" y="786"/>
      <point x="1082" y="800"/>
      <point x="1082" y="1148" type="curve" smooth="yes"/>
      <point x="1082" y="1404"/>
      <point x="942" y="1505"/>
      <point x="636" y="1505" type="curve" smooth="yes"/>
      <point x="252" y="1505"/>
      <point x="156" y="1426"/>
      <point x="157" y="1211" type="curve" smooth="yes"/>
      <point x="157" y="1165" type="line"/>
      <point x="311" y="1154" type="line"/>
      <point x="311" y="1281"/>
      <point x="321" y="1309"/>
      <point x="338" y="1327" type="curve" smooth="yes"/>
      <point x="374" y="1365"/>
      <point x="493" y="1373"/>
      <point x="636" y="1373" type="curve" smooth="yes"/>
      <point x="886" y="1373"/>
      <point x="908" y="1324"/>
      <point x="908" y="1133" type="curve" smooth="yes"/>
      <point x="908" y="916"/>
      <point x="904" y="835"/>
      <point x="850" y="835" type="curve" smooth="yes"/>
      <point x="489" y="835" type="line"/>
      <point x="497" y="698" type="line"/>
      <point x="857" y="695" type="line" smooth="yes"/>
      <point x="904" y="695"/>
      <point x="916" y="656"/>
      <point x="916" y="423" type="curve" smooth="yes"/>
      <point x="916" y="172"/>
      <point x="900" y="111"/>
      <point x="605" y="111" type="curve" smooth="yes"/>
      <point x="456" y="111"/>
      <point x="355" y="118"/>
      <point x="320" y="164" type="curve" smooth="yes"/>
      <point x="292" y="201"/>
      <point x="293" y="235"/>
      <point x="293" y="334" type="curve"/>
      <point x="139" y="319" type="line"/>
      <point x="138" y="248" type="line" smooth="yes"/>
      <point x="135" y="25"/>
      <point x="318" y="-20"/>
    </contour>
  </outline>
</glyph>
<glyph name="four" format="1">
  <advance width="1288"/>
  <unicode hex="0034"/>
  <outline>
    <contour>
      <point x="667" y="1489" type="line"/>
      <point x="143" y="538" type="line"/>
      <point x="143" y="390" type="line"/>
      <point x="824" y="390" type="line"/>
      <point x="824" y="0" type="line"/>
      <point x="1006" y="0" type="line"/>
      <point x="1006" y="1018" type="line"/>
      <point x="824" y="1018" type="line"/>
      <point x="824" y="520" type="line"/>
      <point x="332" y="520" type="line"/>
      <point x="430" y="714" type="line"/>
      <point x="858" y="1489" type="line"/>
    </contour>
  </outline>
</glyph>
<glyph name="five" format="1">
  <advance width="1314"/>
  <unicode hex="0035"/>
  <outline>
    <contour>
      <point x="662" y="-20" type="curve" smooth="yes"/>
      <point x="1053" y="-20"/>
      <point x="1182" y="65"/>
      <point x="1182" y="469" type="curve" smooth="yes"/>
      <point x="1182" y="818"/>
      <point x="1113" y="971"/>
      <point x="741" y="971" type="curve" smooth="yes"/>
      <point x="520" y="971"/>
      <point x="463" y="893"/>
      <point x="418" y="794" type="curve"/>
      <point x="447" y="1331" type="line"/>
      <point x="1090" y="1331" type="line"/>
      <point x="1090" y="1504" type="line"/>
      <point x="223" y="1504" type="line"/>
      <point x="218" y="661" type="line"/>
      <point x="427" y="650" type="line"/>
      <point x="437" y="702"/>
      <point x="458" y="757"/>
      <point x="489" y="776" type="curve" smooth="yes"/>
      <point x="533" y="803"/>
      <point x="605" y="805"/>
      <point x="684" y="805" type="curve" smooth="yes"/>
      <point x="949" y="805"/>
      <point x="963" y="765"/>
      <point x="963" y="563" type="curve" smooth="yes"/>
      <point x="963" y="518"/>
      <point x="966" y="399"/>
      <point x="966" y="361" type="curve" smooth="yes"/>
      <point x="966" y="230"/>
      <point x="926" y="145"/>
      <point x="662" y="145" type="curve" smooth="yes"/>
      <point x="467" y="145"/>
      <point x="419" y="167"/>
      <point x="402" y="290" type="curve" smooth="yes"/>
      <point x="400" y="310"/>
      <point x="397" y="360"/>
      <point x="395" y="384" type="curve"/>
      <point x="204" y="366" type="line"/>
      <point x="204" y="346"/>
      <point x="202" y="318"/>
      <point x="202" y="300" type="curve" smooth="yes"/>
      <point x="202" y="27"/>
      <point x="381" y="-20"/>
    </contour>
  </outline>
</glyph>
<glyph name="six" format="1">
  <advance width="1314"/>
  <unicode hex="0036"/>
  <outline>
    <contour>
      <point x="722" y="-20" type="curve" smooth="yes"/>
      <point x="1112" y="-20"/>
      <point x="1212" y="81"/>
      <point x="1212" y="489" type="curve" smooth="yes"/>
      <point x="1212" y="883"/>
      <point x="1076" y="964"/>
      <point x="705" y="964" type="curve" smooth="yes"/>
      <point x="534" y="964"/>
      <point x="454" y="933"/>
      <point x="404" y="872" type="curve"/>
      <point x="405" y="1183" type="line" smooth="yes"/>
      <point x="406" y="1327"/>
      <point x="469" y="1371"/>
      <point x="683" y="1371" type="curve" smooth="yes"/>
      <point x="789" y="1371"/>
      <point x="903" y="1368"/>
      <point x="930" y="1344" type="curve" smooth="yes"/>
      <point x="957" y="1318"/>
      <point x="958" y="1227"/>
      <point x="958" y="1142" type="curve"/>
      <point x="1162" y="1153" type="line"/>
      <point x="1162" y="1274" type="line" smooth="yes"/>
      <point x="1163" y="1503"/>
      <point x="931" y="1524"/>
      <point x="685" y="1524" type="curve" smooth="yes"/>
      <point x="205" y="1524"/>
      <point x="179" y="1355"/>
      <point x="179" y="835" type="curve" smooth="yes"/>
      <point x="179" y="619" type="line" smooth="yes"/>
      <point x="179" y="89"/>
      <point x="237" y="-20"/>
    </contour>
    <contour>
      <point x="690" y="135" type="curve" smooth="yes"/>
      <point x="426" y="135"/>
      <point x="405" y="204"/>
      <point x="403" y="351" type="curve" smooth="yes"/>
      <point x="401" y="560" type="line" smooth="yes"/>
      <point x="400" y="718"/>
      <point x="404" y="795"/>
      <point x="691" y="795" type="curve" smooth="yes"/>
      <point x="965" y="795"/>
      <point x="993" y="756"/>
      <point x="993" y="566" type="curve" smooth="yes"/>
      <point x="993" y="319" type="line" smooth="yes"/>
      <point x="993" y="183"/>
      <point x="957" y="135"/>
    </contour>
  </outline>
</glyph>
<glyph name="seven" format="1">
  <advance width="1288"/>
  <unicode hex="0037"/>
  <outline>
    <contour>
      <point x="409" y="0" type="line"/>
      <point x="604" y="0" type="line"/>
      <point x="1117" y="1320" type="line"/>
      <point x="1117" y="1489" type="line"/>
      <point x="206" y="1489" type="line"/>
      <point x="206" y="1338" type="line"/>
      <point x="932" y="1338" type="line"/>
    </contour>
  </outline>
</glyph>
<glyph name="eight" format="1">
  <advance width="1288"/>
  <unicode hex="0038"/>
  <outline>
    <contour>
      <point x="645" y="-20" type="curve" smooth="yes"/>
      <point x="996" y="-20"/>
      <point x="1138" y="50"/>
      <point x="1138" y="383" type="curve" smooth="yes"/>
      <point x="1138" y="659"/>
      <point x="1071" y="732"/>
      <point x="950" y="797" type="curve"/>
      <point x="1036" y="843"/>
      <point x="1065" y="965"/>
      <point x="1065" y="1135" type="curve" smooth="yes"/>
      <point x="1065" y="1422"/>
      <point x="990" y="1509"/>
      <point x="644" y="1509" type="curve" smooth="yes"/>
      <point x="298" y="1509"/>
      <point x="224" y="1422"/>
      <point x="224" y="1135" type="curve" smooth="yes"/>
      <point x="224" y="965"/>
      <point x="252" y="843"/>
      <point x="337" y="797" type="curve"/>
      <point x="217" y="732"/>
      <point x="151" y="659"/>
      <point x="151" y="383" type="curve" smooth="yes"/>
      <point x="151" y="49"/>
      <point x="293" y="-20"/>
    </contour>
    <contour>
      <point x="644" y="122" type="curve" smooth="yes"/>
      <point x="365" y="122"/>
      <point x="332" y="193"/>
      <point x="332" y="315" type="curve" smooth="yes"/>
      <point x="332" y="493" type="line" smooth="yes"/>
      <point x="332" y="709"/>
      <point x="405" y="711"/>
      <point x="645" y="711" type="curve" smooth="yes"/>
      <point x="883" y="711"/>
      <point x="956" y="708"/>
      <point x="956" y="493" type="curve" smooth="yes"/>
      <point x="956" y="315" type="line" smooth="yes"/>
      <point x="956" y="193"/>
      <point x="923" y="122"/>
    </contour>
    <contour>
      <point x="472" y="854" type="line"/>
      <point x="409" y="894"/>
      <point x="395" y="985"/>
      <point x="395" y="1145" type="curve" smooth="yes"/>
      <point x="395" y="1341"/>
      <point x="405" y="1362"/>
      <point x="645" y="1362" type="curve" smooth="yes"/>
      <point x="882" y="1362"/>
      <point x="893" y="1340"/>
      <point x="893" y="1145" type="curve" smooth="yes"/>
      <point x="893" y="975"/>
      <point x="879" y="894"/>
      <point x="816" y="854" type="curve"/>
    </contour>
  </outline>
</glyph>
<glyph name="nine" format="1">
  <advance width="1288"/>
  <unicode hex="0039"/>
  <outline>
    <contour>
      <point x="654" y="-20" type="curve" smooth="yes"/>
      <point x="1137" y="-20"/>
      <point x="1144" y="155"/>
      <point x="1144" y="688" type="curve" smooth="yes"/>
      <point x="1144" y="849" type="line" smooth="yes"/>
      <point x="1144" y="1403"/>
      <point x="1102" y="1509"/>
      <point x="612" y="1509" type="curve" smooth="yes"/>
      <point x="231" y="1509"/>
      <point x="143" y="1408"/>
      <point x="143" y="1005" type="curve" smooth="yes"/>
      <point x="143" y="613"/>
      <point x="277" y="539"/>
      <point x="637" y="539" type="curve" smooth="yes"/>
      <point x="830" y="539"/>
      <point x="903" y="576"/>
      <point x="959" y="646" type="curve"/>
      <point x="958" y="334" type="line" smooth="yes"/>
      <point x="957" y="166"/>
      <point x="896" y="115"/>
      <point x="656" y="115" type="curve" smooth="yes"/>
      <point x="537" y="115"/>
      <point x="417" y="119"/>
      <point x="387" y="147" type="curve" smooth="yes"/>
      <point x="357" y="176"/>
      <point x="356" y="228"/>
      <point x="356" y="327" type="curve"/>
      <point x="191" y="318" type="line"/>
      <point x="191" y="207" type="line" smooth="yes"/>
      <point x="191" y="1"/>
      <point x="416" y="-20"/>
    </contour>
    <contour>
      <point x="648" y="692" type="curve" smooth="yes"/>
      <point x="341" y="692"/>
      <point x="320" y="738"/>
      <point x="320" y="959" type="curve" smooth="yes"/>
      <point x="320" y="1159" type="line" smooth="yes"/>
      <point x="320" y="1317"/>
      <point x="350" y="1373"/>
      <point x="649" y="1373" type="curve" smooth="yes"/>
      <point x="946" y="1373"/>
      <point x="958" y="1292"/>
      <point x="960" y="1122" type="curve" smooth="yes"/>
      <point x="962" y="965" type="line" smooth="yes"/>
      <point x="964" y="782"/>
      <point x="970" y="692"/>
    </contour>
  </outline>
</glyph>
<glyph name="colon" format="1">
  <advance width="568"/>
  <unicode hex="003A"/>
  <outline>
    <contour>
      <point x="284" y="136" type="curve" smooth="yes"/>
      <point x="354" y="136"/>
      <point x="424" y="187"/>
      <point x="424" y="288" type="curve" smooth="yes"/>
      <point x="424" y="388"/>
      <point x="354" y="440"/>
      <point x="283" y="440" type="curve" smooth="yes"/>
      <point x="214" y="440"/>
      <point x="146" y="390"/>
      <point x="146" y="288" type="curve" smooth="yes"/>
      <point x="146" y="186"/>
      <point x="214" y="136"/>
    </contour>
    <contour>
      <point x="286" y="925" type="curve" smooth="yes"/>
      <point x="356" y="925"/>
      <point x="424" y="976"/>
      <point x="424" y="1078" type="curve" smooth="yes"/>
      <point x="424" y="1179"/>
      <point x="354" y="1231"/>
      <point x="284" y="1231" type="curve" smooth="yes"/>
      <point x="214" y="1231"/>
      <point x="146" y="1181"/>
      <point x="146" y="1078" type="curve" smooth="yes"/>
      <point x="146" y="977"/>
      <point x="216" y="925"/>
    </contour>
  </outline>
</glyph>
<glyph name="semicolon" format="1">
  <advance width="597"/>
  <unicode hex="003B"/>
  <outline>
    <contour>
      <point x="197" y="-101" type="curve" smooth="yes"/>
      <point x="335" y="-101"/>
      <point x="453" y="90"/>
      <point x="453" y="260" type="curve" smooth="yes"/>
      <point x="453" y="353"/>
      <point x="398" y="438"/>
      <point x="312" y="438" type="curve" smooth="yes"/>
      <point x="220" y="438"/>
      <point x="166" y="368"/>
      <point x="166" y="285" type="curve" smooth="yes"/>
      <point x="166" y="199"/>
      <point x="227" y="130"/>
      <point x="310" y="130" type="curve"/>
      <point x="310" y="41"/>
      <point x="226" y="-29"/>
      <point x="138" y="-29" type="curve"/>
      <point x="138" y="-97" type="line"/>
      <point x="149" y="-100"/>
      <point x="168" y="-101"/>
    </contour>
    <contour>
      <point x="310" y="925" type="curve" smooth="yes"/>
      <point x="398" y="925"/>
      <point x="449" y="991"/>
      <point x="449" y="1078" type="curve" smooth="yes"/>
      <point x="449" y="1162"/>
      <point x="392" y="1232"/>
      <point x="310" y="1232" type="curve" smooth="yes"/>
      <point x="221" y="1232"/>
      <point x="171" y="1164"/>
      <point x="171" y="1078" type="curve" smooth="yes"/>
      <point x="171" y="995"/>
      <point x="226" y="925"/>
    </contour>
  </outline>
</glyph>
<glyph name="less" format="1">
  <advance width="970"/>
  <unicode hex="003C"/>
  <outline>
    <contour>
      <point x="820" y="236" type="line"/>
      <point x="820" y="462" type="line"/>
      <point x="302" y="758" type="line"/>
      <point x="820" y="1046" type="line"/>
      <point x="820" y="1279" type="line"/>
      <point x="126" y="830" type="line"/>
      <point x="126" y="669" type="line"/>
    </contour>
  </outline>
</glyph>
<glyph name="equal" format="1">
  <advance width="1122"/>
  <unicode hex="003D"/>
  <outline>
    <contour>
      <point x="143" y="317" type="line"/>
      <point x="978" y="317" type="line"/>
      <point x="978" y="505" type="line"/>
      <point x="143" y="505" type="line"/>
    </contour>
    <contour>
      <point x="143" y="693" type="line"/>
      <point x="978" y="693" type="line"/>
      <point x="978" y="881" type="line"/>
      <point x="143" y="881" type="line"/>
    </contour>
  </outline>
</glyph>
<glyph name="greater" format="1">
  <advance width="973"/>
  <unicode hex="003E"/>
  <outline>
    <contour>
      <point x="151" y="236" type="line"/>
      <point x="847" y="669" type="line"/>
      <point x="847" y="830" type="line"/>
      <point x="151" y="1279" type="line"/>
      <point x="151" y="1046" type="line"/>
      <point x="670" y="757" type="line"/>
      <point x="151" y="461" type="line"/>
    </contour>
  </outline>
</glyph>
<glyph name="question" format="1">
  <advance width="900"/>
  <unicode hex="003F"/>
  <outline>
    <contour>
      <point x="360" y="450" type="curve" smooth="yes"/>
      <point x="398" y="450"/>
      <point x="414" y="468"/>
      <point x="414" y="494" type="curve"/>
      <point x="423" y="602"/>
      <point x="489" y="695"/>
      <point x="581" y="802" type="curve" smooth="yes"/>
      <point x="697" y="943"/>
      <point x="779" y="1059"/>
      <point x="779" y="1202" type="curve" smooth="yes"/>
      <point x="779" y="1426"/>
      <point x="643" y="1536"/>
      <point x="393" y="1536" type="curve" smooth="yes"/>
      <point x="313" y="1536"/>
      <point x="227" y="1514"/>
      <point x="127" y="1471" type="curve"/>
      <point x="149" y="1283" type="line"/>
      <point x="259" y="1312"/>
      <point x="326" y="1324"/>
      <point x="373" y="1324" type="curve" smooth="yes"/>
      <point x="490" y="1324"/>
      <point x="549" y="1253"/>
      <point x="549" y="1149" type="curve" smooth="yes"/>
      <point x="549" y="1059"/>
      <point x="522" y="1001"/>
      <point x="466" y="921" type="curve" smooth="yes"/>
      <point x="363" y="780"/>
      <point x="309" y="681"/>
      <point x="309" y="496" type="curve"/>
      <point x="309" y="473"/>
      <point x="325" y="450"/>
    </contour>
    <contour>
      <point x="356" y="-32" type="curve" smooth="yes"/>
      <point x="429" y="-32"/>
      <point x="501" y="19"/>
      <point x="501" y="124" type="curve" smooth="yes"/>
      <point x="501" y="226"/>
      <point x="425" y="279"/>
      <point x="351" y="279" type="curve" smooth="yes"/>
      <point x="278" y="279"/>
      <point x="207" y="228"/>
      <point x="207" y="124" type="curve" smooth="yes"/>
      <point x="207" y="21"/>
      <point x="282" y="-32"/>
    </contour>
  </outline>
</glyph>
<glyph name="at" format="1">
  <advance width="2047"/>
  <unicode hex="0040"/>
  <outline>
    <contour>
      <point x="1035" y="-232" type="curve" smooth="yes"/>
      <point x="1275" y="-232"/>
      <point x="1441" y="-199"/>
      <point x="1614" y="-131" type="curve"/>
      <point x="1575" y="-19" type="line"/>
      <point x="1383" y="-90"/>
      <point x="1154" y="-112"/>
      <point x="1034" y="-112" type="curve" smooth="yes"/>
      <point x="496" y="-112"/>
      <point x="348" y="130"/>
      <point x="348" y="658" type="curve" smooth="yes"/>
      <point x="348" y="1174"/>
      <point x="516" y="1399"/>
      <point x="1056" y="1399" type="curve" smooth="yes"/>
      <point x="1616" y="1399"/>
      <point x="1701" y="1192"/>
      <point x="1701" y="666" type="curve" smooth="yes"/>
      <point x="1701" y="341"/>
      <point x="1699" y="316"/>
      <point x="1637" y="271" type="curve"/>
      <point x="1599" y="247"/>
      <point x="1535" y="246"/>
      <point x="1441" y="246" type="curve"/>
      <point x="1441" y="915" type="line" smooth="yes"/>
      <point x="1441" y="1102"/>
      <point x="1322" y="1192"/>
      <point x="1084" y="1192" type="curve" smooth="yes"/>
      <point x="833" y="1192"/>
      <point x="683" y="1171"/>
      <point x="683" y="977" type="curve" smooth="yes"/>
      <point x="683" y="949"/>
      <point x="686" y="920"/>
      <point x="693" y="888" type="curve"/>
      <point x="825" y="888" type="line"/>
      <point x="821" y="936"/>
      <point x="809" y="999"/>
      <point x="834" y="1029" type="curve" smooth="yes"/>
      <point x="865" y="1064"/>
      <point x="937" y="1070"/>
      <point x="1055" y="1070" type="curve"/>
      <point x="1233" y="1070"/>
      <point x="1284" y="1054"/>
      <point x="1284" y="927" type="curve" smooth="yes"/>
      <point x="1284" y="709" type="line"/>
      <point x="1131" y="735"/>
      <point x="1065" y="746"/>
      <point x="962" y="746" type="curve" smooth="yes"/>
      <point x="752" y="746"/>
      <point x="644" y="650"/>
      <point x="643" y="434" type="curve" smooth="yes"/>
      <point x="643" y="196"/>
      <point x="754" y="130"/>
      <point x="1016" y="130" type="curve" smooth="yes"/>
      <point x="1246" y="130"/>
      <point x="1303" y="193"/>
      <point x="1338" y="298" type="curve"/>
      <point x="1352" y="216"/>
      <point x="1408" y="155"/>
      <point x="1495" y="155" type="curve" smooth="yes"/>
      <point x="1824" y="155"/>
      <point x="1849" y="293"/>
      <point x="1849" y="658" type="curve" smooth="yes"/>
      <point x="1849" y="1295"/>
      <point x="1695" y="1523"/>
      <point x="1037" y="1523" type="curve" smooth="yes"/>
      <point x="424" y="1523"/>
      <point x="198" y="1248"/>
      <point x="198" y="628" type="curve" smooth="yes"/>
      <point x="198" y="-9"/>
      <point x="435" y="-232"/>
    </contour>
    <contour>
      <point x="1051" y="233" type="curve" smooth="yes"/>
      <point x="818" y="233"/>
      <point x="791" y="276"/>
      <point x="791" y="395" type="curve" smooth="yes"/>
      <point x="791" y="608"/>
      <point x="836" y="634"/>
      <point x="998" y="635" type="curve" smooth="yes"/>
      <point x="1284" y="637" type="line"/>
      <point x="1283" y="456" type="line" smooth="yes"/>
      <point x="1282" y="342"/>
      <point x="1211" y="233"/>
    </contour>
  </outline>
</glyph>
<glyph name="A" format="1">
  <advance width="1373"/>
  <unicode hex="0041"/>
  <outline>
    <contour>
      <point x="687" y="1487" type="move" name="top"/>
    </contour>
    <contour>
      <point x="1179" y="0" type="move" name="ogonek"/>
    </contour>
    <contour>
      <point x="687" y="0" type="move" name="bot"/>
    </contour>
    <contour>
      <point x="566" y="1485" type="line"/>
      <point x="98" y="0" type="line"/>
      <point x="282" y="0" type="line"/>
      <point x="396" y="382" type="line"/>
      <point x="964" y="382" type="line"/>
      <point x="1082" y="0" type="line"/>
      <point x="1277" y="0" type="line"/>
      <point x="818" y="1485" type="line"/>
    </contour>
    <contour>
      <point x="921" y="522" type="line"/>
      <point x="440" y="522" type="line"/>
      <point x="682" y="1350" type="line"/>
      <point x="682" y="1350" type="line"/>
    </contour>
  </outline>
</glyph>
<glyph name="B" format="1">
  <advance width="1369"/>
  <unicode hex="0042"/>
  <outline>
    <contour>
      <point x="701" y="1489" type="move" name="top"/>
    </contour>
    <contour>
      <point x="192" y="0" type="line"/>
      <point x="723" y="0" type="line" smooth="yes"/>
      <point x="1155" y="0"/>
      <point x="1239" y="24"/>
      <point x="1239" y="429" type="curve" smooth="yes"/>
      <point x="1239" y="624"/>
      <point x="1208" y="779"/>
      <point x="975" y="802" type="curve"/>
      <point x="975" y="804" type="line"/>
      <point x="1137" y="835"/>
      <point x="1186" y="897"/>
      <point x="1186" y="1103" type="curve"/>
      <point x="1185" y="1212" type="line" smooth="yes"/>
      <point x="1183" y="1441"/>
      <point x="1039" y="1489"/>
      <point x="755" y="1489" type="curve" smooth="yes"/>
      <point x="192" y="1489" type="line"/>
    </contour>
    <contour>
      <point x="389" y="150" type="line"/>
      <point x="389" y="729" type="line"/>
      <point x="625" y="729" type="line" smooth="yes"/>
      <point x="1059" y="729"/>
      <point x="1042" y="700"/>
      <point x="1045" y="474" type="curve" smooth="yes"/>
      <point x="1047" y="345" type="line" smooth="yes"/>
      <point x="1047" y="198"/>
      <point x="1004" y="150"/>
      <point x="774" y="150" type="curve" smooth="yes"/>
    </contour>
    <contour>
      <point x="389" y="859" type="line"/>
      <point x="389" y="1338" type="line"/>
      <point x="660" y="1338" type="line" smooth="yes"/>
      <point x="988" y="1338"/>
      <point x="991" y="1328"/>
      <point x="991" y="1157" type="curve" smooth="yes"/>
      <point x="991" y="989" type="line" smooth="yes"/>
      <point x="991" y="905"/>
      <point x="951" y="859"/>
      <point x="591" y="859" type="curve" smooth="yes"/>
    </contour>
  </outline>
</glyph>
<glyph name="C" format="1">
  <advance width="1354"/>
  <unicode hex="0043"/>
  <outline>
    <contour>
      <point x="728" y="1489" type="move" name="top"/>
    </contour>
    <contour>
      <point x="728" y="0" type="move" name="bot"/>
    </contour>
    <contour>
      <point x="152" y="1064" type="curve" smooth="yes"/>
      <point x="146" y="974"/>
      <point x="144" y="875"/>
      <point x="144" y="748" type="curve" smooth="yes"/>
      <point x="144" y="629"/>
      <point x="145" y="528"/>
      <point x="153" y="440" type="curve" smooth="yes"/>
      <point x="182" y="96"/>
      <point x="298" y="-20"/>
      <point x="771" y="-20" type="curve" smooth="yes"/>
      <point x="1098" y="-20"/>
      <point x="1222" y="51"/>
      <point x="1246" y="334" type="curve" smooth="yes"/>
      <point x="1255" y="438" type="line"/>
      <point x="1085" y="449" type="line"/>
      <point x="1075" y="321"/>
      <point x="1075" y="256"/>
      <point x="1035" y="205" type="curve" smooth="yes"/>
      <point x="995" y="153"/>
      <point x="916" y="133"/>
      <point x="742" y="133" type="curve" smooth="yes"/>
      <point x="440" y="133"/>
      <point x="359" y="187"/>
      <point x="352" y="293" type="curve" smooth="yes"/>
      <point x="344" y="417"/>
      <point x="343" y="537"/>
      <point x="343" y="667" type="curve" smooth="yes"/>
      <point x="343" y="852"/>
      <point x="344" y="1021"/>
      <point x="352" y="1199" type="curve" smooth="yes"/>
      <point x="359" y="1344"/>
      <point x="486" y="1357"/>
      <point x="741" y="1357" type="curve" smooth="yes"/>
      <point x="881" y="1357"/>
      <point x="958" y="1356"/>
      <point x="1005" y="1316" type="curve" smooth="yes"/>
      <point x="1052" y="1275"/>
      <point x="1068" y="1210"/>
      <point x="1083" y="1052" type="curve"/>
      <point x="1254" y="1076" type="line"/>
      <point x="1246" y="1150" type="line" smooth="yes"/>
      <point x="1214" y="1451"/>
      <point x="1072" y="1509"/>
      <point x="753" y="1509" type="curve" smooth="yes"/>
      <point x="294" y="1509"/>
      <point x="180" y="1434"/>
    </contour>
  </outline>
</glyph>
<glyph name="D" format="1">
  <advance width="1464"/>
  <unicode hex="0044"/>
  <outline>
    <contour>
      <point x="750" y="1501" type="move" name="top"/>
    </contour>
    <contour>
      <point x="750" y="0" type="move" name="bot"/>
    </contour>
    <contour>
      <point x="351" y="771" type="move" name="mid"/>
    </contour>
    <contour>
      <point x="191" y="1504" type="line"/>
      <point x="191" y="0" type="line"/>
      <point x="592" y="0" type="line" smooth="yes"/>
      <point x="1208" y="0"/>
      <point x="1317" y="25"/>
      <point x="1325" y="649" type="curve"/>
      <point x="1326" y="900" type="line"/>
      <point x="1326" y="1377"/>
      <point x="1200" y="1504"/>
      <point x="731" y="1504" type="curve" smooth="yes"/>
    </contour>
    <contour>
      <point x="1084" y="883" type="curve" smooth="yes"/>
      <point x="1084" y="610" type="line" smooth="yes"/>
      <point x="1084" y="216"/>
      <point x="1022" y="164"/>
      <point x="668" y="164" type="curve" smooth="yes"/>
      <point x="434" y="164" type="line"/>
      <point x="434" y="1339" type="line"/>
      <point x="641" y="1339" type="line" smooth="yes"/>
      <point x="1084" y="1339"/>
      <point x="1084" y="1219"/>
    </contour>
  </outline>
</glyph>
<glyph name="E" format="1">
  <advance width="1141"/>
  <unicode hex="0045"/>
  <outline>
    <contour>
      <point x="586" y="1489" type="move" name="top"/>
    </contour>
    <contour>
      <point x="662" y="0" type="move" name="ogonek"/>
    </contour>
    <contour>
      <point x="586" y="0" type="move" name="bot"/>
    </contour>
    <contour>
      <point x="192" y="1489" type="line"/>
      <point x="192" y="0" type="line"/>
      <point x="1035" y="0" type="line"/>
      <point x="1055" y="152" type="line"/>
      <point x="391" y="152" type="line"/>
      <point x="391" y="695" type="line"/>
      <point x="950" y="695" type="line"/>
      <point x="950" y="856" type="line"/>
      <point x="391" y="856" type="line"/>
      <point x="391" y="1336" type="line"/>
      <point x="1046" y="1336" type="line"/>
      <point x="1026" y="1489" type="line"/>
    </contour>
  </outline>
</glyph>
<glyph name="F" format="1">
  <advance width="1063"/>
  <unicode hex="0046"/>
  <outline>
    <contour>
      <point x="598" y="1489" type="move" name="top"/>
    </contour>
    <contour>
      <point x="547" y="0" type="move" name="bot"/>
    </contour>
    <contour>
      <point x="192" y="1489" type="line"/>
      <point x="192" y="0" type="line"/>
      <point x="391" y="0" type="line"/>
      <point x="391" y="688" type="line"/>
      <point x="917" y="688" type="line"/>
      <point x="917" y="849" type="line"/>
      <point x="391" y="849" type="line"/>
      <point x="391" y="1336" type="line"/>
      <point x="1009" y="1336" type="line"/>
      <point x="989" y="1489" type="line"/>
    </contour>
  </outline>
</glyph>
<glyph name="G" format="1">
  <advance width="1410"/>
  <unicode hex="0047"/>
  <outline>
    <contour>
      <point x="706" y="1501" type="move" name="top"/>
    </contour>
    <contour>
      <point x="706" y="0" type="move" name="bot"/>
    </contour>
    <contour>
      <point x="175" y="1208" type="curve" smooth="yes"/>
      <point x="151" y="1109"/>
      <point x="147" y="923"/>
      <point x="147" y="751" type="curve" smooth="yes"/>
      <point x="147" y="591"/>
      <point x="149" y="411"/>
      <point x="165" y="315" type="curve" smooth="yes"/>
      <point x="202" y="49"/>
      <point x="332" y="-20"/>
      <point x="697" y="-20" type="curve" smooth="yes"/>
      <point x="971" y="-20"/>
      <point x="1184" y="23"/>
      <point x="1279" y="110" type="curve"/>
      <point x="1279" y="748" type="line"/>
      <point x="751" y="748" type="line"/>
      <point x="766" y="595" type="line"/>
      <point x="1063" y="595" type="line"/>
      <point x="1063" y="188" type="line"/>
      <point x="1040" y="161"/>
      <point x="910" y="148"/>
      <point x="707" y="148" type="curve" smooth="yes"/>
      <point x="418" y="148"/>
      <point x="406" y="180"/>
      <point x="399" y="341" type="curve" smooth="yes"/>
      <point x="393" y="460"/>
      <point x="391" y="650"/>
      <point x="391" y="775" type="curve" smooth="yes"/>
      <point x="391" y="896"/>
      <point x="391" y="1089"/>
      <point x="399" y="1208" type="curve" smooth="yes"/>
      <point x="406" y="1319"/>
      <point x="466" y="1355"/>
      <point x="707" y="1355" type="curve" smooth="yes"/>
      <point x="931" y="1355"/>
      <point x="1021" y="1344"/>
      <point x="1024" y="1267" type="curve" smooth="yes"/>
      <point x="1034" y="1046" type="line"/>
      <point x="1255" y="1078" type="line"/>
      <point x="1256" y="1092"/>
      <point x="1257" y="1137"/>
      <point x="1257" y="1151" type="curve" smooth="yes"/>
      <point x="1257" y="1512"/>
      <point x="1003" y="1524"/>
      <point x="733" y="1524" type="curve" smooth="yes"/>
      <point x="384" y="1524"/>
      <point x="221" y="1456"/>
    </contour>
  </outline>
</glyph>
<glyph name="H" format="1">
  <advance width="1453"/>
  <unicode hex="0048"/>
  <outline>
    <contour>
      <point x="726" y="1489" type="move" name="top"/>
    </contour>
    <contour>
      <point x="726" y="0" type="move" name="bot"/>
    </contour>
    <contour>
      <point x="732" y="744" type="move" name="center"/>
    </contour>
    <contour>
      <point x="1062" y="1489" type="line"/>
      <point x="1062" y="841" type="line"/>
      <point x="391" y="841" type="line"/>
      <point x="391" y="1489" type="line"/>
      <point x="192" y="1489" type="line"/>
      <point x="192" y="0" type="line"/>
      <point x="391" y="0" type="line"/>
      <point x="391" y="684" type="line"/>
      <point x="1062" y="684" type="line"/>
      <point x="1062" y="0" type="line"/>
      <point x="1261" y="0" type="line"/>
      <point x="1261" y="1489" type="line"/>
    </contour>
  </outline>
</glyph>
<glyph name="I" format="1">
  <advance width="520"/>
  <unicode hex="0049"/>
  <outline>
    <contour>
      <point x="261" y="1489" type="move" name="top"/>
    </contour>
    <contour>
      <point x="267" y="0" type="move" name="ogonek"/>
    </contour>
    <contour>
      <point x="261" y="0" type="move" name="bot"/>
    </contour>
    <contour>
      <point x="161" y="1489" type="line"/>
      <point x="161" y="0" type="line"/>
      <point x="360" y="0" type="line"/>
      <point x="360" y="1489" type="line"/>
    </contour>
  </outline>
</glyph>
<glyph name="J" format="1">
  <advance width="754"/>
  <unicode hex="004A"/>
  <outline>
    <contour>
      <point x="495" y="1489" type="move" name="top"/>
    </contour>
    <contour>
      <point x="377" y="0" type="move" name="bot"/>
    </contour>
    <contour>
      <point x="278" y="-15" type="curve" smooth="yes"/>
      <point x="470" y="-15"/>
      <point x="596" y="36"/>
      <point x="596" y="319" type="curve" smooth="yes"/>
      <point x="596" y="1489" type="line"/>
      <point x="397" y="1489" type="line"/>
      <point x="397" y="338" type="line" smooth="yes"/>
      <point x="397" y="202"/>
      <point x="392" y="157"/>
      <point x="266" y="142" type="curve" smooth="yes"/>
      <point x="226" y="137"/>
      <point x="175" y="136"/>
      <point x="106" y="136" type="curve"/>
      <point x="112" y="-7" type="line"/>
      <point x="111" y="-7"/>
      <point x="208" y="-15"/>
    </contour>
  </outline>
</glyph>
<glyph name="K" format="1">
  <advance width="1279"/>
  <unicode hex="004B"/>
  <outline>
    <contour>
      <point x="638" y="1489" type="move" name="top"/>
    </contour>
    <contour>
      <point x="638" y="0" type="move" name="bot"/>
    </contour>
    <contour>
      <point x="972" y="1489" type="line"/>
      <point x="505" y="900" type="line"/>
      <point x="389" y="753" type="line"/>
      <point x="390" y="934" type="line"/>
      <point x="390" y="1489" type="line"/>
      <point x="192" y="1489" type="line"/>
      <point x="192" y="0" type="line"/>
      <point x="390" y="0" type="line"/>
      <point x="390" y="591" type="line"/>
      <point x="468" y="684" type="line"/>
      <point x="1034" y="0" type="line"/>
      <point x="1275" y="0" type="line"/>
      <point x="633" y="779" type="line"/>
      <point x="1209" y="1489" type="line"/>
    </contour>
  </outline>
</glyph>
<glyph name="L" format="1">
  <advance width="1004"/>
  <unicode hex="004C"/>
  <outline>
    <contour>
      <point x="299" y="1487" type="move" name="top"/>
    </contour>
    <contour>
      <point x="339" y="1092" type="move" name="caron.alt"/>
    </contour>
    <contour>
      <point x="546" y="0" type="move" name="bot"/>
    </contour>
    <contour>
      <point x="192" y="1485" type="line"/>
      <point x="192" y="0" type="line"/>
      <point x="944" y="0" type="line"/>
      <point x="964" y="149" type="line"/>
      <point x="383" y="149" type="line"/>
      <point x="383" y="1485" type="line"/>
    </contour>
  </outline>
</glyph>
<glyph name="M" format="1">
  <advance width="1766"/>
  <unicode hex="004D"/>
  <outline>
    <contour>
      <point x="885" y="1489" type="move" name="top"/>
    </contour>
    <contour>
      <point x="885" y="0" type="move" name="bot"/>
    </contour>
    <contour>
      <point x="1312" y="1489" type="line"/>
      <point x="888" y="326" type="line"/>
      <point x="886" y="326" type="line"/>
      <point x="454" y="1489" type="line"/>
      <point x="238" y="1489" type="line"/>
      <point x="140" y="0" type="line"/>
      <point x="324" y="0" type="line"/>
      <point x="393" y="1183" type="line"/>
      <point x="394" y="1183" type="line"/>
      <point x="829" y="0" type="line"/>
      <point x="942" y="0" type="line"/>
      <point x="1355" y="1183" type="line"/>
      <point x="1360" y="1183" type="line"/>
      <point x="1431" y="0" type="line"/>
      <point x="1626" y="0" type="line"/>
      <point x="1527" y="1489" type="line"/>
    </contour>
  </outline>
</glyph>
<glyph name="N" format="1">
  <advance width="1510"/>
  <unicode hex="004E"/>
  <outline>
    <contour>
      <point x="774" y="1501" type="move" name="top"/>
    </contour>
    <contour>
      <point x="756" y="0" type="move" name="bot"/>
    </contour>
    <contour>
      <point x="1115" y="1504" type="line"/>
      <point x="1115" y="367" type="line"/>
      <point x="427" y="1504" type="line"/>
      <point x="191" y="1504" type="line"/>
      <point x="191" y="0" type="line"/>
      <point x="396" y="0" type="line"/>
      <point x="396" y="1116" type="line"/>
      <point x="1076" y="0" type="line"/>
      <point x="1319" y="0" type="line"/>
      <point x="1319" y="1504" type="line"/>
    </contour>
  </outline>
</glyph>
<glyph name="O" format="1">
  <advance width="1472"/>
  <unicode hex="004F"/>
  <outline>
    <contour>
      <point x="736" y="1501" type="move" name="top"/>
    </contour>
    <contour>
      <point x="836" y="0" type="move" name="ogonek"/>
    </contour>
    <contour>
      <point x="736" y="0" type="move" name="bot"/>
    </contour>
    <contour>
      <point x="736" y="149" type="curve" smooth="yes"/>
      <point x="436" y="149"/>
      <point x="399" y="190"/>
      <point x="394" y="378" type="curve" smooth="yes"/>
      <point x="391" y="457"/>
      <point x="391" y="608"/>
      <point x="391" y="750" type="curve" smooth="yes"/>
      <point x="391" y="896"/>
      <point x="391" y="1046"/>
      <point x="394" y="1126" type="curve" smooth="yes"/>
      <point x="399" y="1314"/>
      <point x="436" y="1354"/>
      <point x="736" y="1354" type="curve" smooth="yes"/>
      <point x="1037" y="1354"/>
      <point x="1073" y="1314"/>
      <point x="1079" y="1126" type="curve" smooth="yes"/>
      <point x="1081" y="1046"/>
      <point x="1081" y="896"/>
      <point x="1081" y="750" type="curve" smooth="yes"/>
      <point x="1081" y="608"/>
      <point x="1081" y="457"/>
      <point x="1079" y="378" type="curve" smooth="yes"/>
      <point x="1073" y="190"/>
      <point x="1037" y="149"/>
    </contour>
    <contour>
      <point x="736" y="-20" type="curve" smooth="yes"/>
      <point x="1215" y="-20"/>
      <point x="1325" y="112"/>
      <point x="1325" y="644" type="curve" smooth="yes"/>
      <point x="1325" y="860" type="line" smooth="yes"/>
      <point x="1325" y="1392"/>
      <point x="1212" y="1524"/>
      <point x="736" y="1524" type="curve" smooth="yes"/>
      <point x="257" y="1524"/>
      <point x="147" y="1391"/>
      <point x="147" y="860" type="curve" smooth="yes"/>
      <point x="147" y="644" type="line" smooth="yes"/>
      <point x="147" y="111"/>
      <point x="255" y="-20"/>
    </contour>
  </outline>
</glyph>
<glyph name="P" format="1">
  <advance width="1300"/>
  <unicode hex="0050"/>
  <outline>
    <contour>
      <point x="656" y="1489" type="move" name="top"/>
    </contour>
    <contour>
      <point x="656" y="0" type="move" name="bot"/>
    </contour>
    <contour>
      <point x="192" y="0" type="line"/>
      <point x="390" y="0" type="line"/>
      <point x="390" y="522" type="line"/>
      <point x="790" y="522" type="line" smooth="yes"/>
      <point x="1034" y="522"/>
      <point x="1187" y="574"/>
      <point x="1194" y="980" type="curve" smooth="yes"/>
      <point x="1194" y="1002" type="line" smooth="yes"/>
      <point x="1194" y="1413"/>
      <point x="1083" y="1489"/>
      <point x="730" y="1489" type="curve" smooth="yes"/>
      <point x="192" y="1489" type="line"/>
    </contour>
    <contour>
      <point x="390" y="672" type="line"/>
      <point x="390" y="1340" type="line"/>
      <point x="787" y="1340" type="line" smooth="yes"/>
      <point x="856" y="1340"/>
      <point x="901" y="1332"/>
      <point x="932" y="1307" type="curve" smooth="yes"/>
      <point x="984" y="1266"/>
      <point x="993" y="1184"/>
      <point x="996" y="1015" type="curve" smooth="yes"/>
      <point x="996" y="858"/>
      <point x="997" y="761"/>
      <point x="926" y="711" type="curve" smooth="yes"/>
      <point x="889" y="685"/>
      <point x="833" y="672"/>
      <point x="746" y="672" type="curve" smooth="yes"/>
    </contour>
  </outline>
</glyph>
<glyph name="Q" format="1">
  <advance width="1441"/>
  <unicode hex="0051"/>
  <outline>
    <contour>
      <point x="847" y="30" type="line"/>
      <point x="1099" y="-357" type="line"/>
      <point x="1250" y="-271" type="line"/>
      <point x="1040" y="67" type="line"/>
    </contour>
    <component base="O"/>
  </outline>
</glyph>
<glyph name="R" format="1">
  <advance width="1378"/>
  <unicode hex="0052"/>
  <outline>
    <contour>
      <point x="699" y="1489" type="move" name="top"/>
    </contour>
    <contour>
      <point x="699" y="0" type="move" name="bot"/>
    </contour>
    <contour>
      <point x="192" y="0" type="line"/>
      <point x="390" y="0" type="line"/>
      <point x="390" y="641" type="line"/>
      <point x="700" y="641" type="line" smooth="yes"/>
      <point x="852" y="641"/>
      <point x="954" y="599"/>
      <point x="978" y="433" type="curve" smooth="yes"/>
      <point x="1041" y="0" type="line"/>
      <point x="1254" y="0" type="line"/>
      <point x="1176" y="465" type="line" smooth="yes"/>
      <point x="1152" y="602"/>
      <point x="1099" y="686"/>
      <point x="973" y="712" type="curve"/>
      <point x="973" y="713" type="line" smooth="yes"/>
      <point x="1127" y="740"/>
      <point x="1222" y="819"/>
      <point x="1222" y="1089" type="curve" smooth="yes"/>
      <point x="1222" y="1469"/>
      <point x="1032" y="1489"/>
      <point x="643" y="1489" type="curve" smooth="yes"/>
      <point x="192" y="1489" type="line"/>
    </contour>
    <contour>
      <point x="390" y="799" type="line"/>
      <point x="390" y="1337" type="line"/>
      <point x="729" y="1337" type="line" smooth="yes"/>
      <point x="1012" y="1337"/>
      <point x="1026" y="1295"/>
      <point x="1026" y="1084" type="curve" smooth="yes"/>
      <point x="1026" y="854"/>
      <point x="996" y="799"/>
      <point x="741" y="799" type="curve" smooth="yes"/>
    </contour>
  </outline>
</glyph>
<glyph name="S" format="1">
  <advance width="1291"/>
  <unicode hex="0053"/>
  <outline>
    <contour>
      <point x="639" y="1487" type="move" name="top"/>
    </contour>
    <contour>
      <point x="639" y="0" type="move" name="bot"/>
    </contour>
    <contour>
      <point x="636" y="-20" type="curve" smooth="yes"/>
      <point x="1007" y="-20"/>
      <point x="1150" y="6"/>
      <point x="1150" y="436" type="curve" smooth="yes"/>
      <point x="1150" y="780"/>
      <point x="1035" y="803"/>
      <point x="781" y="845" type="curve" smooth="yes"/>
      <point x="479" y="897" type="line"/>
      <point x="431" y="905"/>
      <point x="397" y="917"/>
      <point x="376" y="936" type="curve" smooth="yes"/>
      <point x="344" y="966"/>
      <point x="337" y="1002"/>
      <point x="337" y="1074" type="curve" smooth="yes"/>
      <point x="337" y="1301"/>
      <point x="368" y="1341"/>
      <point x="663" y="1341" type="curve" smooth="yes"/>
      <point x="811" y="1341"/>
      <point x="875" y="1332"/>
      <point x="908" y="1299" type="curve" smooth="yes"/>
      <point x="942" y="1267"/>
      <point x="940" y="1217"/>
      <point x="948" y="1123" type="curve"/>
      <point x="1115" y="1164" type="line"/>
      <point x="1115" y="1460"/>
      <point x="978" y="1505"/>
      <point x="631" y="1505" type="curve" smooth="yes"/>
      <point x="262" y="1505"/>
      <point x="155" y="1434"/>
      <point x="155" y="1076" type="curve" smooth="yes"/>
      <point x="155" y="851"/>
      <point x="214" y="762"/>
      <point x="385" y="734" type="curve" smooth="yes"/>
      <point x="727" y="675" type="line"/>
      <point x="724" y="677"/>
      <point x="887" y="648"/>
      <point x="887" y="650" type="curve" smooth="yes"/>
      <point x="950" y="639"/>
      <point x="961" y="588"/>
      <point x="962" y="416" type="curve" smooth="yes"/>
      <point x="963" y="183"/>
      <point x="931" y="139"/>
      <point x="641" y="139" type="curve" smooth="yes"/>
      <point x="470" y="139"/>
      <point x="395" y="152"/>
      <point x="357" y="194" type="curve" smooth="yes"/>
      <point x="320" y="236"/>
      <point x="322" y="296"/>
      <point x="309" y="411" type="curve"/>
      <point x="135" y="382" type="line"/>
      <point x="149" y="76"/>
      <point x="169" y="-20"/>
    </contour>
  </outline>
</glyph>
<glyph name="T" format="1">
  <advance width="1082"/>
  <unicode hex="0054"/>
  <outline>
    <contour>
      <point x="542" y="1489" type="move" name="top"/>
    </contour>
    <contour>
      <point x="542" y="0" type="move" name="bot"/>
    </contour>
    <contour>
      <point x="540" y="898" type="move" name="mid"/>
    </contour>
    <contour>
      <point x="56" y="1489" type="line"/>
      <point x="56" y="1336" type="line"/>
      <point x="438" y="1336" type="line"/>
      <point x="438" y="0" type="line"/>
      <point x="637" y="0" type="line"/>
      <point x="637" y="1336" type="line"/>
      <point x="1026" y="1336" type="line"/>
      <point x="1026" y="1489" type="line"/>
    </contour>
  </outline>
</glyph>
<glyph name="U" format="1">
  <advance width="1414"/>
  <unicode hex="0055"/>
  <outline>
    <contour>
      <point x="708" y="1489" type="move" name="top"/>
    </contour>
    <contour>
      <point x="782" y="0" type="move" name="ogonek"/>
    </contour>
    <contour>
      <point x="708" y="0" type="move" name="bot"/>
    </contour>
    <contour>
      <point x="146" y="1489" type="line"/>
      <point x="146" y="563" type="line" smooth="yes"/>
      <point x="146" y="74"/>
      <point x="281" y="-20"/>
      <point x="706" y="-20" type="curve" smooth="yes"/>
      <point x="1150" y="-20"/>
      <point x="1268" y="93"/>
      <point x="1268" y="563" type="curve" smooth="yes"/>
      <point x="1268" y="1489" type="line"/>
      <point x="1070" y="1489" type="line"/>
      <point x="1070" y="441" type="line" smooth="yes"/>
      <point x="1070" y="191"/>
      <point x="1037" y="133"/>
      <point x="707" y="133" type="curve" smooth="yes"/>
      <point x="345" y="133"/>
      <point x="345" y="180"/>
      <point x="345" y="538" type="curve" smooth="yes"/>
      <point x="345" y="1489" type="line"/>
    </contour>
  </outline>
</glyph>
<glyph name="V" format="1">
  <advance width="1348"/>
  <unicode hex="0056"/>
  <outline>
    <contour>
      <point x="1040" y="1504" type="line"/>
      <point x="673" y="281" type="line"/>
      <point x="671" y="281" type="line"/>
      <point x="298" y="1504" type="line"/>
      <point x="45" y="1504" type="line"/>
      <point x="531" y="0" type="line"/>
      <point x="805" y="0" type="line"/>
      <point x="1297" y="1504" type="line"/>
    </contour>
  </outline>
</glyph>
<glyph name="W" format="1">
  <advance width="1914"/>
  <unicode hex="0057"/>
  <outline>
    <contour>
      <point x="954" y="1489" type="move" name="top"/>
    </contour>
    <contour>
      <point x="954" y="0" type="move" name="bot"/>
    </contour>
    <contour>
      <point x="1618" y="1489" type="line"/>
      <point x="1392" y="305" type="line"/>
      <point x="1378" y="305" type="line"/>
      <point x="1065" y="1489" type="line"/>
      <point x="867" y="1489" type="line"/>
      <point x="550" y="297" type="line"/>
      <point x="541" y="297" type="line"/>
      <point x="309" y="1489" type="line"/>
      <point x="109" y="1489" type="line"/>
      <point x="428" y="0" type="line"/>
      <point x="640" y="0" type="line"/>
      <point x="960" y="1164" type="line"/>
      <point x="975" y="1164" type="line"/>
      <point x="1270" y="0" type="line"/>
      <point x="1483" y="0" type="line"/>
      <point x="1805" y="1489" type="line"/>
    </contour>
  </outline>
</glyph>
<glyph name="X" format="1">
  <advance width="1264"/>
  <unicode hex="0058"/>
  <outline>
    <contour>
      <point x="995" y="1489" type="line"/>
      <point x="616" y="889" type="line"/>
      <point x="543" y="795" type="line"/>
      <point x="44" y="0" type="line"/>
      <point x="262" y="0" type="line"/>
      <point x="655" y="620" type="line"/>
      <point x="731" y="722" type="line"/>
      <point x="1209" y="1489" type="line"/>
    </contour>
    <contour>
      <point x="85" y="1489" type="line"/>
      <point x="1007" y="0" type="line"/>
      <point x="1215" y="0" type="line"/>
      <point x="289" y="1489" type="line"/>
    </contour>
  </outline>
</glyph>
<glyph name="Y" format="1">
  <advance width="1216"/>
  <unicode hex="0059"/>
  <outline>
    <contour>
      <point x="620" y="1489" type="move" name="top"/>
    </contour>
    <contour>
      <point x="620" y="0" type="move" name="bot"/>
    </contour>
    <contour>
      <point x="973" y="1489" type="line"/>
      <point x="610" y="726" type="line"/>
      <point x="608" y="726" type="line"/>
      <point x="258" y="1489" type="line"/>
      <point x="50" y="1489" type="line"/>
      <point x="503" y="518" type="line"/>
      <point x="503" y="0" type="line"/>
      <point x="701" y="0" type="line"/>
      <point x="701" y="518" type="line"/>
      <point x="1174" y="1489" type="line"/>
    </contour>
  </outline>
</glyph>
<glyph name="Z" format="1">
  <advance width="1133"/>
  <unicode hex="005A"/>
  <outline>
    <contour>
      <point x="570" y="1501" type="move" name="top"/>
    </contour>
    <contour>
      <point x="570" y="0" type="move" name="bot"/>
    </contour>
    <contour>
      <point x="150" y="1504" type="line"/>
      <point x="167" y="1334" type="line"/>
      <point x="795" y="1334" type="line"/>
      <point x="118" y="188" type="line"/>
      <point x="127" y="0" type="line"/>
      <point x="1025" y="0" type="line"/>
      <point x="1026" y="170" type="line"/>
      <point x="372" y="170" type="line"/>
      <point x="1034" y="1315" type="line"/>
      <point x="1024" y="1504" type="line"/>
    </contour>
  </outline>
</glyph>
<glyph name="bracketleft" format="1">
  <advance width="717"/>
  <unicode hex="005B"/>
  <outline>
    <contour>
      <point x="201" y="1636" type="line"/>
      <point x="201" y="-272" type="line"/>
      <point x="641" y="-272" type="line"/>
      <point x="641" y="-120" type="line"/>
      <point x="387" y="-120" type="line"/>
      <point x="387" y="1486" type="line"/>
      <point x="641" y="1486" type="line"/>
      <point x="641" y="1636" type="line"/>
    </contour>
  </outline>
</glyph>
<glyph name="backslash" format="1">
  <advance width="822"/>
  <unicode hex="005C"/>
  <outline>
    <contour>
      <point x="125" y="1526" type="line"/>
      <point x="478" y="-23" type="line"/>
      <point x="695" y="-23" type="line"/>
      <point x="351" y="1526" type="line"/>
    </contour>
  </outline>
</glyph>
<glyph name="bracketright" format="1">
  <advance width="712"/>
  <unicode hex="005D"/>
  <outline>
    <contour>
      <point x="98" y="1636" type="line"/>
      <point x="98" y="1486" type="line"/>
      <point x="351" y="1486" type="line"/>
      <point x="351" y="-120" type="line"/>
      <point x="98" y="-120" type="line"/>
      <point x="98" y="-272" type="line"/>
      <point x="538" y="-272" type="line"/>
      <point x="538" y="1636" type="line"/>
    </contour>
  </outline>
</glyph>
<glyph name="asciicircum" format="1">
  <advance width="968"/>
  <unicode hex="005E"/>
  <outline>
    <contour>
      <point x="485" y="1489" type="curve" smooth="yes"/>
      <point x="440" y="1489"/>
      <point x="412" y="1474"/>
      <point x="393" y="1434" type="curve" smooth="yes"/>
      <point x="49" y="746" type="line" smooth="yes"/>
      <point x="22" y="692"/>
      <point x="106" y="659"/>
      <point x="134" y="707" type="curve" smooth="yes"/>
      <point x="485" y="1309" type="line"/>
      <point x="836" y="707" type="line" smooth="yes"/>
      <point x="864" y="659"/>
      <point x="948" y="692"/>
      <point x="921" y="746" type="curve" smooth="yes"/>
      <point x="577" y="1434" type="line" smooth="yes"/>
      <point x="558" y="1474"/>
      <point x="530" y="1489"/>
    </contour>
  </outline>
</glyph>
<glyph name="underscore" format="1">
  <advance width="848"/>
  <unicode hex="005F"/>
  <outline>
    <contour>
      <point x="6" y="-100" type="line"/>
      <point x="6" y="-226" type="line"/>
      <point x="842" y="-226" type="line"/>
      <point x="842" y="-100" type="line"/>
    </contour>
  </outline>
</glyph>
<glyph name="grave" format="1">
  <advance width="673"/>
  <unicode hex="0060"/>
  <outline>
    <contour>
      <point x="354" y="1095" type="move" name="_top"/>
    </contour>
    <contour>
      <point x="88" y="1537" type="curve" smooth="yes"/>
      <point x="88" y="1498"/>
      <point x="110" y="1454"/>
      <point x="159" y="1434" type="curve" smooth="yes"/>
      <point x="183" y="1423"/>
      <point x="554" y="1284"/>
      <point x="553" y="1285" type="curve" smooth="yes"/>
      <point x="559" y="1283"/>
      <point x="564" y="1285"/>
      <point x="567" y="1288" type="curve" smooth="yes"/>
      <point x="571" y="1293"/>
      <point x="572" y="1301"/>
      <point x="568" y="1305" type="curve" smooth="yes"/>
      <point x="570" y="1304"/>
      <point x="312" y="1569"/>
      <point x="274" y="1601" type="curve" smooth="yes"/>
      <point x="250" y="1620"/>
      <point x="223" y="1636"/>
      <point x="191" y="1636" type="curve" smooth="yes"/>
      <point x="125" y="1636"/>
      <point x="88" y="1587"/>
    </contour>
  </outline>
</glyph>
<glyph name="a" format="1">
  <advance width="1122"/>
  <unicode hex="0061"/>
  <outline>
    <contour>
      <point x="539" y="1095" type="move" name="top"/>
    </contour>
    <contour>
      <point x="900" y="0" type="move" name="ogonek"/>
    </contour>
    <contour>
      <point x="564" y="0" type="move" name="bot"/>
    </contour>
    <contour>
      <point x="156" y="876" type="curve" smooth="yes"/>
      <point x="156" y="861"/>
      <point x="156" y="846"/>
      <point x="158" y="829" type="curve"/>
      <point x="307" y="823" type="line"/>
      <point x="308" y="856"/>
      <point x="309" y="883"/>
      <point x="312" y="904" type="curve" smooth="yes"/>
      <point x="323" y="974"/>
      <point x="362" y="990"/>
      <point x="547" y="990" type="curve" smooth="yes"/>
      <point x="711" y="990"/>
      <point x="785" y="969"/>
      <point x="785" y="899" type="curve" smooth="yes"/>
      <point x="785" y="602" type="line"/>
      <point x="701" y="602"/>
      <point x="625" y="601"/>
      <point x="554" y="597" type="curve" smooth="yes"/>
      <point x="294" y="583"/>
      <point x="133" y="528"/>
      <point x="133" y="354" type="curve" smooth="yes"/>
      <point x="133" y="86"/>
      <point x="199" y="-20"/>
      <point x="465" y="-20" type="curve" smooth="yes"/>
      <point x="648" y="-20"/>
      <point x="751" y="10"/>
      <point x="794" y="157" type="curve"/>
      <point x="826" y="0" type="line"/>
      <point x="979" y="0" type="line"/>
      <point x="979" y="724" type="line" smooth="yes"/>
      <point x="979" y="1034"/>
      <point x="872" y="1115"/>
      <point x="560" y="1115" type="curve" smooth="yes"/>
      <point x="325" y="1115"/>
      <point x="156" y="1102"/>
    </contour>
    <contour>
      <point x="785" y="315" type="line"/>
      <point x="785" y="203"/>
      <point x="718" y="121"/>
      <point x="490" y="121" type="curve" smooth="yes"/>
      <point x="343" y="121"/>
      <point x="317" y="144"/>
      <point x="312" y="267" type="curve" smooth="yes"/>
      <point x="311" y="292"/>
      <point x="311" y="317"/>
      <point x="311" y="351" type="curve" smooth="yes"/>
      <point x="311" y="441"/>
      <point x="379" y="483"/>
      <point x="785" y="483" type="curve"/>
    </contour>
  </outline>
</glyph>
<glyph name="b" format="1">
  <advance width="1194"/>
  <unicode hex="0062"/>
  <outline>
    <contour>
      <point x="595" y="1095" type="move" name="top"/>
    </contour>
    <contour>
      <point x="160" y="1525" type="line"/>
      <point x="160" y="0" type="line"/>
      <point x="336" y="0" type="line"/>
      <point x="354" y="138" type="line"/>
      <point x="391" y="38"/>
      <point x="499" y="-20"/>
      <point x="673" y="-20" type="curve" smooth="yes"/>
      <point x="1010" y="-20"/>
      <point x="1053" y="133"/>
      <point x="1057" y="507" type="curve" smooth="yes"/>
      <point x="1058" y="608" type="line" smooth="yes"/>
      <point x="1061" y="918"/>
      <point x="1025" y="1115"/>
      <point x="657" y="1115" type="curve" smooth="yes"/>
      <point x="488" y="1115"/>
      <point x="397" y="1065"/>
      <point x="353" y="963" type="curve"/>
      <point x="353" y="1525" type="line"/>
    </contour>
    <contour>
      <point x="613" y="116" type="curve" smooth="yes"/>
      <point x="423" y="116"/>
      <point x="353" y="158"/>
      <point x="353" y="270" type="curve" smooth="yes"/>
      <point x="353" y="759" type="line" smooth="yes"/>
      <point x="353" y="956"/>
      <point x="392" y="978"/>
      <point x="612" y="978" type="curve" smooth="yes"/>
      <point x="862" y="978"/>
      <point x="866" y="937"/>
      <point x="866" y="746" type="curve" smooth="yes"/>
      <point x="866" y="345" type="line" smooth="yes"/>
      <point x="866" y="133"/>
      <point x="827" y="116"/>
    </contour>
  </outline>
</glyph>
<glyph name="c" format="1">
  <advance width="1093"/>
  <unicode hex="0063"/>
  <outline>
    <contour>
      <point x="536" y="1095" type="move" name="top"/>
    </contour>
    <contour>
      <point x="552" y="0" type="move" name="bot"/>
    </contour>
    <contour>
      <point x="136" y="616" type="curve" smooth="yes"/>
      <point x="136" y="518" type="line" smooth="yes"/>
      <point x="139" y="115"/>
      <point x="172" y="-20"/>
      <point x="578" y="-20" type="curve" smooth="yes"/>
      <point x="896" y="-20"/>
      <point x="964" y="39"/>
      <point x="984" y="250" type="curve" smooth="yes"/>
      <point x="993" y="335" type="line"/>
      <point x="833" y="354" type="line"/>
      <point x="820" y="223" type="line" smooth="yes"/>
      <point x="812" y="131"/>
      <point x="778" y="117"/>
      <point x="569" y="117" type="curve" smooth="yes"/>
      <point x="322" y="117"/>
      <point x="319" y="164"/>
      <point x="319" y="440" type="curve" smooth="yes"/>
      <point x="319" y="715" type="line" smooth="yes"/>
      <point x="319" y="922"/>
      <point x="327" y="977"/>
      <point x="587" y="977" type="curve" smooth="yes"/>
      <point x="805" y="977"/>
      <point x="802" y="941"/>
      <point x="813" y="871" type="curve" smooth="yes"/>
      <point x="835" y="743" type="line"/>
      <point x="993" y="770" type="line"/>
      <point x="976" y="890" type="line" smooth="yes"/>
      <point x="951" y="1079"/>
      <point x="878" y="1115"/>
      <point x="588" y="1115" type="curve" smooth="yes"/>
      <point x="172" y="1115"/>
      <point x="136" y="1010"/>
    </contour>
  </outline>
</glyph>
<glyph name="d" format="1">
  <advance width="1193"/>
  <unicode hex="0064"/>
  <outline>
    <contour>
      <point x="603" y="1094" type="move" name="top"/>
    </contour>
    <contour>
      <point x="944" y="1095" type="move" name="caron.alt"/>
    </contour>
    <contour>
      <point x="909" y="1317" type="move" name="mid"/>
    </contour>
    <contour>
      <point x="839" y="1525" type="line"/>
      <point x="839" y="971" type="line"/>
      <point x="799" y="1070"/>
      <point x="710" y="1115"/>
      <point x="537" y="1115" type="curve" smooth="yes"/>
      <point x="178" y="1115"/>
      <point x="136" y="955"/>
      <point x="136" y="562" type="curve" smooth="yes"/>
      <point x="136" y="503" type="line" smooth="yes"/>
      <point x="136" y="169"/>
      <point x="167" y="-20"/>
      <point x="518" y="-20" type="curve" smooth="yes"/>
      <point x="693" y="-20"/>
      <point x="798" y="38"/>
      <point x="837" y="138" type="curve"/>
      <point x="856" y="0" type="line"/>
      <point x="1033" y="0" type="line"/>
      <point x="1033" y="1525" type="line"/>
    </contour>
    <contour>
      <point x="581" y="116" type="curve" smooth="yes"/>
      <point x="329" y="116"/>
      <point x="331" y="193"/>
      <point x="330" y="397" type="curve" smooth="yes"/>
      <point x="329" y="702" type="line" smooth="yes"/>
      <point x="328" y="930"/>
      <point x="363" y="978"/>
      <point x="581" y="978" type="curve" smooth="yes"/>
      <point x="782" y="978"/>
      <point x="839" y="941"/>
      <point x="839" y="824" type="curve" smooth="yes"/>
      <point x="839" y="256" type="line" smooth="yes"/>
      <point x="839" y="150"/>
      <point x="766" y="116"/>
    </contour>
  </outline>
</glyph>
<glyph name="e" format="1">
  <advance width="1135"/>
  <unicode hex="0065"/>
  <outline>
    <contour>
      <point x="553" y="1095" type="move" name="top"/>
    </contour>
    <contour>
      <point x="657" y="0" type="move" name="ogonek"/>
    </contour>
    <contour>
      <point x="574" y="0" type="move" name="bot"/>
    </contour>
    <contour>
      <point x="596" y="-20" type="curve" smooth="yes"/>
      <point x="863" y="-20"/>
      <point x="985" y="18"/>
      <point x="990" y="229" type="curve" smooth="yes"/>
      <point x="990" y="228"/>
      <point x="992" y="320"/>
      <point x="993" y="319" type="curve"/>
      <point x="843" y="327" type="line"/>
      <point x="833" y="207" type="line" smooth="yes"/>
      <point x="828" y="147"/>
      <point x="777" y="116"/>
      <point x="604" y="116" type="curve" smooth="yes"/>
      <point x="402" y="116"/>
      <point x="341" y="136"/>
      <point x="336" y="227" type="curve" smooth="yes"/>
      <point x="330" y="332"/>
      <point x="329" y="435"/>
      <point x="328" y="549" type="curve"/>
      <point x="1017" y="549" type="line" smooth="yes"/>
      <point x="1022" y="626" type="line"/>
      <point x="1017" y="1025"/>
      <point x="968" y="1115"/>
      <point x="588" y="1115" type="curve" smooth="yes"/>
      <point x="177" y="1115"/>
      <point x="136" y="1017"/>
      <point x="136" y="590" type="curve" smooth="yes"/>
      <point x="136" y="457" type="line" smooth="yes"/>
      <point x="136" y="70"/>
      <point x="217" y="-20"/>
    </contour>
    <contour>
      <point x="329" y="654" type="line"/>
      <point x="331" y="719"/>
      <point x="328" y="814"/>
      <point x="346" y="883" type="curve" smooth="yes"/>
      <point x="367" y="960"/>
      <point x="388" y="979"/>
      <point x="587" y="979" type="curve" smooth="yes"/>
      <point x="759" y="979"/>
      <point x="812" y="959"/>
      <point x="818" y="876" type="curve" smooth="yes"/>
      <point x="824" y="799"/>
      <point x="828" y="723"/>
      <point x="829" y="654" type="curve"/>
    </contour>
  </outline>
</glyph>
<glyph name="f" format="1">
  <advance width="710"/>
  <unicode hex="0066"/>
  <outline>
    <contour>
      <point x="351" y="1368" type="move" name="top"/>
    </contour>
    <contour>
      <point x="244" y="1095" type="curve"/>
      <point x="115" y="1095" type="line"/>
      <point x="115" y="983" type="line"/>
      <point x="244" y="983" type="line"/>
      <point x="244" y="0" type="line"/>
      <point x="437" y="0" type="line"/>
      <point x="437" y="983" type="line"/>
      <point x="634" y="983" type="line"/>
      <point x="634" y="1095" type="line"/>
      <point x="437" y="1095" type="line"/>
      <point x="436" y="1220" type="line" smooth="yes"/>
      <point x="436" y="1346"/>
      <point x="444" y="1352"/>
      <point x="514" y="1352" type="curve" smooth="yes"/>
      <point x="570" y="1352"/>
      <point x="603" y="1351"/>
      <point x="640" y="1349" type="curve"/>
      <point x="640" y="1491" type="line"/>
      <point x="577" y="1503"/>
      <point x="522" y="1508"/>
      <point x="472" y="1508" type="curve" smooth="yes"/>
      <point x="251" y="1508"/>
      <point x="244" y="1402"/>
    </contour>
  </outline>
</glyph>
<glyph name="g" format="1">
  <advance width="1214"/>
  <unicode hex="0067"/>
  <outline>
    <contour>
      <point x="594" y="1117" type="move" name="top"/>
    </contour>
    <contour>
      <point x="612" y="0" type="move" name="bot"/>
    </contour>
    <contour>
      <point x="133" y="653" type="curve" smooth="yes"/>
      <point x="133" y="502" type="line" smooth="yes"/>
      <point x="133" y="163"/>
      <point x="160" y="27"/>
      <point x="549" y="27" type="curve" smooth="yes"/>
      <point x="708" y="27"/>
      <point x="795" y="67"/>
      <point x="834" y="158" type="curve"/>
      <point x="834" y="-92" type="line" smooth="yes"/>
      <point x="829" y="-183"/>
      <point x="800" y="-239"/>
      <point x="567" y="-239" type="curve" smooth="yes"/>
      <point x="459" y="-239"/>
      <point x="366" y="-227"/>
      <point x="293" y="-207" type="curve"/>
      <point x="276" y="-363" type="line"/>
      <point x="359" y="-392"/>
      <point x="468" y="-407"/>
      <point x="604" y="-407" type="curve" smooth="yes"/>
      <point x="987" y="-407"/>
      <point x="1068" y="-276"/>
      <point x="1068" y="104" type="curve" smooth="yes"/>
      <point x="1069" y="1123" type="line"/>
      <point x="856" y="1123" type="line"/>
      <point x="836" y="1003" type="line"/>
      <point x="785" y="1107"/>
      <point x="679" y="1144"/>
      <point x="509" y="1144" type="curve" smooth="yes"/>
      <point x="180" y="1144"/>
      <point x="133" y="1021"/>
    </contour>
    <contour>
      <point x="615" y="175" type="curve" smooth="yes"/>
      <point x="331" y="175"/>
      <point x="371" y="268"/>
      <point x="368" y="377" type="curve" smooth="yes"/>
      <point x="365" y="475"/>
      <point x="366" y="671"/>
      <point x="366" y="786" type="curve" smooth="yes"/>
      <point x="366" y="974"/>
      <point x="399" y="998"/>
      <point x="597" y="998" type="curve" smooth="yes"/>
      <point x="774" y="998"/>
      <point x="834" y="963"/>
      <point x="834" y="868" type="curve" smooth="yes"/>
      <point x="833" y="252" type="line" smooth="yes"/>
      <point x="833" y="190"/>
      <point x="710" y="175"/>
    </contour>
  </outline>
</glyph>
<glyph name="h" format="1">
  <advance width="1168"/>
  <unicode hex="0068"/>
  <outline>
    <contour>
      <point x="661" y="1291" type="move" name="top"/>
    </contour>
    <contour>
      <point x="585" y="0" type="move" name="bot"/>
    </contour>
    <contour>
      <point x="583" y="546" type="move" name="center"/>
    </contour>
    <contour>
      <point x="290" y="1315" type="move" name="mid"/>
    </contour>
    <contour>
      <point x="160" y="1520" type="line"/>
      <point x="160" y="0" type="line"/>
      <point x="346" y="0" type="line"/>
      <point x="346" y="862" type="line" smooth="yes"/>
      <point x="346" y="939"/>
      <point x="479" y="973"/>
      <point x="582" y="973" type="curve" smooth="yes"/>
      <point x="833" y="973"/>
      <point x="836" y="941"/>
      <point x="836" y="633" type="curve" smooth="yes"/>
      <point x="836" y="0" type="line"/>
      <point x="1022" y="0" type="line"/>
      <point x="1023" y="714" type="line" smooth="yes"/>
      <point x="1023" y="947"/>
      <point x="1000" y="1107"/>
      <point x="644" y="1107" type="curve" smooth="yes"/>
      <point x="494" y="1107"/>
      <point x="394" y="1069"/>
      <point x="346" y="993" type="curve"/>
      <point x="346" y="1520" type="line"/>
    </contour>
  </outline>
</glyph>
<glyph name="i" format="1">
  <advance width="592"/>
  <unicode hex="0069"/>
  <outline>
    <contour>
      <point x="58" y="0" type="move" name="ogonek"/>
    </contour>
    <component base="dotlessi" xOffset="22"/>
    <component base="dotaccent" xOffset="29"/>
  </outline>
</glyph>
<glyph name="k" format="1">
  <advance width="1068"/>
  <unicode hex="006B"/>
  <outline>
    <contour>
      <point x="648" y="1295" type="move" name="top"/>
    </contour>
    <contour>
      <point x="540" y="0" type="move" name="bot"/>
    </contour>
    <contour>
      <point x="534" y="0" type="move" name="bottom"/>
    </contour>
    <contour>
      <point x="160" y="1525" type="line"/>
      <point x="160" y="0" type="line"/>
      <point x="354" y="0" type="line"/>
      <point x="354" y="469" type="line"/>
      <point x="447" y="572" type="line"/>
      <point x="830" y="0" type="line"/>
      <point x="1043" y="0" type="line"/>
      <point x="593" y="658" type="line"/>
      <point x="1007" y="1095" type="line"/>
      <point x="787" y="1095" type="line"/>
      <point x="525" y="811" type="line" smooth="yes"/>
      <point x="467" y="748"/>
      <point x="410" y="684"/>
      <point x="353" y="623" type="curve"/>
      <point x="353" y="673"/>
      <point x="354" y="730"/>
      <point x="354" y="780" type="curve" smooth="yes"/>
      <point x="354" y="1525" type="line"/>
    </contour>
  </outline>
</glyph>
<glyph name="l" format="1">
  <advance width="504"/>
  <unicode hex="006C"/>
  <outline>
    <contour>
      <point x="266" y="1489" type="move" name="top"/>
    </contour>
    <contour>
      <point x="284" y="1095" type="move" name="caron.alt"/>
    </contour>
    <contour>
      <point x="267" y="0" type="move" name="bot"/>
    </contour>
    <contour>
      <point x="267" y="1098" type="move" name="mid"/>
    </contour>
    <contour>
      <point x="266" y="0" type="move" name="bottom"/>
    </contour>
    <contour>
      <point x="170" y="1525" type="line"/>
      <point x="170" y="0" type="line"/>
      <point x="363" y="0" type="line"/>
      <point x="363" y="1525" type="line"/>
    </contour>
  </outline>
</glyph>
<glyph name="m" format="1">
  <advance width="1756"/>
  <unicode hex="006D"/>
  <outline>
    <contour>
      <point x="882" y="1095" type="move" name="top"/>
    </contour>
    <contour>
      <point x="882" y="0" type="move" name="bot"/>
    </contour>
    <contour>
      <point x="937" y="970" type="curve"/>
      <point x="895" y="1082"/>
      <point x="807" y="1115"/>
      <point x="660" y="1115" type="curve" smooth="yes"/>
      <point x="514" y="1115"/>
      <point x="411" y="1088"/>
      <point x="355" y="975" type="curve"/>
      <point x="337" y="1095" type="line"/>
      <point x="160" y="1095" type="line"/>
      <point x="160" y="0" type="line"/>
      <point x="353" y="0" type="line"/>
      <point x="354" y="895" type="line" smooth="yes"/>
      <point x="354" y="969"/>
      <point x="479" y="989"/>
      <point x="567" y="989" type="curve" smooth="yes"/>
      <point x="788" y="989"/>
      <point x="792" y="934"/>
      <point x="792" y="726" type="curve" smooth="yes"/>
      <point x="792" y="0" type="line"/>
      <point x="985" y="0" type="line"/>
      <point x="984" y="782" type="line" smooth="yes"/>
      <point x="984" y="824"/>
      <point x="984" y="860"/>
      <point x="994" y="889" type="curve" smooth="yes"/>
      <point x="1017" y="957"/>
      <point x="1077" y="989"/>
      <point x="1236" y="989" type="curve" smooth="yes"/>
      <point x="1417" y="989"/>
      <point x="1417" y="896"/>
      <point x="1417" y="662" type="curve" smooth="yes"/>
      <point x="1417" y="0" type="line"/>
      <point x="1610" y="0" type="line"/>
      <point x="1610" y="670" type="line" smooth="yes"/>
      <point x="1610" y="1024"/>
      <point x="1555" y="1115"/>
      <point x="1253" y="1115" type="curve" smooth="yes"/>
      <point x="1092" y="1115"/>
      <point x="990" y="1073"/>
    </contour>
  </outline>
</glyph>
<glyph name="n" format="1">
  <advance width="1169"/>
  <unicode hex="006E"/>
  <outline>
    <contour>
      <point x="588" y="1095" type="move" name="top"/>
    </contour>
    <contour>
      <point x="589" y="0" type="move" name="bot"/>
    </contour>
    <contour>
      <point x="355" y="972" type="curve"/>
      <point x="337" y="1095" type="line"/>
      <point x="160" y="1095" type="line"/>
      <point x="160" y="0" type="line"/>
      <point x="353" y="0" type="line"/>
      <point x="353" y="777" type="line" smooth="yes"/>
      <point x="353" y="922"/>
      <point x="402" y="978"/>
      <point x="640" y="978" type="curve" smooth="yes"/>
      <point x="809" y="978"/>
      <point x="830" y="902"/>
      <point x="830" y="719" type="curve" smooth="yes"/>
      <point x="830" y="0" type="line"/>
      <point x="1023" y="0" type="line"/>
      <point x="1023" y="723" type="line" smooth="yes"/>
      <point x="1023" y="966"/>
      <point x="969" y="1115"/>
      <point x="682" y="1115" type="curve" smooth="yes"/>
      <point x="536" y="1115"/>
      <point x="392" y="1089"/>
    </contour>
  </outline>
</glyph>
<glyph name="o" format="1">
  <advance width="1184"/>
  <unicode hex="006F"/>
  <outline>
    <contour>
      <point x="593" y="1091" type="move" name="top"/>
    </contour>
    <contour>
      <point x="669" y="0" type="move" name="ogonek"/>
    </contour>
    <contour>
      <point x="592" y="0" type="move" name="bot"/>
    </contour>
    <contour>
      <point x="136" y="567" type="curve" smooth="yes"/>
      <point x="136" y="567" type="line" smooth="yes"/>
      <point x="136" y="107"/>
      <point x="153" y="-20"/>
      <point x="591" y="-20" type="curve" smooth="yes"/>
      <point x="1031" y="-20"/>
      <point x="1048" y="106"/>
      <point x="1048" y="568" type="curve" smooth="yes"/>
      <point x="1048" y="568" type="line" smooth="yes"/>
      <point x="1048" y="1020"/>
      <point x="1003" y="1107"/>
      <point x="592" y="1107" type="curve" smooth="yes"/>
      <point x="181" y="1107"/>
      <point x="136" y="1019"/>
    </contour>
    <contour>
      <point x="593" y="113" type="curve" smooth="yes"/>
      <point x="411" y="113"/>
      <point x="333" y="132"/>
      <point x="333" y="209" type="curve"/>
      <point x="332" y="873" type="line"/>
      <point x="332" y="972"/>
      <point x="470" y="972"/>
      <point x="592" y="972" type="curve" smooth="yes"/>
      <point x="715" y="972"/>
      <point x="852" y="972"/>
      <point x="852" y="873" type="curve" smooth="yes"/>
      <point x="851" y="209" type="line" smooth="yes"/>
      <point x="851" y="130"/>
      <point x="776" y="113"/>
    </contour>
  </outline>
</glyph>
<glyph name="p" format="1">
  <advance width="1183"/>
  <unicode hex="0070"/>
  <outline>
    <contour>
      <point x="589" y="1091" type="move" name="top"/>
    </contour>
    <contour>
      <point x="589" y="0" type="move" name="bot"/>
    </contour>
    <contour>
      <point x="160" y="-386" type="line"/>
      <point x="345" y="-370" type="line"/>
      <point x="345" y="99" type="line"/>
      <point x="369" y="22"/>
      <point x="472" y="-20"/>
      <point x="646" y="-20" type="curve" smooth="yes"/>
      <point x="1008" y="-20"/>
      <point x="1047" y="142"/>
      <point x="1047" y="550" type="curve" smooth="yes"/>
      <point x="1047" y="575" type="line" smooth="yes"/>
      <point x="1047" y="952"/>
      <point x="1007" y="1107"/>
      <point x="666" y="1107" type="curve" smooth="yes"/>
      <point x="490" y="1107"/>
      <point x="387" y="1066"/>
      <point x="348" y="965" type="curve"/>
      <point x="329" y="1087" type="line"/>
      <point x="160" y="1087" type="line"/>
    </contour>
    <contour>
      <point x="606" y="113" type="curve" smooth="yes"/>
      <point x="382" y="113"/>
      <point x="341" y="175"/>
      <point x="341" y="462" type="curve" smooth="yes"/>
      <point x="341" y="672" type="line" smooth="yes"/>
      <point x="341" y="938"/>
      <point x="345" y="973"/>
      <point x="606" y="973" type="curve" smooth="yes"/>
      <point x="898" y="973"/>
      <point x="864" y="857"/>
      <point x="864" y="711" type="curve" smooth="yes"/>
      <point x="864" y="426" type="line" smooth="yes"/>
      <point x="864" y="149"/>
      <point x="860" y="113"/>
    </contour>
  </outline>
</glyph>
<glyph name="q" format="1">
  <advance width="1236"/>
  <unicode hex="0071"/>
  <outline>
    <contour>
      <point x="158" y="635" type="curve" smooth="yes"/>
      <point x="158" y="518" type="line" smooth="yes"/>
      <point x="158" y="135"/>
      <point x="210" y="-20"/>
      <point x="562" y="-20" type="curve" smooth="yes"/>
      <point x="732" y="-20"/>
      <point x="837" y="24"/>
      <point x="866" y="101" type="curve"/>
      <point x="866" y="-377" type="line"/>
      <point x="1100" y="-390" type="line"/>
      <point x="1100" y="1123" type="line"/>
      <point x="890" y="1123" type="line"/>
      <point x="869" y="1004" type="line"/>
      <point x="827" y="1102"/>
      <point x="718" y="1144"/>
      <point x="545" y="1144" type="curve" smooth="yes"/>
      <point x="211" y="1144"/>
      <point x="158" y="994"/>
    </contour>
    <contour>
      <point x="627" y="128" type="curve" smooth="yes"/>
      <point x="406" y="128"/>
      <point x="392" y="157"/>
      <point x="392" y="387" type="curve" smooth="yes"/>
      <point x="392" y="788" type="line" smooth="yes"/>
      <point x="392" y="900"/>
      <point x="372" y="995"/>
      <point x="627" y="995" type="curve" smooth="yes"/>
      <point x="856" y="995"/>
      <point x="869" y="967"/>
      <point x="869" y="747" type="curve" smooth="yes"/>
      <point x="869" y="417" type="line" smooth="yes"/>
      <point x="869" y="183"/>
      <point x="823" y="128"/>
    </contour>
  </outline>
</glyph>
<glyph name="r" format="1">
  <advance width="725"/>
  <unicode hex="0072"/>
  <outline>
    <contour>
      <point x="361" y="1091" type="move" name="top"/>
    </contour>
    <contour>
      <point x="371" y="0" type="move" name="bot"/>
    </contour>
    <contour>
      <point x="353" y="965" type="curve"/>
      <point x="333" y="1087" type="line"/>
      <point x="164" y="1087" type="line"/>
      <point x="164" y="0" type="line"/>
      <point x="349" y="0" type="line"/>
      <point x="349" y="457" type="line" smooth="yes"/>
      <point x="349" y="531"/>
      <point x="342" y="611"/>
      <point x="342" y="695" type="curve" smooth="yes"/>
      <point x="342" y="916"/>
      <point x="443" y="942"/>
      <point x="633" y="942" type="curve"/>
      <point x="642" y="1098" type="line"/>
      <point x="512" y="1098"/>
      <point x="401" y="1077"/>
    </contour>
  </outline>
</glyph>
<glyph name="s" format="1">
  <advance width="1041"/>
  <unicode hex="0073"/>
  <outline>
    <contour>
      <point x="491" y="1095" type="move" name="top"/>
    </contour>
    <contour>
      <point x="506" y="0" type="move" name="bot"/>
    </contour>
    <contour>
      <point x="564" y="-20" type="curve" smooth="yes"/>
      <point x="835" y="-20"/>
      <point x="946" y="44"/>
      <point x="946" y="298" type="curve" smooth="yes"/>
      <point x="946" y="568"/>
      <point x="911" y="617"/>
      <point x="578" y="652" type="curve" smooth="yes"/>
      <point x="493" y="660" type="line" smooth="yes"/>
      <point x="306" y="679"/>
      <point x="300" y="690"/>
      <point x="300" y="822" type="curve" smooth="yes"/>
      <point x="300" y="883"/>
      <point x="303" y="921"/>
      <point x="331" y="945" type="curve" smooth="yes"/>
      <point x="360" y="970"/>
      <point x="415" y="979"/>
      <point x="521" y="979" type="curve" smooth="yes"/>
      <point x="630" y="979"/>
      <point x="689" y="977"/>
      <point x="722" y="956" type="curve" smooth="yes"/>
      <point x="756" y="936"/>
      <point x="765" y="899"/>
      <point x="771" y="827" type="curve"/>
      <point x="901" y="868" type="line"/>
      <point x="901" y="1101"/>
      <point x="755" y="1115"/>
      <point x="528" y="1115" type="curve" smooth="yes"/>
      <point x="240" y="1115"/>
      <point x="124" y="1063"/>
      <point x="124" y="826" type="curve" smooth="yes"/>
      <point x="124" y="555"/>
      <point x="207" y="533"/>
      <point x="499" y="505" type="curve" smooth="yes"/>
      <point x="588" y="496" type="line" smooth="yes"/>
      <point x="742" y="481"/>
      <point x="770" y="467"/>
      <point x="770" y="314" type="curve" smooth="yes"/>
      <point x="770" y="252"/>
      <point x="769" y="203"/>
      <point x="741" y="169" type="curve" smooth="yes"/>
      <point x="713" y="135"/>
      <point x="658" y="116"/>
      <point x="550" y="116" type="curve" smooth="yes"/>
      <point x="418" y="116"/>
      <point x="352" y="118"/>
      <point x="318" y="145" type="curve" smooth="yes"/>
      <point x="282" y="171"/>
      <point x="279" y="222"/>
      <point x="271" y="321" type="curve"/>
      <point x="120" y="281" type="line"/>
      <point x="120" y="-10"/>
      <point x="288" y="-20"/>
    </contour>
  </outline>
</glyph>
<glyph name="t" format="1">
  <advance width="818"/>
  <unicode hex="0074"/>
  <outline>
    <contour>
      <point x="369" y="1246" type="move" name="top"/>
    </contour>
    <contour>
      <point x="325" y="1257" type="move" name="caron.alt"/>
    </contour>
    <contour>
      <point x="462" y="0" type="move" name="bot"/>
    </contour>
    <contour>
      <point x="394" y="670" type="move" name="mid"/>
    </contour>
    <contour>
      <point x="268" y="1444" type="line"/>
      <point x="268" y="1095" type="line"/>
      <point x="99" y="1095" type="line"/>
      <point x="99" y="984" type="line"/>
      <point x="268" y="984" type="line"/>
      <point x="268" y="237" type="line" smooth="yes"/>
      <point x="268" y="42"/>
      <point x="367" y="-12"/>
      <point x="518" y="-15" type="curve" smooth="yes"/>
      <point x="579" y="-16"/>
      <point x="646" y="-10"/>
      <point x="722" y="-1" type="curve"/>
      <point x="726" y="138" type="line"/>
      <point x="523" y="114"/>
      <point x="461" y="128"/>
      <point x="461" y="234" type="curve" smooth="yes"/>
      <point x="461" y="984" type="line"/>
      <point x="683" y="984" type="line"/>
      <point x="683" y="1095" type="line"/>
      <point x="461" y="1095" type="line"/>
      <point x="461" y="1444" type="line"/>
    </contour>
  </outline>
</glyph>
<glyph name="u" format="1">
  <advance width="1162"/>
  <unicode hex="0075"/>
  <outline>
    <contour>
      <point x="573" y="1091" type="move" name="top"/>
    </contour>
    <contour>
      <point x="903" y="0" type="move" name="ogonek"/>
    </contour>
    <contour>
      <point x="815" y="1087" type="line"/>
      <point x="815" y="392" type="line" smooth="yes"/>
      <point x="815" y="237"/>
      <point x="849" y="113"/>
      <point x="570" y="113" type="curve" smooth="yes"/>
      <point x="305" y="113"/>
      <point x="332" y="174"/>
      <point x="332" y="468" type="curve" smooth="yes"/>
      <point x="332" y="1087" type="line"/>
      <point x="146" y="1087" type="line"/>
      <point x="146" y="454" type="line" smooth="yes"/>
      <point x="146" y="108"/>
      <point x="202" y="-20"/>
      <point x="487" y="-20" type="curve" smooth="yes"/>
      <point x="645" y="-20"/>
      <point x="777" y="29"/>
      <point x="813" y="141" type="curve"/>
      <point x="831" y="-1" type="line"/>
      <point x="1003" y="-1" type="line"/>
      <point x="1003" y="1087" type="line"/>
    </contour>
  </outline>
</glyph>
<glyph name="v" format="1">
  <advance width="1032"/>
  <unicode hex="0076"/>
  <outline>
    <contour>
      <point x="789" y="1095" type="line"/>
      <point x="513" y="170" type="line"/>
      <point x="512" y="170" type="line"/>
      <point x="222" y="1095" type="line"/>
      <point x="41" y="1095" type="line"/>
      <point x="407" y="0" type="line"/>
      <point x="616" y="0" type="line"/>
      <point x="989" y="1095" type="line"/>
    </contour>
  </outline>
</glyph>
<glyph name="w" format="1">
  <advance width="1590"/>
  <unicode hex="0077"/>
  <outline>
    <contour>
      <point x="798" y="1095" type="move" name="top"/>
    </contour>
    <contour>
      <point x="807" y="0" type="move" name="bot"/>
    </contour>
    <contour>
      <point x="374" y="0" type="line"/>
      <point x="572" y="0" type="line"/>
      <point x="801" y="858" type="line"/>
      <point x="802" y="858" type="line"/>
      <point x="1040" y="0" type="line"/>
      <point x="1217" y="0" type="line"/>
      <point x="1504" y="1095" type="line"/>
      <point x="1324" y="1095" type="line"/>
      <point x="1122" y="213" type="line"/>
      <point x="1120" y="213" type="line"/>
      <point x="884" y="1095" type="line"/>
      <point x="711" y="1095" type="line"/>
      <point x="480" y="213" type="line"/>
      <point x="480" y="213" type="line"/>
      <point x="262" y="1095" type="line"/>
      <point x="86" y="1095" type="line"/>
    </contour>
  </outline>
</glyph>
<glyph name="x" format="1">
  <advance width="1028"/>
  <unicode hex="0078"/>
  <outline>
    <contour>
      <point x="63" y="0" type="line"/>
      <point x="245" y="0" type="line"/>
      <point x="537" y="463" type="line"/>
      <point x="608" y="541" type="line"/>
      <point x="955" y="1095" type="line"/>
      <point x="774" y="1095" type="line"/>
      <point x="500" y="663" type="line"/>
      <point x="431" y="596" type="line"/>
    </contour>
    <contour>
      <point x="760" y="0" type="line"/>
      <point x="964" y="0" type="line"/>
      <point x="273" y="1095" type="line"/>
      <point x="71" y="1095" type="line"/>
    </contour>
  </outline>
</glyph>
<glyph name="y" format="1">
  <advance width="1021"/>
  <unicode hex="0079"/>
  <outline>
    <contour>
      <point x="524" y="1095" type="move" name="top"/>
    </contour>
    <contour>
      <point x="516" y="0" type="move" name="bot"/>
    </contour>
    <contour>
      <point x="804" y="1095" type="line"/>
      <point x="542" y="215" type="line"/>
      <point x="541" y="215" type="line"/>
      <point x="233" y="1095" type="line"/>
      <point x="42" y="1095" type="line"/>
      <point x="462" y="8" type="line"/>
      <point x="441" y="-82"/>
      <point x="429" y="-140"/>
      <point x="404" y="-177" type="curve" smooth="yes"/>
      <point x="378" y="-214"/>
      <point x="341" y="-227"/>
      <point x="271" y="-227" type="curve" smooth="yes"/>
      <point x="239" y="-227"/>
      <point x="200" y="-225"/>
      <point x="152" y="-220" type="curve"/>
      <point x="138" y="-349" type="line"/>
      <point x="205" y="-355"/>
      <point x="259" y="-358"/>
      <point x="306" y="-358" type="curve" smooth="yes"/>
      <point x="481" y="-358"/>
      <point x="545" y="-301"/>
      <point x="627" y="-41" type="curve" smooth="yes"/>
      <point x="990" y="1095" type="line"/>
    </contour>
  </outline>
</glyph>
<glyph name="z" format="1">
  <advance width="909"/>
  <unicode hex="007A"/>
  <outline>
    <contour>
      <point x="392" y="1095" type="move" name="top"/>
    </contour>
    <contour>
      <point x="443" y="0" type="move" name="bot"/>
    </contour>
    <contour>
      <point x="145" y="1095" type="line"/>
      <point x="154" y="959" type="line"/>
      <point x="622" y="959" type="line"/>
      <point x="118" y="140" type="line"/>
      <point x="135" y="0" type="line"/>
      <point x="812" y="0" type="line"/>
      <point x="821" y="134" type="line"/>
      <point x="313" y="134" type="line"/>
      <point x="815" y="959" type="line"/>
      <point x="806" y="1095" type="line"/>
    </contour>
  </outline>
</glyph>
<glyph name="braceleft" format="1">
  <advance width="847"/>
  <unicode hex="007B"/>
  <outline>
    <contour>
      <point x="782" y="-210" type="curve"/>
      <point x="782" y="-87" type="line"/>
      <point x="534" y="-87"/>
      <point x="529" y="-40"/>
      <point x="529" y="287" type="curve" smooth="yes"/>
      <point x="529" y="538"/>
      <point x="500" y="681"/>
      <point x="335" y="712" type="curve"/>
      <point x="500" y="744"/>
      <point x="529" y="887"/>
      <point x="529" y="1139" type="curve" smooth="yes"/>
      <point x="529" y="1465"/>
      <point x="534" y="1513"/>
      <point x="782" y="1513" type="curve"/>
      <point x="782" y="1635" type="line"/>
      <point x="411" y="1635"/>
      <point x="347" y="1541"/>
      <point x="343" y="1140" type="curve" smooth="yes"/>
      <point x="340" y="829"/>
      <point x="271" y="801"/>
      <point x="83" y="801" type="curve"/>
      <point x="83" y="625" type="line"/>
      <point x="271" y="625"/>
      <point x="340" y="596"/>
      <point x="343" y="285" type="curve" smooth="yes"/>
      <point x="347" y="-116"/>
      <point x="411" y="-210"/>
    </contour>
  </outline>
</glyph>
<glyph name="bar" format="1">
  <advance width="490"/>
  <unicode hex="007C"/>
  <outline>
    <contour>
      <point x="160" y="1636" type="line"/>
      <point x="160" y="-177" type="line"/>
      <point x="331" y="-177" type="line"/>
      <point x="331" y="1636" type="line"/>
    </contour>
  </outline>
</glyph>
<glyph name="braceright" format="1">
  <advance width="847"/>
  <unicode hex="007D"/>
  <outline>
    <contour>
      <point x="83" y="-210" type="line"/>
      <point x="455" y="-210"/>
      <point x="518" y="-116"/>
      <point x="522" y="285" type="curve" smooth="yes"/>
      <point x="525" y="596"/>
      <point x="594" y="625"/>
      <point x="782" y="625" type="curve"/>
      <point x="782" y="801" type="line"/>
      <point x="594" y="801"/>
      <point x="525" y="829"/>
      <point x="522" y="1140" type="curve" smooth="yes"/>
      <point x="518" y="1541"/>
      <point x="455" y="1635"/>
      <point x="83" y="1635" type="curve"/>
      <point x="83" y="1513" type="line"/>
      <point x="331" y="1513"/>
      <point x="336" y="1465"/>
      <point x="336" y="1139" type="curve" smooth="yes"/>
      <point x="336" y="887"/>
      <point x="365" y="744"/>
      <point x="530" y="712" type="curve"/>
      <point x="365" y="681"/>
      <point x="336" y="538"/>
      <point x="336" y="287" type="curve" smooth="yes"/>
      <point x="336" y="-40"/>
      <point x="331" y="-87"/>
      <point x="83" y="-87" type="curve"/>
    </contour>
  </outline>
</glyph>
<glyph name="asciitilde" format="1">
  <advance width="1089"/>
  <unicode hex="007E"/>
  <outline>
    <contour>
      <point x="791" y="612" type="curve" smooth="yes"/>
      <point x="934" y="605"/>
      <point x="988" y="714"/>
      <point x="1017" y="886" type="curve"/>
      <point x="944" y="923" type="line"/>
      <point x="898" y="819"/>
      <point x="880" y="774"/>
      <point x="769" y="793" type="curve" smooth="yes"/>
      <point x="652" y="813"/>
      <point x="473" y="974"/>
      <point x="301" y="951" type="curve" smooth="yes"/>
      <point x="208" y="939"/>
      <point x="110" y="856"/>
      <point x="82" y="705" type="curve"/>
      <point x="151" y="663" type="line"/>
      <point x="181" y="756"/>
      <point x="220" y="792"/>
      <point x="303" y="786" type="curve" smooth="yes"/>
      <point x="438" y="776"/>
      <point x="634" y="620"/>
    </contour>
  </outline>
</glyph>
<glyph name="cent" format="1">
  <advance width="1354"/>
  <unicode hex="00A2"/>
  <outline>
    <contour>
      <point x="669" y="1771" type="line"/>
      <point x="669" y="1435" type="line"/>
      <point x="777" y="1435" type="line"/>
      <point x="777" y="1771" type="line"/>
    </contour>
    <contour>
      <point x="671" y="42" type="line"/>
      <point x="671" y="-264" type="line"/>
      <point x="779" y="-264" type="line"/>
      <point x="779" y="42" type="line"/>
    </contour>
    <component base="C"/>
  </outline>
</glyph>
<glyph name="sterling" format="1">
  <advance width="1519"/>
  <unicode hex="00A3"/>
  <outline>
    <contour>
      <point x="165" y="0" type="line"/>
      <point x="176" y="0"/>
      <point x="209" y="0"/>
      <point x="220" y="1" type="curve" smooth="yes"/>
      <point x="345" y="8"/>
      <point x="417" y="51"/>
      <point x="441" y="138" type="curve"/>
      <point x="473" y="15"/>
      <point x="646" y="0"/>
      <point x="885" y="0" type="curve" smooth="yes"/>
      <point x="1194" y="0"/>
      <point x="1332" y="37"/>
      <point x="1340" y="218" type="curve" smooth="yes"/>
      <point x="1352" y="453" type="line"/>
      <point x="1149" y="468" type="line"/>
      <point x="1140" y="242" type="line" smooth="yes"/>
      <point x="1138" y="182"/>
      <point x="1022" y="175"/>
      <point x="882" y="175" type="curve" smooth="yes"/>
      <point x="625" y="175"/>
      <point x="536" y="195"/>
      <point x="536" y="250" type="curve" smooth="yes"/>
      <point x="536" y="703" type="line"/>
      <point x="1026" y="703" type="line"/>
      <point x="1026" y="853" type="line"/>
      <point x="536" y="853" type="line"/>
      <point x="536" y="1243" type="line" smooth="yes"/>
      <point x="536" y="1365"/>
      <point x="561" y="1391"/>
      <point x="835" y="1391" type="curve" smooth="yes"/>
      <point x="1041" y="1391"/>
      <point x="1093" y="1387"/>
      <point x="1093" y="1299" type="curve" smooth="yes"/>
      <point x="1092" y="1066" type="line"/>
      <point x="1313" y="1076" type="line"/>
      <point x="1312" y="1324" type="line" smooth="yes"/>
      <point x="1311" y="1490"/>
      <point x="1194" y="1554"/>
      <point x="859" y="1554" type="curve" smooth="yes"/>
      <point x="484" y="1554"/>
      <point x="319" y="1517"/>
      <point x="319" y="1192" type="curve" smooth="yes"/>
      <point x="319" y="854" type="line"/>
      <point x="167" y="854" type="line"/>
      <point x="167" y="704" type="line"/>
      <point x="319" y="704" type="line"/>
      <point x="319" y="302" type="line" smooth="yes"/>
      <point x="319" y="208"/>
      <point x="291" y="175"/>
      <point x="165" y="174" type="curve"/>
    </contour>
  </outline>
</glyph>
<glyph name="currency" format="1">
  <advance width="1174"/>
  <unicode hex="00A4"/>
  <outline>
    <contour>
      <point x="962" y="218" type="line"/>
      <point x="1026" y="287" type="line"/>
      <point x="887" y="458" type="line"/>
      <point x="966" y="534"/>
      <point x="1006" y="636"/>
      <point x="1006" y="765" type="curve" smooth="yes"/>
      <point x="1006" y="893"/>
      <point x="966" y="995"/>
      <point x="886" y="1069" type="curve"/>
      <point x="1025" y="1239" type="line"/>
      <point x="961" y="1309" type="line"/>
      <point x="809" y="1131" type="line"/>
      <point x="750" y="1168"/>
      <point x="676" y="1187"/>
      <point x="586" y="1187" type="curve" smooth="yes"/>
      <point x="496" y="1187"/>
      <point x="421" y="1167"/>
      <point x="363" y="1128" type="curve"/>
      <point x="212" y="1310" type="line"/>
      <point x="149" y="1240" type="line"/>
      <point x="288" y="1068" type="line"/>
      <point x="210" y="995"/>
      <point x="171" y="893"/>
      <point x="171" y="764" type="curve" smooth="yes"/>
      <point x="171" y="633"/>
      <point x="210" y="531"/>
      <point x="288" y="458" type="curve"/>
      <point x="148" y="287" type="line"/>
      <point x="211" y="218" type="line"/>
      <point x="361" y="398" type="line"/>
      <point x="420" y="366"/>
      <point x="496" y="349"/>
      <point x="588" y="350" type="curve" smooth="yes"/>
      <point x="677" y="350"/>
      <point x="751" y="366"/>
      <point x="812" y="398" type="curve"/>
    </contour>
    <contour>
      <point x="588" y="446" type="curve" smooth="yes"/>
      <point x="371" y="446"/>
      <point x="276" y="547"/>
      <point x="272" y="759" type="curve" smooth="yes"/>
      <point x="272" y="764"/>
      <point x="272" y="765"/>
      <point x="272" y="770" type="curve" smooth="yes"/>
      <point x="272" y="989"/>
      <point x="377" y="1098"/>
      <point x="588" y="1098" type="curve" smooth="yes"/>
      <point x="813" y="1098"/>
      <point x="904" y="988"/>
      <point x="904" y="769" type="curve" smooth="yes"/>
      <point x="904" y="764"/>
      <point x="904" y="764"/>
      <point x="904" y="759" type="curve" smooth="yes"/>
      <point x="899" y="550"/>
      <point x="794" y="446"/>
    </contour>
  </outline>
</glyph>
<glyph name="yen" format="1">
  <advance width="1352"/>
  <unicode hex="00A5"/>
  <outline>
    <contour>
      <point x="549" y="0" type="line"/>
      <point x="792" y="0" type="line"/>
      <point x="792" y="266" type="line"/>
      <point x="1075" y="266" type="line"/>
      <point x="1075" y="359" type="line"/>
      <point x="792" y="359" type="line"/>
      <point x="797" y="527" type="line"/>
      <point x="1118" y="527" type="line"/>
      <point x="1118" y="644" type="line"/>
      <point x="849" y="644" type="line"/>
      <point x="1242" y="1504" type="line"/>
      <point x="994" y="1504" type="line"/>
      <point x="678" y="738" type="line"/>
      <point x="366" y="1504" type="line"/>
      <point x="111" y="1504" type="line"/>
      <point x="493" y="644" type="line"/>
      <point x="234" y="644" type="line"/>
      <point x="234" y="527" type="line"/>
      <point x="545" y="527" type="line"/>
      <point x="549" y="359" type="line"/>
      <point x="276" y="359" type="line"/>
      <point x="276" y="266" type="line"/>
      <point x="549" y="266" type="line"/>
    </contour>
  </outline>
</glyph>
<glyph name="brokenbar" format="1">
  <advance width="502"/>
  <unicode hex="00A6"/>
  <outline>
    <contour>
      <point x="169" y="1637" type="line"/>
      <point x="169" y="826" type="line"/>
      <point x="352" y="826" type="line"/>
      <point x="352" y="1637" type="line"/>
    </contour>
    <contour>
      <point x="169" y="569" type="line"/>
      <point x="169" y="-242" type="line"/>
      <point x="352" y="-242" type="line"/>
      <point x="352" y="569" type="line"/>
    </contour>
  </outline>
</glyph>
<glyph name="section" format="1">
  <advance width="1151"/>
  <unicode hex="00A7"/>
  <outline>
    <contour>
      <point x="572" y="-210" type="curve" smooth="yes"/>
      <point x="857" y="-210"/>
      <point x="987" y="-153"/>
      <point x="987" y="138" type="curve" smooth="yes"/>
      <point x="987" y="281"/>
      <point x="946" y="376"/>
      <point x="879" y="431" type="curve"/>
      <point x="950" y="475"/>
      <point x="991" y="559"/>
      <point x="991" y="678" type="curve" smooth="yes"/>
      <point x="991" y="910"/>
      <point x="874" y="951"/>
      <point x="665" y="984" type="curve" smooth="yes"/>
      <point x="366" y="1033"/>
      <point x="390" y="1034"/>
      <point x="388" y="1190" type="curve" smooth="yes"/>
      <point x="388" y="1277"/>
      <point x="400" y="1354"/>
      <point x="430" y="1377" type="curve" smooth="yes"/>
      <point x="460" y="1400"/>
      <point x="512" y="1401"/>
      <point x="583" y="1401" type="curve" smooth="yes"/>
      <point x="667" y="1401"/>
      <point x="721" y="1394"/>
      <point x="749" y="1367" type="curve" smooth="yes"/>
      <point x="778" y="1340"/>
      <point x="786" y="1268"/>
      <point x="786" y="1185" type="curve"/>
      <point x="995" y="1185" type="line"/>
      <point x="995" y="1246"/>
      <point x="990" y="1297"/>
      <point x="979" y="1340" type="curve" smooth="yes"/>
      <point x="943" y="1510"/>
      <point x="810" y="1550"/>
      <point x="586" y="1550" type="curve" smooth="yes"/>
      <point x="297" y="1550"/>
      <point x="176" y="1488"/>
      <point x="176" y="1205" type="curve" smooth="yes"/>
      <point x="176" y="1067"/>
      <point x="212" y="972"/>
      <point x="278" y="916" type="curve"/>
      <point x="220" y="872"/>
      <point x="173" y="793"/>
      <point x="173" y="681" type="curve" smooth="yes"/>
      <point x="173" y="408"/>
      <point x="277" y="366"/>
      <point x="621" y="331" type="curve" smooth="yes"/>
      <point x="719" y="319"/>
      <point x="775" y="268"/>
      <point x="775" y="152" type="curve" smooth="yes"/>
      <point x="775" y="74"/>
      <point x="768" y="-4"/>
      <point x="743" y="-30" type="curve" smooth="yes"/>
      <point x="718" y="-55"/>
      <point x="670" y="-62"/>
      <point x="595" y="-62" type="curve" smooth="yes"/>
      <point x="506" y="-62"/>
      <point x="448" y="-60"/>
      <point x="415" y="-36" type="curve" smooth="yes"/>
      <point x="381" y="-11"/>
      <point x="370" y="62"/>
      <point x="370" y="155" type="curve"/>
      <point x="161" y="155" type="line"/>
      <point x="161" y="103"/>
      <point x="164" y="59"/>
      <point x="171" y="21" type="curve" smooth="yes"/>
      <point x="204" y="-170"/>
      <point x="340" y="-210"/>
    </contour>
    <contour>
      <point x="746" y="486" type="curve"/>
      <point x="650" y="501"/>
      <point x="576" y="509"/>
      <point x="525" y="518" type="curve" smooth="yes"/>
      <point x="408" y="538"/>
      <point x="389" y="563"/>
      <point x="389" y="688" type="curve" smooth="yes"/>
      <point x="389" y="731"/>
      <point x="397" y="807"/>
      <point x="411" y="860" type="curve"/>
      <point x="438" y="852"/>
      <point x="542" y="843"/>
      <point x="689" y="800" type="curve" smooth="yes"/>
      <point x="749" y="781"/>
      <point x="774" y="751"/>
      <point x="774" y="639" type="curve" smooth="yes"/>
      <point x="774" y="574"/>
      <point x="765" y="500"/>
    </contour>
  </outline>
</glyph>
<glyph name="dieresis" format="1">
  <advance width="1030"/>
  <unicode hex="00A8"/>
  <outline>
    <contour>
      <point x="520" y="1117" type="move" name="_top"/>
    </contour>
    <contour>
      <point x="634" y="1402" type="curve" smooth="yes"/>
      <point x="634" y="1317"/>
      <point x="687" y="1277"/>
      <point x="760" y="1277" type="curve" smooth="yes"/>
      <point x="834" y="1277"/>
      <point x="885" y="1317"/>
      <point x="885" y="1402" type="curve" smooth="yes"/>
      <point x="885" y="1485"/>
      <point x="834" y="1525"/>
      <point x="760" y="1525" type="curve" smooth="yes"/>
      <point x="688" y="1525"/>
      <point x="634" y="1484"/>
    </contour>
    <contour>
      <point x="159" y="1402" type="curve" smooth="yes"/>
      <point x="159" y="1317"/>
      <point x="212" y="1277"/>
      <point x="285" y="1277" type="curve" smooth="yes"/>
      <point x="359" y="1277"/>
      <point x="411" y="1317"/>
      <point x="411" y="1402" type="curve" smooth="yes"/>
      <point x="411" y="1485"/>
      <point x="359" y="1525"/>
      <point x="285" y="1525" type="curve" smooth="yes"/>
      <point x="214" y="1525"/>
      <point x="159" y="1484"/>
    </contour>
  </outline>
</glyph>
<glyph name="copyright" format="1">
  <advance width="1816"/>
  <unicode hex="00A9"/>
  <outline>
    <contour>
      <point x="892" y="224" type="curve" smooth="yes"/>
      <point x="1246" y="224"/>
      <point x="1295" y="271"/>
      <point x="1295" y="554" type="curve" smooth="yes"/>
      <point x="1295" y="639" type="line"/>
      <point x="1174" y="639" type="line"/>
      <point x="1173" y="534" type="line" smooth="yes"/>
      <point x="1171" y="350"/>
      <point x="1154" y="336"/>
      <point x="919" y="336" type="curve" smooth="yes"/>
      <point x="675" y="336"/>
      <point x="645" y="367"/>
      <point x="645" y="519" type="curve" smooth="yes"/>
      <point x="644" y="1046" type="line" smooth="yes"/>
      <point x="644" y="1196"/>
      <point x="657" y="1212"/>
      <point x="919" y="1212" type="curve" smooth="yes"/>
      <point x="1160" y="1212"/>
      <point x="1171" y="1193"/>
      <point x="1173" y="1000" type="curve" smooth="yes"/>
      <point x="1174" y="909" type="line"/>
      <point x="1295" y="909" type="line"/>
      <point x="1293" y="996" type="line" smooth="yes"/>
      <point x="1287" y="1288"/>
      <point x="1206" y="1324"/>
      <point x="892" y="1324" type="curve" smooth="yes"/>
      <point x="551" y="1324"/>
      <point x="508" y="1250"/>
      <point x="508" y="895" type="curve" smooth="yes"/>
      <point x="508" y="706" type="line" smooth="yes"/>
      <point x="508" y="290"/>
      <point x="568" y="224"/>
    </contour>
    <contour>
      <point x="900" y="5" type="curve" smooth="yes"/>
      <point x="535" y="5"/>
      <point x="201" y="134"/>
      <point x="201" y="611" type="curve" smooth="yes"/>
      <point x="201" y="888" type="line" smooth="yes"/>
      <point x="201" y="1405"/>
      <point x="538" y="1519"/>
      <point x="910" y="1519" type="curve" smooth="yes"/>
      <point x="1284" y="1519"/>
      <point x="1621" y="1402"/>
      <point x="1621" y="886" type="curve" smooth="yes"/>
      <point x="1621" y="613" type="line" smooth="yes"/>
      <point x="1621" y="122"/>
      <point x="1295" y="5"/>
    </contour>
    <contour>
      <point x="923" y="-96" type="curve" smooth="yes"/>
      <point x="1357" y="-96"/>
      <point x="1745" y="64"/>
      <point x="1745" y="610" type="curve" smooth="yes"/>
      <point x="1745" y="889" type="line" smooth="yes"/>
      <point x="1745" y="1463"/>
      <point x="1354" y="1622"/>
      <point x="912" y="1622" type="curve" smooth="yes"/>
      <point x="474" y="1622"/>
      <point x="78" y="1467"/>
      <point x="78" y="891" type="curve" smooth="yes"/>
      <point x="78" y="610" type="line" smooth="yes"/>
      <point x="78" y="66"/>
      <point x="473" y="-96"/>
    </contour>
  </outline>
</glyph>
<glyph name="ordfeminine" format="1">
  <advance width="978"/>
  <unicode hex="00AA"/>
  <outline>
    <contour>
      <point x="408" y="587" type="curve" smooth="yes"/>
      <point x="555" y="587"/>
      <point x="645" y="606"/>
      <point x="680" y="727" type="curve"/>
      <point x="705" y="599" type="line"/>
      <point x="829" y="599" type="line"/>
      <point x="829" y="1191" type="line" smooth="yes"/>
      <point x="829" y="1443"/>
      <point x="750" y="1509"/>
      <point x="505" y="1509" type="curve" smooth="yes"/>
      <point x="310" y="1509"/>
      <point x="191" y="1488"/>
      <point x="191" y="1294" type="curve" smooth="yes"/>
      <point x="191" y="1285"/>
      <point x="191" y="1277"/>
      <point x="192" y="1267" type="curve"/>
      <point x="311" y="1263" type="line"/>
      <point x="310" y="1277"/>
      <point x="310" y="1288"/>
      <point x="310" y="1299" type="curve" smooth="yes"/>
      <point x="310" y="1370"/>
      <point x="331" y="1398"/>
      <point x="495" y="1398" type="curve" smooth="yes"/>
      <point x="667" y="1398"/>
      <point x="672" y="1375"/>
      <point x="672" y="1287" type="curve" smooth="yes"/>
      <point x="672" y="1086" type="line"/>
      <point x="650" y="1086"/>
      <point x="627" y="1087"/>
      <point x="603" y="1087" type="curve" smooth="yes"/>
      <point x="326" y="1087"/>
      <point x="139" y="1043"/>
      <point x="139" y="886" type="curve" smooth="yes"/>
      <point x="139" y="669"/>
      <point x="192" y="587"/>
    </contour>
    <contour>
      <point x="429" y="697" type="curve" smooth="yes"/>
      <point x="283" y="697"/>
      <point x="283" y="722"/>
      <point x="283" y="878" type="curve" smooth="yes"/>
      <point x="283" y="958"/>
      <point x="342" y="984"/>
      <point x="672" y="988" type="curve"/>
      <point x="672" y="895" type="line" smooth="yes"/>
      <point x="668" y="783"/>
      <point x="647" y="697"/>
    </contour>
  </outline>
</glyph>
<glyph name="guillemotleft" format="1">
  <advance width="1711"/>
  <unicode hex="00AB"/>
  <outline>
    <contour>
      <point x="716" y="255" type="curve" smooth="yes"/>
      <point x="754" y="255"/>
      <point x="781" y="287"/>
      <point x="781" y="322" type="curve" smooth="yes"/>
      <point x="781" y="340"/>
      <point x="773" y="360"/>
      <point x="756" y="377" type="curve"/>
      <point x="340" y="781" type="line"/>
      <point x="756" y="1186" type="line"/>
      <point x="773" y="1208"/>
      <point x="781" y="1228"/>
      <point x="781" y="1240" type="curve" smooth="yes"/>
      <point x="781" y="1281"/>
      <point x="754" y="1313"/>
      <point x="716" y="1307" type="curve" smooth="yes"/>
      <point x="700" y="1313"/>
      <point x="684" y="1303"/>
      <point x="664" y="1287" type="curve" smooth="yes"/>
      <point x="163" y="896" type="line" smooth="yes"/>
      <point x="116" y="860"/>
      <point x="93" y="825"/>
      <point x="93" y="781" type="curve"/>
      <point x="93" y="743"/>
      <point x="114" y="704"/>
      <point x="163" y="667" type="curve" smooth="yes"/>
      <point x="664" y="275" type="line" smooth="yes"/>
      <point x="682" y="261"/>
      <point x="700" y="255"/>
    </contour>
    <contour>
      <point x="1271" y="255" type="curve" smooth="yes"/>
      <point x="1308" y="255"/>
      <point x="1336" y="287"/>
      <point x="1336" y="322" type="curve" smooth="yes"/>
      <point x="1336" y="340"/>
      <point x="1328" y="360"/>
      <point x="1311" y="377" type="curve"/>
      <point x="895" y="781" type="line"/>
      <point x="1311" y="1186" type="line"/>
      <point x="1328" y="1208"/>
      <point x="1336" y="1228"/>
      <point x="1336" y="1240" type="curve" smooth="yes"/>
      <point x="1336" y="1281"/>
      <point x="1308" y="1313"/>
      <point x="1271" y="1307" type="curve" smooth="yes"/>
      <point x="1255" y="1313"/>
      <point x="1239" y="1303"/>
      <point x="1219" y="1287" type="curve" smooth="yes"/>
      <point x="718" y="896" type="line" smooth="yes"/>
      <point x="671" y="860"/>
      <point x="647" y="825"/>
      <point x="647" y="781" type="curve"/>
      <point x="647" y="743"/>
      <point x="669" y="704"/>
      <point x="718" y="667" type="curve" smooth="yes"/>
      <point x="1219" y="275" type="line" smooth="yes"/>
      <point x="1237" y="261"/>
      <point x="1255" y="255"/>
    </contour>
  </outline>
</glyph>
<glyph name="logicalnot" format="1">
  <advance width="1190"/>
  <unicode hex="00AC"/>
  <outline>
    <contour>
      <point x="900" y="262" type="line"/>
      <point x="1049" y="262" type="line"/>
      <point x="1049" y="794" type="line"/>
      <point x="126" y="794" type="line"/>
      <point x="126" y="646" type="line"/>
      <point x="900" y="646" type="line"/>
    </contour>
  </outline>
</glyph>
<glyph name="uni00AD" format="1">
  <advance width="1047"/>
  <unicode hex="00AD"/>
  <outline>
    <contour>
      <point x="133" y="549" type="line"/>
      <point x="919" y="549" type="line"/>
      <point x="919" y="726" type="line"/>
      <point x="133" y="726" type="line"/>
    </contour>
  </outline>
</glyph>
<glyph name="registered" format="1">
  <advance width="1823"/>
  <unicode hex="00AE"/>
  <outline>
    <contour>
      <point x="587" y="267" type="line"/>
      <point x="712" y="267" type="line"/>
      <point x="711" y="734" type="line"/>
      <point x="947" y="734" type="line" smooth="yes"/>
      <point x="1103" y="734"/>
      <point x="1139" y="693"/>
      <point x="1137" y="516" type="curve" smooth="yes"/>
      <point x="1137" y="268" type="line"/>
      <point x="1263" y="268" type="line"/>
      <point x="1263" y="609" type="line" smooth="yes"/>
      <point x="1263" y="717"/>
      <point x="1216" y="774"/>
      <point x="1103" y="784" type="curve"/>
      <point x="1103" y="787" type="line"/>
      <point x="1215" y="806"/>
      <point x="1271" y="874"/>
      <point x="1271" y="1021" type="curve" smooth="yes"/>
      <point x="1271" y="1035" type="line" smooth="yes"/>
      <point x="1271" y="1248"/>
      <point x="1178" y="1287"/>
      <point x="909" y="1287" type="curve" smooth="yes"/>
      <point x="587" y="1287" type="line"/>
    </contour>
    <contour>
      <point x="904" y="7" type="curve" smooth="yes"/>
      <point x="538" y="7"/>
      <point x="207" y="136"/>
      <point x="207" y="608" type="curve" smooth="yes"/>
      <point x="207" y="897" type="line" smooth="yes"/>
      <point x="207" y="1407"/>
      <point x="540" y="1521"/>
      <point x="914" y="1521" type="curve" smooth="yes"/>
      <point x="1287" y="1521"/>
      <point x="1623" y="1406"/>
      <point x="1623" y="896" type="curve" smooth="yes"/>
      <point x="1623" y="608" type="line" smooth="yes"/>
      <point x="1623" y="124"/>
      <point x="1298" y="7"/>
    </contour>
    <contour>
      <point x="926" y="-96" type="curve" smooth="yes"/>
      <point x="1361" y="-96"/>
      <point x="1749" y="62"/>
      <point x="1749" y="608" type="curve" smooth="yes"/>
      <point x="1749" y="898" type="line" smooth="yes"/>
      <point x="1749" y="1469"/>
      <point x="1359" y="1627"/>
      <point x="916" y="1627" type="curve" smooth="yes"/>
      <point x="477" y="1627"/>
      <point x="81" y="1473"/>
      <point x="81" y="900" type="curve" smooth="yes"/>
      <point x="81" y="608" type="line" smooth="yes"/>
      <point x="81" y="65"/>
      <point x="474" y="-96"/>
    </contour>
    <contour>
      <point x="711" y="831" type="line"/>
      <point x="711" y="1182" type="line"/>
      <point x="944" y="1182" type="line" smooth="yes"/>
      <point x="1076" y="1182"/>
      <point x="1136" y="1175"/>
      <point x="1136" y="1013" type="curve" smooth="yes"/>
      <point x="1136" y="1008" type="line" smooth="yes"/>
      <point x="1136" y="853"/>
      <point x="1102" y="831"/>
      <point x="910" y="831" type="curve" smooth="yes"/>
    </contour>
  </outline>
</glyph>
<glyph name="macron" format="1">
  <advance width="841"/>
  <unicode hex="00AF"/>
  <outline>
    <contour>
      <point x="419" y="1095" type="move" name="_top"/>
    </contour>
    <contour>
      <point x="416" y="1381" type="move" name="_mid"/>
    </contour>
    <contour>
      <point x="127" y="1445" type="line"/>
      <point x="127" y="1319" type="line"/>
      <point x="721" y="1319" type="line"/>
      <point x="721" y="1445" type="line"/>
    </contour>
  </outline>
</glyph>
<glyph name="degree" format="1">
  <advance width="863"/>
  <unicode hex="00B0"/>
  <outline>
    <contour>
      <point x="434" y="1154" type="curve" smooth="yes"/>
      <point x="338" y="1154"/>
      <point x="277" y="1218"/>
      <point x="277" y="1321" type="curve" smooth="yes"/>
      <point x="277" y="1422"/>
      <point x="338" y="1486"/>
      <point x="434" y="1486" type="curve" smooth="yes"/>
      <point x="532" y="1486"/>
      <point x="593" y="1422"/>
      <point x="593" y="1321" type="curve" smooth="yes"/>
      <point x="593" y="1218"/>
      <point x="532" y="1154"/>
    </contour>
    <contour>
      <point x="434" y="1046" type="curve" smooth="yes"/>
      <point x="621" y="1046"/>
      <point x="739" y="1151"/>
      <point x="739" y="1322" type="curve" smooth="yes"/>
      <point x="739" y="1491"/>
      <point x="621" y="1596"/>
      <point x="434" y="1596" type="curve" smooth="yes"/>
      <point x="247" y="1596"/>
      <point x="129" y="1491"/>
      <point x="129" y="1322" type="curve" smooth="yes"/>
      <point x="129" y="1151"/>
      <point x="247" y="1046"/>
    </contour>
  </outline>
</glyph>
<glyph name="plusminus" format="1">
  <advance width="1209"/>
  <unicode hex="00B1"/>
  <outline>
    <contour>
      <point x="531" y="260" type="line"/>
      <point x="678" y="260" type="line"/>
      <point x="678" y="645" type="line"/>
      <point x="1066" y="645" type="line"/>
      <point x="1066" y="793" type="line"/>
      <point x="678" y="793" type="line"/>
      <point x="678" y="1182" type="line"/>
      <point x="531" y="1182" type="line"/>
      <point x="531" y="793" type="line"/>
      <point x="144" y="793" type="line"/>
      <point x="144" y="645" type="line"/>
      <point x="531" y="645" type="line"/>
    </contour>
    <contour>
      <point x="142" y="0" type="line"/>
      <point x="1067" y="0" type="line"/>
      <point x="1067" y="149" type="line"/>
      <point x="142" y="149" type="line"/>
    </contour>
  </outline>
</glyph>
<glyph name="twosuperior" format="1">
  <advance width="1205"/>
  <unicode hex="00B2"/>
  <outline>
    <contour>
      <point x="248" y="434" type="line"/>
      <point x="1033" y="434" type="line"/>
      <point x="1033" y="575" type="line"/>
      <point x="423" y="575" type="line"/>
      <point x="423" y="698"/>
      <point x="428" y="777"/>
      <point x="650" y="849" type="curve" smooth="yes"/>
      <point x="822" y="904"/>
      <point x="1053" y="934"/>
      <point x="1053" y="1176" type="curve" smooth="yes"/>
      <point x="1053" y="1442"/>
      <point x="909" y="1509"/>
      <point x="647" y="1509" type="curve" smooth="yes"/>
      <point x="404" y="1509"/>
      <point x="241" y="1448"/>
      <point x="241" y="1178" type="curve" smooth="yes"/>
      <point x="241" y="1136" type="line"/>
      <point x="433" y="1156" type="line"/>
      <point x="433" y="1213" type="line" smooth="yes"/>
      <point x="433" y="1292"/>
      <point x="449" y="1354"/>
      <point x="654" y="1353" type="curve" smooth="yes"/>
      <point x="845" y="1352"/>
      <point x="871" y="1311"/>
      <point x="871" y="1232" type="curve" smooth="yes"/>
      <point x="871" y="1161" type="line" smooth="yes"/>
      <point x="871" y="1066"/>
      <point x="807" y="1045"/>
      <point x="624" y="993" type="curve" smooth="yes"/>
      <point x="340" y="911"/>
      <point x="248" y="823"/>
      <point x="248" y="561" type="curve" smooth="yes"/>
    </contour>
  </outline>
</glyph>
<glyph name="threesuperior" format="1">
  <advance width="1261"/>
  <unicode hex="00B3"/>
  <outline>
    <contour>
      <point x="649" y="430" type="curve" smooth="yes"/>
      <point x="917" y="430"/>
      <point x="1041" y="497"/>
      <point x="1041" y="743" type="curve" smooth="yes"/>
      <point x="1041" y="851"/>
      <point x="1035" y="947"/>
      <point x="941" y="973" type="curve"/>
      <point x="1034" y="999"/>
      <point x="1039" y="1077"/>
      <point x="1039" y="1185" type="curve" smooth="yes"/>
      <point x="1039" y="1432"/>
      <point x="969" y="1509"/>
      <point x="648" y="1509" type="curve" smooth="yes"/>
      <point x="308" y="1509"/>
      <point x="234" y="1426"/>
      <point x="234" y="1163" type="curve"/>
      <point x="234" y="1138" type="line"/>
      <point x="429" y="1138" type="line"/>
      <point x="430" y="1181" type="line" smooth="yes"/>
      <point x="434" y="1351"/>
      <point x="462" y="1372"/>
      <point x="648" y="1372" type="curve" smooth="yes"/>
      <point x="836" y="1372"/>
      <point x="857" y="1339"/>
      <point x="857" y="1204" type="curve"/>
      <point x="857" y="1073"/>
      <point x="868" y="1037"/>
      <point x="806" y="1037" type="curve" smooth="yes"/>
      <point x="540" y="1037" type="line"/>
      <point x="540" y="919" type="line"/>
      <point x="806" y="919" type="line" smooth="yes"/>
      <point x="861" y="919"/>
      <point x="857" y="874"/>
      <point x="857" y="766" type="curve"/>
      <point x="857" y="625"/>
      <point x="832" y="576"/>
      <point x="664" y="576" type="curve"/>
      <point x="435" y="576"/>
      <point x="424" y="626"/>
      <point x="428" y="778" type="curve" smooth="yes"/>
      <point x="429" y="814" type="line"/>
      <point x="234" y="814" type="line"/>
      <point x="234" y="775" type="line" smooth="yes"/>
      <point x="234" y="525"/>
      <point x="316" y="430"/>
    </contour>
  </outline>
</glyph>
<glyph name="acute" format="1">
  <advance width="664"/>
  <unicode hex="00B4"/>
  <outline>
    <contour>
      <point x="323" y="1095" type="move" name="_top"/>
    </contour>
    <contour>
      <point x="108" y="1285" type="curve" smooth="yes"/>
      <point x="106" y="1284"/>
      <point x="477" y="1423"/>
      <point x="502" y="1434" type="curve" smooth="yes"/>
      <point x="550" y="1454"/>
      <point x="572" y="1498"/>
      <point x="572" y="1537" type="curve" smooth="yes"/>
      <point x="572" y="1587"/>
      <point x="535" y="1636"/>
      <point x="470" y="1636" type="curve" smooth="yes"/>
      <point x="438" y="1636"/>
      <point x="410" y="1620"/>
      <point x="386" y="1601" type="curve" smooth="yes"/>
      <point x="349" y="1569"/>
      <point x="90" y="1304"/>
      <point x="92" y="1305" type="curve" smooth="yes"/>
      <point x="88" y="1301"/>
      <point x="89" y="1293"/>
      <point x="93" y="1288" type="curve" smooth="yes"/>
      <point x="96" y="1285"/>
      <point x="102" y="1283"/>
    </contour>
  </outline>
</glyph>
<glyph name="paragraph" format="1">
  <advance width="1178"/>
  <unicode hex="00B6"/>
  <outline>
    <contour>
      <point x="490" y="1504" type="line"/>
      <point x="197" y="1504"/>
      <point x="50" y="1398"/>
      <point x="50" y="1135" type="curve" smooth="yes"/>
      <point x="50" y="899"/>
      <point x="240" y="787"/>
      <point x="555" y="787" type="curve"/>
      <point x="555" y="-198" type="line"/>
      <point x="691" y="-198" type="line"/>
      <point x="691" y="1290" type="line"/>
      <point x="890" y="1290" type="line"/>
      <point x="890" y="-198" type="line"/>
      <point x="1015" y="-198" type="line"/>
      <point x="1015" y="1504" type="line"/>
    </contour>
  </outline>
</glyph>
<glyph name="periodcentered" format="1">
  <advance width="607"/>
  <unicode hex="00B7"/>
  <outline>
    <contour>
      <point x="36" y="720" type="move" name="_mid"/>
    </contour>
    <contour>
      <point x="440" y="582" type="curve" smooth="yes"/>
      <point x="527" y="582"/>
      <point x="583" y="647"/>
      <point x="583" y="738" type="curve" smooth="yes"/>
      <point x="583" y="829"/>
      <point x="522" y="895"/>
      <point x="440" y="895" type="curve" smooth="yes"/>
      <point x="352" y="895"/>
      <point x="297" y="831"/>
      <point x="297" y="738" type="curve" smooth="yes"/>
      <point x="297" y="649"/>
      <point x="359" y="582"/>
    </contour>
  </outline>
</glyph>
<glyph name="cedilla" format="1">
  <advance width="720"/>
  <unicode hex="00B8"/>
  <outline>
    <contour>
      <point x="376" y="0" type="move" name="_bot"/>
    </contour>
    <contour>
      <point x="327" y="10" type="line"/>
      <point x="289" y="-134" type="line" smooth="yes"/>
      <point x="268" y="-213"/>
      <point x="256" y="-261"/>
      <point x="252" y="-279" type="curve"/>
      <point x="344" y="-279"/>
      <point x="390" y="-308"/>
      <point x="390" y="-366" type="curve" smooth="yes"/>
      <point x="390" y="-406"/>
      <point x="365" y="-420"/>
      <point x="331" y="-420" type="curve" smooth="yes"/>
      <point x="273" y="-420"/>
      <point x="189" y="-379"/>
      <point x="169" y="-370" type="curve"/>
      <point x="122" y="-460" type="line"/>
      <point x="185" y="-514"/>
      <point x="276" y="-542"/>
      <point x="361" y="-542" type="curve" smooth="yes"/>
      <point x="489" y="-542"/>
      <point x="606" y="-480"/>
      <point x="606" y="-354" type="curve" smooth="yes"/>
      <point x="606" y="-204"/>
      <point x="519" y="-176"/>
      <point x="387" y="-158" type="curve"/>
      <point x="436" y="10" type="line"/>
    </contour>
  </outline>
</glyph>
<glyph name="onesuperior" format="1">
  <advance width="815"/>
  <unicode hex="00B9"/>
  <outline>
    <contour>
      <point x="351" y="410" type="line"/>
      <point x="557" y="410" type="line"/>
      <point x="557" y="1504" type="line"/>
      <point x="425" y="1504" type="line"/>
      <point x="368" y="1469"/>
      <point x="297" y="1449"/>
      <point x="207" y="1449" type="curve"/>
      <point x="207" y="1322" type="line"/>
      <point x="351" y="1322" type="line"/>
    </contour>
  </outline>
</glyph>
<glyph name="ordmasculine" format="1">
  <advance width="1021"/>
  <unicode hex="00BA"/>
  <outline>
    <contour>
      <point x="510" y="642" type="curve" smooth="yes"/>
      <point x="815" y="643"/>
      <point x="872" y="718"/>
      <point x="872" y="1029" type="curve" smooth="yes"/>
      <point x="872" y="1118" type="line" smooth="yes"/>
      <point x="873" y="1463"/>
      <point x="814" y="1524"/>
      <point x="511" y="1524" type="curve" smooth="yes"/>
      <point x="211" y="1524"/>
      <point x="148" y="1464"/>
      <point x="148" y="1118" type="curve" smooth="yes"/>
      <point x="148" y="1029" type="line" smooth="yes"/>
      <point x="148" y="719"/>
      <point x="205" y="642"/>
    </contour>
    <contour>
      <point x="335" y="820" type="curve" smooth="yes"/>
      <point x="335" y="1346" type="line" smooth="yes"/>
      <point x="335" y="1401"/>
      <point x="421" y="1409"/>
      <point x="510" y="1409" type="curve" smooth="yes"/>
      <point x="600" y="1409"/>
      <point x="686" y="1401"/>
      <point x="686" y="1346" type="curve" smooth="yes"/>
      <point x="686" y="820" type="line" smooth="yes"/>
      <point x="686" y="772"/>
      <point x="629" y="761"/>
      <point x="510" y="761" type="curve" smooth="yes"/>
      <point x="392" y="761"/>
      <point x="335" y="772"/>
    </contour>
  </outline>
</glyph>
<glyph name="guillemotright" format="1">
  <advance width="1711"/>
  <unicode hex="00BB"/>
  <outline>
    <contour>
      <point x="270" y="255" type="curve" smooth="yes"/>
      <point x="286" y="255"/>
      <point x="304" y="261"/>
      <point x="322" y="275" type="curve" smooth="yes"/>
      <point x="823" y="667" type="line" smooth="yes"/>
      <point x="871" y="704"/>
      <point x="893" y="743"/>
      <point x="893" y="781" type="curve"/>
      <point x="893" y="825"/>
      <point x="869" y="860"/>
      <point x="823" y="896" type="curve" smooth="yes"/>
      <point x="322" y="1287" type="line" smooth="yes"/>
      <point x="302" y="1303"/>
      <point x="286" y="1313"/>
      <point x="270" y="1307" type="curve" smooth="yes"/>
      <point x="232" y="1313"/>
      <point x="204" y="1281"/>
      <point x="204" y="1240" type="curve" smooth="yes"/>
      <point x="204" y="1228"/>
      <point x="209" y="1205"/>
      <point x="229" y="1186" type="curve" smooth="yes"/>
      <point x="646" y="781" type="line"/>
      <point x="229" y="377" type="line" smooth="yes"/>
      <point x="212" y="360"/>
      <point x="204" y="340"/>
      <point x="204" y="322" type="curve" smooth="yes"/>
      <point x="204" y="287"/>
      <point x="232" y="255"/>
    </contour>
    <contour>
      <point x="825" y="255" type="curve" smooth="yes"/>
      <point x="841" y="255"/>
      <point x="858" y="261"/>
      <point x="876" y="275" type="curve" smooth="yes"/>
      <point x="1378" y="667" type="line" smooth="yes"/>
      <point x="1426" y="704"/>
      <point x="1448" y="743"/>
      <point x="1448" y="781" type="curve"/>
      <point x="1448" y="825"/>
      <point x="1424" y="860"/>
      <point x="1378" y="896" type="curve" smooth="yes"/>
      <point x="876" y="1287" type="line" smooth="yes"/>
      <point x="856" y="1303"/>
      <point x="841" y="1313"/>
      <point x="825" y="1307" type="curve" smooth="yes"/>
      <point x="787" y="1313"/>
      <point x="759" y="1281"/>
      <point x="759" y="1240" type="curve" smooth="yes"/>
      <point x="759" y="1228"/>
      <point x="764" y="1205"/>
      <point x="784" y="1186" type="curve" smooth="yes"/>
      <point x="1201" y="781" type="line"/>
      <point x="784" y="377" type="line" smooth="yes"/>
      <point x="767" y="360"/>
      <point x="759" y="340"/>
      <point x="759" y="322" type="curve" smooth="yes"/>
      <point x="759" y="287"/>
      <point x="787" y="255"/>
    </contour>
  </outline>
</glyph>
<glyph name="onequarter" format="1">
  <advance width="2343"/>
  <unicode hex="00BC"/>
  <outline>
    <contour>
      <point x="1980" y="0" type="line"/>
      <point x="2166" y="0" type="line"/>
      <point x="2166" y="691" type="line"/>
      <point x="1980" y="691" type="line"/>
      <point x="1980" y="401" type="line"/>
      <point x="1596" y="401" type="line"/>
      <point x="1596" y="415" type="line"/>
      <point x="1938" y="1103" type="line"/>
      <point x="1765" y="1103" type="line"/>
      <point x="1393" y="402" type="line"/>
      <point x="1393" y="252" type="line"/>
      <point x="1980" y="252" type="line"/>
    </contour>
    <contour>
      <point x="275" y="449" type="line"/>
      <point x="458" y="449" type="line"/>
      <point x="458" y="1489" type="line"/>
      <point x="348" y="1489" type="line"/>
      <point x="291" y="1454"/>
      <point x="221" y="1434"/>
      <point x="131" y="1434" type="curve"/>
      <point x="131" y="1310" type="line"/>
      <point x="275" y="1310" type="line"/>
    </contour>
    <contour>
      <point x="630" y="0" type="line"/>
      <point x="764" y="0" type="line"/>
      <point x="1458" y="1525" type="line"/>
      <point x="1225" y="1525" type="line"/>
    </contour>
  </outline>
</glyph>
<glyph name="onehalf" format="1">
  <advance width="2390"/>
  <unicode hex="00BD"/>
  <outline>
    <contour>
      <point x="1462" y="0" type="line"/>
      <point x="2247" y="0" type="line"/>
      <point x="2247" y="141" type="line"/>
      <point x="1638" y="141" type="line"/>
      <point x="1638" y="264"/>
      <point x="1643" y="343"/>
      <point x="1864" y="415" type="curve" smooth="yes"/>
      <point x="2036" y="470"/>
      <point x="2267" y="500"/>
      <point x="2267" y="742" type="curve" smooth="yes"/>
      <point x="2267" y="1008"/>
      <point x="2123" y="1075"/>
      <point x="1861" y="1075" type="curve" smooth="yes"/>
      <point x="1618" y="1075"/>
      <point x="1455" y="1014"/>
      <point x="1455" y="744" type="curve" smooth="yes"/>
      <point x="1455" y="702" type="line"/>
      <point x="1648" y="722" type="line"/>
      <point x="1648" y="779" type="line" smooth="yes"/>
      <point x="1648" y="858"/>
      <point x="1663" y="920"/>
      <point x="1868" y="919" type="curve" smooth="yes"/>
      <point x="2059" y="918"/>
      <point x="2085" y="877"/>
      <point x="2085" y="798" type="curve" smooth="yes"/>
      <point x="2085" y="727" type="line" smooth="yes"/>
      <point x="2085" y="632"/>
      <point x="2021" y="612"/>
      <point x="1839" y="559" type="curve" smooth="yes"/>
      <point x="1554" y="477"/>
      <point x="1462" y="389"/>
      <point x="1462" y="127" type="curve" smooth="yes"/>
    </contour>
    <contour>
      <point x="275" y="449" type="line"/>
      <point x="458" y="449" type="line"/>
      <point x="458" y="1489" type="line"/>
      <point x="348" y="1489" type="line"/>
      <point x="291" y="1454"/>
      <point x="221" y="1434"/>
      <point x="131" y="1434" type="curve"/>
      <point x="131" y="1310" type="line"/>
      <point x="275" y="1310" type="line"/>
    </contour>
    <contour>
      <point x="559" y="0" type="line"/>
      <point x="693" y="0" type="line"/>
      <point x="1387" y="1525" type="line"/>
      <point x="1154" y="1525" type="line"/>
    </contour>
  </outline>
</glyph>
<glyph name="threequarters" format="1">
  <advance width="2620"/>
  <unicode hex="00BE"/>
  <outline>
    <contour>
      <point x="2258" y="0" type="line"/>
      <point x="2441" y="0" type="line"/>
      <point x="2441" y="693" type="line"/>
      <point x="2258" y="693" type="line"/>
      <point x="2258" y="401" type="line"/>
      <point x="1870" y="401" type="line"/>
      <point x="1870" y="414" type="line"/>
      <point x="2215" y="1105" type="line"/>
      <point x="2046" y="1105" type="line"/>
      <point x="1670" y="400" type="line"/>
      <point x="1670" y="256" type="line"/>
      <point x="2258" y="256" type="line"/>
    </contour>
    <contour>
      <point x="1001" y="0" type="line"/>
      <point x="1131" y="0" type="line"/>
      <point x="1829" y="1523" type="line"/>
      <point x="1600" y="1523" type="line"/>
    </contour>
    <contour>
      <point x="588" y="415" type="curve" smooth="yes"/>
      <point x="854" y="415"/>
      <point x="979" y="481"/>
      <point x="979" y="727" type="curve" smooth="yes"/>
      <point x="979" y="835"/>
      <point x="974" y="932"/>
      <point x="880" y="957" type="curve"/>
      <point x="973" y="983"/>
      <point x="977" y="1061"/>
      <point x="977" y="1169" type="curve" smooth="yes"/>
      <point x="977" y="1416"/>
      <point x="908" y="1493"/>
      <point x="587" y="1493" type="curve" smooth="yes"/>
      <point x="245" y="1493"/>
      <point x="173" y="1410"/>
      <point x="173" y="1147" type="curve"/>
      <point x="173" y="1124" type="line"/>
      <point x="364" y="1124" type="line"/>
      <point x="365" y="1160" type="line" smooth="yes"/>
      <point x="369" y="1336"/>
      <point x="397" y="1358"/>
      <point x="587" y="1358" type="curve" smooth="yes"/>
      <point x="778" y="1358"/>
      <point x="798" y="1324"/>
      <point x="798" y="1183" type="curve"/>
      <point x="798" y="1047"/>
      <point x="810" y="1021"/>
      <point x="747" y="1021" type="curve" smooth="yes"/>
      <point x="479" y="1021" type="line"/>
      <point x="479" y="904" type="line"/>
      <point x="747" y="904" type="line" smooth="yes"/>
      <point x="802" y="904"/>
      <point x="798" y="869"/>
      <point x="798" y="757" type="curve"/>
      <point x="798" y="611"/>
      <point x="774" y="560"/>
      <point x="603" y="560" type="curve"/>
      <point x="370" y="560"/>
      <point x="359" y="612"/>
      <point x="363" y="770" type="curve" smooth="yes"/>
      <point x="364" y="797" type="line"/>
      <point x="173" y="797" type="line"/>
      <point x="173" y="759" type="line" smooth="yes"/>
      <point x="173" y="509"/>
      <point x="254" y="415"/>
    </contour>
  </outline>
</glyph>
<glyph name="AE" format="1">
  <advance width="2079"/>
  <unicode hex="00C6"/>
  <outline>
    <contour>
      <point x="1160" y="1489" type="move" name="top"/>
    </contour>
    <contour>
      <point x="101" y="0" type="line"/>
      <point x="334" y="0" type="line"/>
      <point x="550" y="381" type="line"/>
      <point x="1063" y="381" type="line"/>
      <point x="1063" y="0" type="line"/>
      <point x="1936" y="0" type="line"/>
      <point x="1936" y="166" type="line"/>
      <point x="1269" y="166" type="line"/>
      <point x="1269" y="697" type="line"/>
      <point x="1805" y="697" type="line"/>
      <point x="1805" y="863" type="line"/>
      <point x="1269" y="863" type="line"/>
      <point x="1269" y="1323" type="line"/>
      <point x="1917" y="1323" type="line"/>
      <point x="1917" y="1489" type="line"/>
      <point x="939" y="1489" type="line"/>
    </contour>
    <contour>
      <point x="616" y="522" type="line"/>
      <point x="1063" y="1365" type="line"/>
      <point x="1063" y="522" type="line"/>
    </contour>
  </outline>
</glyph>
<glyph name="multiply" format="1">
  <advance width="964"/>
  <unicode hex="00D7"/>
  <outline>
    <contour>
      <point x="256" y="291" type="curve"/>
      <point x="482" y="541" type="line"/>
      <point x="708" y="291" type="line"/>
      <point x="824" y="420" type="line"/>
      <point x="601" y="670" type="line"/>
      <point x="824" y="920" type="line"/>
      <point x="708" y="1050" type="line"/>
      <point x="482" y="800" type="line"/>
      <point x="256" y="1050" type="line"/>
      <point x="189" y="976"/>
      <point x="167" y="949"/>
      <point x="139" y="920" type="curve"/>
      <point x="350" y="685"/>
      <point x="355" y="678"/>
      <point x="363" y="670" type="curve"/>
      <point x="139" y="420" type="line"/>
      <point x="206" y="347"/>
      <point x="229" y="320"/>
    </contour>
  </outline>
</glyph>
<glyph name="Oslash" format="1">
  <advance width="1735"/>
  <unicode hex="00D8"/>
  <outline>
    <contour>
      <point x="852" y="1595" type="move" name="top"/>
    </contour>
    <contour>
      <point x="1148" y="1327" type="line"/>
      <point x="1336" y="1620" type="line"/>
      <point x="1213" y="1692" type="line"/>
      <point x="1020" y="1391" type="line"/>
    </contour>
    <contour>
      <point x="260" y="-173" type="line"/>
      <point x="426" y="90" type="line"/>
      <point x="310" y="169" type="line"/>
      <point x="141" y="-99" type="line"/>
    </contour>
    <component base="O"/>
  </outline>
</glyph>
<glyph name="Thorn" format="1">
  <advance width="1298"/>
  <unicode hex="00DE"/>
  <outline>
    <contour>
      <point x="178" y="0" type="line"/>
      <point x="374" y="0" type="line"/>
      <point x="374" y="384" type="line"/>
      <point x="593" y="384" type="line" smooth="yes"/>
      <point x="823" y="384"/>
      <point x="1179" y="344"/>
      <point x="1179" y="834" type="curve" smooth="yes"/>
      <point x="1179" y="860" type="line" smooth="yes"/>
      <point x="1171" y="1216"/>
      <point x="1032" y="1283"/>
      <point x="620" y="1283" type="curve" smooth="yes"/>
      <point x="374" y="1283" type="line"/>
      <point x="374" y="1489" type="line"/>
      <point x="178" y="1489" type="line"/>
    </contour>
    <contour>
      <point x="374" y="552" type="line"/>
      <point x="374" y="1119" type="line"/>
      <point x="607" y="1119" type="line" smooth="yes"/>
      <point x="942" y="1119"/>
      <point x="984" y="1105"/>
      <point x="984" y="832" type="curve" smooth="yes"/>
      <point x="984" y="628"/>
      <point x="980" y="552"/>
      <point x="698" y="552" type="curve" smooth="yes"/>
    </contour>
  </outline>
</glyph>
<glyph name="germandbls" format="1">
  <advance width="1255"/>
  <unicode hex="00DF"/>
  <outline>
    <contour>
      <point x="165" y="-184" type="line"/>
      <point x="354" y="-167" type="line"/>
      <point x="354" y="1068" type="line"/>
      <point x="353" y="1323"/>
      <point x="396" y="1336"/>
      <point x="611" y="1336" type="curve" smooth="yes"/>
      <point x="812" y="1336"/>
      <point x="847" y="1300"/>
      <point x="847" y="1129" type="curve" smooth="yes"/>
      <point x="847" y="977"/>
      <point x="840" y="880"/>
      <point x="747" y="880" type="curve" smooth="yes"/>
      <point x="503" y="880" type="line"/>
      <point x="503" y="736" type="line"/>
      <point x="747" y="735" type="line" smooth="yes"/>
      <point x="921" y="735"/>
      <point x="930" y="670"/>
      <point x="924" y="427" type="curve" smooth="yes"/>
      <point x="917" y="164"/>
      <point x="881" y="158"/>
      <point x="707" y="158" type="curve" smooth="yes"/>
      <point x="472" y="160" type="line"/>
      <point x="472" y="2" type="line"/>
      <point x="723" y="2" type="line" smooth="yes"/>
      <point x="955" y="2"/>
      <point x="1114" y="101"/>
      <point x="1114" y="384" type="curve" smooth="yes"/>
      <point x="1114" y="467" type="line" smooth="yes"/>
      <point x="1114" y="739"/>
      <point x="1006" y="816"/>
      <point x="885" y="825" type="curve"/>
      <point x="982" y="838"/>
      <point x="1033" y="945"/>
      <point x="1033" y="1138" type="curve" smooth="yes"/>
      <point x="1033" y="1405"/>
      <point x="907" y="1492"/>
      <point x="611" y="1492" type="curve" smooth="yes"/>
      <point x="293" y="1492"/>
      <point x="165" y="1412"/>
      <point x="165" y="1128" type="curve" smooth="yes"/>
    </contour>
  </outline>
</glyph>
<glyph name="ae" format="1">
  <advance width="1778"/>
  <unicode hex="00E6"/>
  <outline>
    <contour>
      <point x="855" y="1095" type="move" name="top"/>
    </contour>
    <contour>
      <point x="470" y="-15" type="curve" smooth="yes"/>
      <point x="668" y="-15"/>
      <point x="822" y="31"/>
      <point x="882" y="163" type="curve"/>
      <point x="942" y="56"/>
      <point x="1041" y="-15"/>
      <point x="1274" y="-15" type="curve" smooth="yes"/>
      <point x="1470" y="-15"/>
      <point x="1554" y="13"/>
      <point x="1588" y="142" type="curve" smooth="yes"/>
      <point x="1599" y="185"/>
      <point x="1604" y="237"/>
      <point x="1606" y="304" type="curve"/>
      <point x="1458" y="332" type="line"/>
      <point x="1451" y="268"/>
      <point x="1456" y="217"/>
      <point x="1436" y="179" type="curve" smooth="yes"/>
      <point x="1415" y="142"/>
      <point x="1369" y="121"/>
      <point x="1256" y="121" type="curve" smooth="yes"/>
      <point x="1124" y="121"/>
      <point x="1057" y="140"/>
      <point x="1022" y="184" type="curve" smooth="yes"/>
      <point x="987" y="229"/>
      <point x="985" y="295"/>
      <point x="985" y="549" type="curve"/>
      <point x="1634" y="548" type="line"/>
      <point x="1634" y="622"/>
      <point x="1633" y="698"/>
      <point x="1630" y="755" type="curve" smooth="yes"/>
      <point x="1615" y="1056"/>
      <point x="1545" y="1126"/>
      <point x="1244" y="1126" type="curve" smooth="yes"/>
      <point x="1066" y="1126"/>
      <point x="940" y="1089"/>
      <point x="904" y="992" type="curve"/>
      <point x="883" y="1095"/>
      <point x="736" y="1126"/>
      <point x="593" y="1126" type="curve" smooth="yes"/>
      <point x="358" y="1126"/>
      <point x="201" y="1102"/>
      <point x="201" y="876" type="curve" smooth="yes"/>
      <point x="201" y="861"/>
      <point x="201" y="845"/>
      <point x="203" y="829" type="curve"/>
      <point x="352" y="823" type="line"/>
      <point x="354" y="894"/>
      <point x="351" y="935"/>
      <point x="377" y="959" type="curve" smooth="yes"/>
      <point x="403" y="984"/>
      <point x="458" y="990"/>
      <point x="580" y="990" type="curve" smooth="yes"/>
      <point x="738" y="990"/>
      <point x="792" y="969"/>
      <point x="792" y="899" type="curve" smooth="yes"/>
      <point x="792" y="602" type="line"/>
      <point x="403" y="602"/>
      <point x="139" y="575"/>
      <point x="139" y="354" type="curve" smooth="yes"/>
      <point x="139" y="86"/>
      <point x="204" y="-15"/>
    </contour>
    <contour>
      <point x="496" y="121" type="curve" smooth="yes"/>
      <point x="407" y="121"/>
      <point x="363" y="129"/>
      <point x="340" y="161" type="curve" smooth="yes"/>
      <point x="317" y="193"/>
      <point x="317" y="244"/>
      <point x="317" y="352" type="curve" smooth="yes"/>
      <point x="317" y="421"/>
      <point x="363" y="462"/>
      <point x="570" y="477" type="curve" smooth="yes"/>
      <point x="630" y="482"/>
      <point x="703" y="484"/>
      <point x="792" y="484" type="curve"/>
      <point x="792" y="315" type="line" smooth="yes"/>
      <point x="792" y="203"/>
      <point x="718" y="121"/>
    </contour>
    <contour>
      <point x="985" y="654" type="line"/>
      <point x="988" y="782"/>
      <point x="984" y="864"/>
      <point x="1014" y="917" type="curve" smooth="yes"/>
      <point x="1043" y="970"/>
      <point x="1105" y="990"/>
      <point x="1243" y="990" type="curve" smooth="yes"/>
      <point x="1384" y="990"/>
      <point x="1424" y="970"/>
      <point x="1430" y="887" type="curve" smooth="yes"/>
      <point x="1436" y="811"/>
      <point x="1439" y="734"/>
      <point x="1440" y="654" type="curve"/>
    </contour>
  </outline>
</glyph>
<glyph name="eth" format="1">
  <advance width="1267"/>
  <unicode hex="00F0"/>
  <outline>
    <contour>
      <point x="648" y="-24" type="curve" smooth="yes"/>
      <point x="1005" y="-24"/>
      <point x="1114" y="56"/>
      <point x="1114" y="448" type="curve" smooth="yes"/>
      <point x="1114" y="977"/>
      <point x="1116" y="1236"/>
      <point x="928" y="1367" type="curve"/>
      <point x="1086" y="1525" type="line"/>
      <point x="1026" y="1585" type="line"/>
      <point x="850" y="1408" type="line"/>
      <point x="737" y="1457"/>
      <point x="576" y="1480"/>
      <point x="346" y="1493" type="curve"/>
      <point x="330" y="1376" type="line"/>
      <point x="536" y="1358"/>
      <point x="667" y="1350"/>
      <point x="754" y="1311" type="curve"/>
      <point x="607" y="1164" type="line"/>
      <point x="667" y="1105" type="line"/>
      <point x="823" y="1261" type="line"/>
      <point x="888" y="1189"/>
      <point x="907" y="1060"/>
      <point x="920" y="813" type="curve"/>
      <point x="901" y="914"/>
      <point x="779" y="965"/>
      <point x="553" y="965" type="curve" smooth="yes"/>
      <point x="247" y="965"/>
      <point x="144" y="852"/>
      <point x="143" y="599" type="curve" smooth="yes"/>
      <point x="143" y="599"/>
      <point x="142" y="379"/>
      <point x="142" y="380" type="curve" smooth="yes"/>
      <point x="142" y="57"/>
      <point x="239" y="-24"/>
    </contour>
    <contour>
      <point x="646" y="103" type="curve" smooth="yes"/>
      <point x="373" y="103"/>
      <point x="331" y="109"/>
      <point x="331" y="214" type="curve" smooth="yes"/>
      <point x="332" y="713" type="line" smooth="yes"/>
      <point x="332" y="824"/>
      <point x="357" y="838"/>
      <point x="648" y="838" type="curve" smooth="yes"/>
      <point x="905" y="838"/>
      <point x="920" y="775"/>
      <point x="920" y="649" type="curve" smooth="yes"/>
      <point x="920" y="204" type="line" smooth="yes"/>
      <point x="920" y="119"/>
      <point x="917" y="103"/>
    </contour>
  </outline>
</glyph>
<glyph name="divide" format="1">
  <advance width="718"/>
  <unicode hex="00F7"/>
  <outline>
    <contour>
      <point x="362" y="134" type="curve" smooth="yes"/>
      <point x="448" y="134"/>
      <point x="502" y="203"/>
      <point x="502" y="288" type="curve" smooth="yes"/>
      <point x="502" y="366"/>
      <point x="446" y="442"/>
      <point x="376" y="442" type="curve" smooth="yes"/>
      <point x="275" y="442"/>
      <point x="222" y="383"/>
      <point x="222" y="288" type="curve" smooth="yes"/>
      <point x="222" y="193"/>
      <point x="281" y="134"/>
    </contour>
    <contour>
      <point x="18" y="614" type="line"/>
      <point x="705" y="614" type="line"/>
      <point x="705" y="753" type="line"/>
      <point x="18" y="753" type="line"/>
    </contour>
    <contour>
      <point x="362" y="925" type="curve" smooth="yes"/>
      <point x="450" y="925"/>
      <point x="502" y="991"/>
      <point x="502" y="1079" type="curve" smooth="yes"/>
      <point x="502" y="1157"/>
      <point x="446" y="1233"/>
      <point x="376" y="1233" type="curve" smooth="yes"/>
      <point x="275" y="1233"/>
      <point x="222" y="1175"/>
      <point x="222" y="1079" type="curve" smooth="yes"/>
      <point x="222" y="984"/>
      <point x="280" y="925"/>
    </contour>
  </outline>
</glyph>
<glyph name="oslash" format="1">
  <advance width="1631"/>
  <unicode hex="00F8"/>
  <outline>
    <contour>
      <point x="592" y="1115" type="move" name="top"/>
    </contour>
    <contour>
      <point x="101" y="8" type="line"/>
      <point x="1130" y="1045" type="line"/>
      <point x="1072" y="1103" type="line"/>
      <point x="43" y="66" type="line"/>
    </contour>
    <component base="o"/>
  </outline>
</glyph>
<glyph name="thorn" format="1">
  <advance width="1209"/>
  <unicode hex="00FE"/>
  <outline>
    <contour>
      <point x="162" y="-401" type="line"/>
      <point x="354" y="-385" type="line"/>
      <point x="354" y="104" type="line"/>
      <point x="396" y="20"/>
      <point x="522" y="-24"/>
      <point x="721" y="-24" type="curve" smooth="yes"/>
      <point x="1017" y="-24"/>
      <point x="1065" y="124"/>
      <point x="1065" y="527" type="curve" smooth="yes"/>
      <point x="1065" y="546" type="line" smooth="yes"/>
      <point x="1065" y="919"/>
      <point x="1063" y="1166"/>
      <point x="702" y="1166" type="curve" smooth="yes"/>
      <point x="500" y="1166"/>
      <point x="386" y="1122"/>
      <point x="353" y="1039" type="curve"/>
      <point x="353" y="1579" type="line"/>
      <point x="162" y="1564" type="line"/>
    </contour>
    <contour>
      <point x="618" y="143" type="curve" smooth="yes"/>
      <point x="394" y="143"/>
      <point x="351" y="144"/>
      <point x="351" y="357" type="curve" smooth="yes"/>
      <point x="351" y="454"/>
      <point x="352" y="619"/>
      <point x="352" y="795" type="curve" smooth="yes"/>
      <point x="352" y="980"/>
      <point x="360" y="1000"/>
      <point x="639" y="1000" type="curve" smooth="yes"/>
      <point x="850" y="1000"/>
      <point x="871" y="994"/>
      <point x="871" y="767" type="curve" smooth="yes"/>
      <point x="871" y="668"/>
      <point x="871" y="505"/>
      <point x="871" y="394" type="curve" smooth="yes"/>
      <point x="871" y="189"/>
      <point x="849" y="143"/>
    </contour>
  </outline>
</glyph>
<glyph name="Hbar" format="1">
  <advance width="1542"/>
  <unicode hex="0126"/>
  <outline>
    <contour>
      <point x="219" y="0" type="line"/>
      <point x="462" y="0" type="line"/>
      <point x="462" y="685" type="line"/>
      <point x="1081" y="685" type="line"/>
      <point x="1081" y="0" type="line"/>
      <point x="1324" y="0" type="line"/>
      <point x="1324" y="1093" type="line"/>
      <point x="1404" y="1093" type="line"/>
      <point x="1404" y="1210" type="line"/>
      <point x="1324" y="1210" type="line"/>
      <point x="1324" y="1504" type="line"/>
      <point x="1081" y="1504" type="line"/>
      <point x="1081" y="1210" type="line"/>
      <point x="462" y="1210" type="line"/>
      <point x="462" y="1504" type="line"/>
      <point x="219" y="1504" type="line"/>
      <point x="219" y="1210" type="line"/>
      <point x="139" y="1210" type="line"/>
      <point x="139" y="1093" type="line"/>
      <point x="219" y="1093" type="line"/>
    </contour>
    <contour>
      <point x="462" y="854" type="line"/>
      <point x="462" y="1093" type="line"/>
      <point x="1081" y="1093" type="line"/>
      <point x="1081" y="854" type="line"/>
    </contour>
  </outline>
</glyph>
<glyph name="dotlessi" format="1">
  <advance width="481"/>
  <unicode hex="0131"/>
  <outline>
    <contour>
      <point x="244" y="1091" type="move" name="top"/>
    </contour>
    <contour>
      <point x="250" y="0" type="move" name="ogonek"/>
    </contour>
    <contour>
      <point x="157" y="1087" type="line"/>
      <point x="157" y="0" type="line"/>
      <point x="343" y="0" type="line"/>
      <point x="343" y="1087" type="line"/>
    </contour>
  </outline>
</glyph>
<glyph name="kgreenlandic" format="1">
  <advance width="1160"/>
  <unicode hex="0138"/>
  <outline>
    <contour>
      <point x="156" y="0" type="line"/>
      <point x="343" y="0" type="line"/>
      <point x="343" y="445" type="line"/>
      <point x="434" y="546" type="line"/>
      <point x="822" y="0" type="line"/>
      <point x="1028" y="0" type="line"/>
      <point x="577" y="620" type="line"/>
      <point x="992" y="1087" type="line"/>
      <point x="779" y="1087" type="line"/>
      <point x="515" y="771" type="line" smooth="yes"/>
      <point x="460" y="702"/>
      <point x="399" y="645"/>
      <point x="342" y="582" type="curve"/>
      <point x="342" y="633"/>
      <point x="343" y="686"/>
      <point x="343" y="738" type="curve" smooth="yes"/>
      <point x="343" y="1088" type="line"/>
      <point x="156" y="1071" type="line"/>
    </contour>
  </outline>
</glyph>
<glyph name="Lslash" format="1">
  <advance width="1004"/>
  <unicode hex="0141"/>
  <outline>
    <contour>
      <point x="46" y="537" type="line"/>
      <point x="671" y="862" type="line"/>
      <point x="671" y="1048" type="line"/>
      <point x="46" y="723" type="line"/>
    </contour>
    <component base="L"/>
  </outline>
</glyph>
<glyph name="lslash" format="1">
  <advance width="626"/>
  <unicode hex="0142"/>
  <outline>
    <contour>
      <point x="55" y="811" type="line"/>
      <point x="544" y="1001" type="line"/>
      <point x="544" y="1147" type="line"/>
      <point x="55" y="959" type="line"/>
    </contour>
    <component base="l" xOffset="30"/>
  </outline>
</glyph>
<glyph name="Eng" format="1">
  <advance width="1455"/>
  <unicode hex="014A"/>
  <outline>
    <contour>
      <point x="812" y="-434" type="line"/>
      <point x="1175" y="-434"/>
      <point x="1291" y="-329"/>
      <point x="1291" y="-8" type="curve" smooth="yes"/>
      <point x="1291" y="1504" type="line"/>
      <point x="1087" y="1504" type="line"/>
      <point x="1087" y="419" type="line"/>
      <point x="399" y="1504" type="line"/>
      <point x="163" y="1504" type="line"/>
      <point x="163" y="0" type="line"/>
      <point x="368" y="0" type="line"/>
      <point x="368" y="1116" type="line"/>
      <point x="1080" y="36" type="line"/>
      <point x="1080" y="-120" type="line" smooth="yes"/>
      <point x="1076" y="-210"/>
      <point x="1058" y="-266"/>
      <point x="821" y="-266" type="curve"/>
    </contour>
  </outline>
</glyph>
<glyph name="eng" format="1">
  <advance width="1221"/>
  <unicode hex="014B"/>
  <outline>
    <contour>
      <point x="594" y="-422" type="line"/>
      <point x="985" y="-422"/>
      <point x="1067" y="-298"/>
      <point x="1070" y="82" type="curve" smooth="yes"/>
      <point x="1070" y="653" type="line" smooth="yes"/>
      <point x="1070" y="1003"/>
      <point x="1024" y="1154"/>
      <point x="719" y="1154" type="curve" smooth="yes"/>
      <point x="573" y="1154"/>
      <point x="430" y="1114"/>
      <point x="391" y="1002" type="curve"/>
      <point x="370" y="1123" type="line"/>
      <point x="157" y="1123" type="line"/>
      <point x="157" y="0" type="line"/>
      <point x="391" y="0" type="line"/>
      <point x="391" y="822" type="line" smooth="yes"/>
      <point x="391" y="948"/>
      <point x="436" y="1005"/>
      <point x="666" y="1005" type="curve" smooth="yes"/>
      <point x="816" y="1005"/>
      <point x="835" y="988"/>
      <point x="835" y="721" type="curve" smooth="yes"/>
      <point x="835" y="-108" type="line" smooth="yes"/>
      <point x="830" y="-199"/>
      <point x="802" y="-255"/>
      <point x="565" y="-255" type="curve"/>
    </contour>
  </outline>
</glyph>
<glyph name="OE" format="1">
  <advance width="2115"/>
  <unicode hex="0152"/>
  <outline>
    <contour>
      <point x="1036" y="1487" type="move" name="top"/>
    </contour>
    <contour>
      <point x="728" y="0" type="curve" smooth="yes"/>
      <point x="1951" y="0" type="line"/>
      <point x="1972" y="148" type="line"/>
      <point x="1301" y="148" type="line"/>
      <point x="1301" y="694" type="line"/>
      <point x="1866" y="694" type="line"/>
      <point x="1866" y="852" type="line"/>
      <point x="1301" y="852" type="line"/>
      <point x="1301" y="1335" type="line"/>
      <point x="1963" y="1335" type="line"/>
      <point x="1942" y="1485" type="line"/>
      <point x="728" y="1485" type="line" smooth="yes"/>
      <point x="226" y="1485"/>
      <point x="152" y="1338"/>
      <point x="152" y="791" type="curve" smooth="yes"/>
      <point x="152" y="762"/>
      <point x="152" y="776"/>
      <point x="152" y="748" type="curve" smooth="yes"/>
      <point x="154" y="150"/>
      <point x="178" y="0"/>
    </contour>
    <contour>
      <point x="728" y="150" type="line"/>
      <point x="477" y="150"/>
      <point x="385" y="182"/>
      <point x="359" y="372" type="curve" smooth="yes"/>
      <point x="340" y="506"/>
      <point x="335" y="730"/>
      <point x="347" y="1084" type="curve" smooth="yes"/>
      <point x="354" y="1291"/>
      <point x="384" y="1336"/>
      <point x="728" y="1336" type="curve" smooth="yes"/>
      <point x="1111" y="1336" type="line"/>
      <point x="1111" y="150" type="line"/>
    </contour>
  </outline>
</glyph>
<glyph name="oe" format="1">
  <advance width="1901"/>
  <unicode hex="0153"/>
  <outline>
    <contour>
      <point x="1333" y="-20" type="curve" smooth="yes"/>
      <point x="1619" y="-20"/>
      <point x="1752" y="26"/>
      <point x="1756" y="250" type="curve" smooth="yes"/>
      <point x="1756" y="254"/>
      <point x="1758" y="337"/>
      <point x="1757" y="342" type="curve"/>
      <point x="1562" y="349" type="line"/>
      <point x="1553" y="206" type="line" smooth="yes"/>
      <point x="1548" y="155"/>
      <point x="1494" y="128"/>
      <point x="1340" y="128" type="curve" smooth="yes"/>
      <point x="1160" y="128"/>
      <point x="1097" y="145"/>
      <point x="1092" y="223" type="curve" smooth="yes"/>
      <point x="1087" y="314"/>
      <point x="1086" y="459"/>
      <point x="1085" y="557" type="curve"/>
      <point x="1779" y="557" type="line"/>
      <point x="1783" y="671" type="line"/>
      <point x="1779" y="1065"/>
      <point x="1696" y="1144"/>
      <point x="1326" y="1144" type="curve" smooth="yes"/>
      <point x="1152" y="1144"/>
      <point x="1037" y="1114"/>
      <point x="969" y="1032" type="curve"/>
      <point x="905" y="1116"/>
      <point x="790" y="1144"/>
      <point x="614" y="1144" type="curve" smooth="yes"/>
      <point x="217" y="1144"/>
      <point x="132" y="1067"/>
      <point x="132" y="633" type="curve" smooth="yes"/>
      <point x="132" y="530" type="line" smooth="yes"/>
      <point x="132" y="86"/>
      <point x="189" y="-20"/>
      <point x="613" y="-20" type="curve" smooth="yes"/>
      <point x="792" y="-20"/>
      <point x="908" y="11"/>
      <point x="972" y="97" type="curve"/>
      <point x="1042" y="10"/>
      <point x="1160" y="-20"/>
    </contour>
    <contour>
      <point x="615" y="132" type="curve" smooth="yes"/>
      <point x="455" y="132"/>
      <point x="377" y="149"/>
      <point x="377" y="212" type="curve"/>
      <point x="376" y="913" type="line"/>
      <point x="376" y="995"/>
      <point x="507" y="995"/>
      <point x="614" y="995" type="curve" smooth="yes"/>
      <point x="721" y="995"/>
      <point x="851" y="995"/>
      <point x="851" y="913" type="curve" smooth="yes"/>
      <point x="851" y="212" type="line" smooth="yes"/>
      <point x="851" y="147"/>
      <point x="774" y="132"/>
    </contour>
    <contour>
      <point x="1086" y="671" type="line"/>
      <point x="1088" y="727"/>
      <point x="1085" y="854"/>
      <point x="1101" y="914" type="curve" smooth="yes"/>
      <point x="1119" y="980"/>
      <point x="1147" y="996"/>
      <point x="1325" y="996" type="curve" smooth="yes"/>
      <point x="1478" y="996"/>
      <point x="1535" y="979"/>
      <point x="1540" y="908" type="curve" smooth="yes"/>
      <point x="1546" y="841"/>
      <point x="1548" y="731"/>
      <point x="1549" y="671" type="curve"/>
    </contour>
  </outline>
</glyph>
<glyph name="florin" format="1">
  <advance width="855"/>
  <unicode hex="0192"/>
  <outline>
    <contour>
      <point x="291" y="-319" type="curve" smooth="yes"/>
      <point x="477" y="-315"/>
      <point x="504" y="-222"/>
      <point x="504" y="-56" type="curve" smooth="yes"/>
      <point x="504" y="757" type="line"/>
      <point x="702" y="757" type="line"/>
      <point x="702" y="887" type="line"/>
      <point x="504" y="887" type="line"/>
      <point x="503" y="1256" type="line" smooth="yes"/>
      <point x="503" y="1372"/>
      <point x="503" y="1392"/>
      <point x="634" y="1392" type="curve" smooth="yes"/>
      <point x="660" y="1392"/>
      <point x="686" y="1391"/>
      <point x="712" y="1389" type="curve"/>
      <point x="712" y="1543" type="line"/>
      <point x="649" y="1555"/>
      <point x="589" y="1561"/>
      <point x="536" y="1561" type="curve" smooth="yes"/>
      <point x="374" y="1561"/>
      <point x="305" y="1484"/>
      <point x="306" y="1259" type="curve" smooth="yes"/>
      <point x="307" y="887" type="line"/>
      <point x="145" y="887" type="line"/>
      <point x="145" y="757" type="line"/>
      <point x="307" y="757" type="line"/>
      <point x="307" y="-167" type="line"/>
      <point x="139" y="-167" type="line"/>
      <point x="139" y="-299" type="line"/>
      <point x="229" y="-315"/>
      <point x="263" y="-319"/>
    </contour>
  </outline>
</glyph>
<glyph name="dotlessj" format="1">
  <advance width="570"/>
  <unicode hex="0237"/>
  <outline>
    <contour>
      <point x="320" y="1095" type="move" name="top"/>
    </contour>
    <contour>
      <point x="222" y="1095" type="line"/>
      <point x="222" y="-64" type="line" smooth="yes"/>
      <point x="222" y="-189"/>
      <point x="135" y="-169"/>
      <point x="53" y="-173" type="curve"/>
      <point x="58" y="-294" type="line"/>
      <point x="96" y="-299"/>
      <point x="132" y="-302"/>
      <point x="162" y="-302" type="curve" smooth="yes"/>
      <point x="359" y="-302"/>
      <point x="415" y="-200"/>
      <point x="415" y="61" type="curve" smooth="yes"/>
      <point x="415" y="1095" type="line"/>
    </contour>
  </outline>
</glyph>
<glyph name="apostrophemod" format="1">
  <advance width="596"/>
  <unicode hex="02BC"/>
  <outline>
    <contour>
      <point x="56" y="1355" type="curve" smooth="yes"/>
      <point x="195" y="1355"/>
      <point x="311" y="1547"/>
      <point x="311" y="1716" type="curve" smooth="yes"/>
      <point x="311" y="1811"/>
      <point x="259" y="1894"/>
      <point x="171" y="1894" type="curve" smooth="yes"/>
      <point x="78" y="1894"/>
      <point x="25" y="1825"/>
      <point x="25" y="1740" type="curve" smooth="yes"/>
      <point x="25" y="1656"/>
      <point x="83" y="1586"/>
      <point x="168" y="1586" type="curve"/>
      <point x="168" y="1497"/>
      <point x="84" y="1427"/>
      <point x="-4" y="1427" type="curve"/>
      <point x="-4" y="1359" type="line"/>
      <point x="7" y="1356"/>
      <point x="27" y="1355"/>
    </contour>
  </outline>
</glyph>
<glyph name="circumflex" format="1">
  <advance width="785"/>
  <unicode hex="02C6"/>
  <outline>
    <contour>
      <point x="389" y="1091" type="move" name="_top"/>
    </contour>
    <contour>
      <point x="672" y="1294" type="curve" smooth="yes"/>
      <point x="688" y="1306"/>
      <point x="688" y="1328"/>
      <point x="678" y="1343" type="curve" smooth="yes"/>
      <point x="488" y="1647" type="line" smooth="yes"/>
      <point x="462" y="1686"/>
      <point x="431" y="1698"/>
      <point x="396" y="1698" type="curve" smooth="yes"/>
      <point x="360" y="1698"/>
      <point x="329" y="1686"/>
      <point x="303" y="1647" type="curve" smooth="yes"/>
      <point x="113" y="1343" type="line" smooth="yes"/>
      <point x="104" y="1329"/>
      <point x="103" y="1306"/>
      <point x="119" y="1293" type="curve" smooth="yes"/>
      <point x="133" y="1282"/>
      <point x="157" y="1280"/>
      <point x="167" y="1291" type="curve" smooth="yes"/>
      <point x="396" y="1527" type="line"/>
      <point x="624" y="1291" type="line" smooth="yes"/>
      <point x="635" y="1280"/>
      <point x="658" y="1282"/>
    </contour>
  </outline>
</glyph>
<glyph name="caron" format="1">
  <advance width="796"/>
  <unicode hex="02C7"/>
  <outline>
    <contour>
      <point x="397" y="1095" type="move" name="_top"/>
    </contour>
    <contour>
      <point x="403" y="1285" type="curve" smooth="yes"/>
      <point x="439" y="1285"/>
      <point x="471" y="1298"/>
      <point x="497" y="1337" type="curve" smooth="yes"/>
      <point x="688" y="1645" type="line" smooth="yes"/>
      <point x="698" y="1660"/>
      <point x="698" y="1683"/>
      <point x="682" y="1696" type="curve" smooth="yes"/>
      <point x="668" y="1708"/>
      <point x="644" y="1710"/>
      <point x="633" y="1698" type="curve" smooth="yes"/>
      <point x="403" y="1462" type="line"/>
      <point x="173" y="1698" type="line" smooth="yes"/>
      <point x="162" y="1710"/>
      <point x="138" y="1708"/>
      <point x="124" y="1696" type="curve" smooth="yes"/>
      <point x="108" y="1683"/>
      <point x="109" y="1660"/>
      <point x="118" y="1645" type="curve" smooth="yes"/>
      <point x="310" y="1337" type="line" smooth="yes"/>
      <point x="336" y="1298"/>
      <point x="367" y="1285"/>
    </contour>
  </outline>
</glyph>
<glyph name="uni02C9" format="1">
  <advance width="671"/>
  <unicode hex="02C9"/>
  <outline>
    <contour>
      <point x="335" y="1095" type="move" name="_top"/>
    </contour>
    <contour>
      <point x="37" y="1445" type="line"/>
      <point x="37" y="1319" type="line"/>
      <point x="631" y="1319" type="line"/>
      <point x="631" y="1445" type="line"/>
    </contour>
  </outline>
</glyph>
<glyph name="breve" format="1">
  <advance width="806"/>
  <unicode hex="02D8"/>
  <outline>
    <contour>
      <point x="417" y="1117" type="move" name="_top"/>
    </contour>
    <contour>
      <point x="561" y="1617" type="line"/>
      <point x="561" y="1498"/>
      <point x="514" y="1443"/>
      <point x="414" y="1443" type="curve" smooth="yes"/>
      <point x="313" y="1443"/>
      <point x="267" y="1498"/>
      <point x="267" y="1617" type="curve"/>
      <point x="110" y="1617" type="line"/>
      <point x="110" y="1399"/>
      <point x="206" y="1299"/>
      <point x="414" y="1299" type="curve" smooth="yes"/>
      <point x="622" y="1299"/>
      <point x="717" y="1399"/>
      <point x="717" y="1617" type="curve"/>
    </contour>
  </outline>
</glyph>
<glyph name="dotaccent" format="1">
  <advance width="440"/>
  <unicode hex="02D9"/>
  <outline>
    <contour>
      <point x="221" y="1095" type="move" name="_top"/>
    </contour>
    <contour>
      <point x="221" y="1386" type="curve" smooth="yes"/>
      <point x="290" y="1386"/>
      <point x="356" y="1423"/>
      <point x="356" y="1523" type="curve" smooth="yes"/>
      <point x="356" y="1618"/>
      <point x="291" y="1657"/>
      <point x="221" y="1657" type="curve" smooth="yes"/>
      <point x="153" y="1657"/>
      <point x="86" y="1621"/>
      <point x="86" y="1523" type="curve" smooth="yes"/>
      <point x="86" y="1426"/>
      <point x="151" y="1386"/>
    </contour>
  </outline>
</glyph>
<glyph name="ring" format="1">
  <advance width="789"/>
  <unicode hex="02DA"/>
  <outline>
    <contour>
      <point x="405" y="1117" type="move" name="_top"/>
    </contour>
    <contour>
      <point x="142" y="1523" type="curve" smooth="yes"/>
      <point x="142" y="1362"/>
      <point x="242" y="1264"/>
      <point x="404" y="1264" type="curve" smooth="yes"/>
      <point x="566" y="1264"/>
      <point x="670" y="1362"/>
      <point x="670" y="1523" type="curve" smooth="yes"/>
      <point x="670" y="1684"/>
      <point x="567" y="1788"/>
      <point x="404" y="1788" type="curve" smooth="yes"/>
      <point x="243" y="1788"/>
      <point x="142" y="1684"/>
    </contour>
    <contour>
      <point x="523" y="1521" type="curve" smooth="yes"/>
      <point x="523" y="1431"/>
      <point x="483" y="1387"/>
      <point x="404" y="1387" type="curve" smooth="yes"/>
      <point x="324" y="1387"/>
      <point x="286" y="1435"/>
      <point x="286" y="1523" type="curve" smooth="yes"/>
      <point x="286" y="1617"/>
      <point x="320" y="1663"/>
      <point x="404" y="1663" type="curve" smooth="yes"/>
      <point x="485" y="1663"/>
      <point x="523" y="1620"/>
    </contour>
  </outline>
</glyph>
<glyph name="ogonek" format="1">
  <advance width="712"/>
  <unicode hex="02DB"/>
  <outline>
    <contour>
      <point x="421" y="0" type="move" name="_ogonek"/>
    </contour>
    <contour>
      <point x="372" y="0" type="line"/>
      <point x="207" y="-95"/>
      <point x="157" y="-216"/>
      <point x="157" y="-325" type="curve" smooth="yes"/>
      <point x="157" y="-452"/>
      <point x="268" y="-517"/>
      <point x="389" y="-517" type="curve" smooth="yes"/>
      <point x="450" y="-517"/>
      <point x="513" y="-501"/>
      <point x="567" y="-467" type="curve"/>
      <point x="545" y="-371" type="line"/>
      <point x="518" y="-380"/>
      <point x="490" y="-385"/>
      <point x="463" y="-385" type="curve" smooth="yes"/>
      <point x="395" y="-385"/>
      <point x="337" y="-353"/>
      <point x="337" y="-270" type="curve" smooth="yes"/>
      <point x="337" y="-175"/>
      <point x="388" y="-53"/>
      <point x="479" y="0" type="curve"/>
    </contour>
  </outline>
</glyph>
<glyph name="tilde" format="1">
  <advance width="1011"/>
  <unicode hex="02DC"/>
  <outline>
    <contour>
      <point x="506" y="1095" type="move" name="_top"/>
    </contour>
    <contour>
      <point x="611" y="1272" type="curve" smooth="yes"/>
      <point x="713" y="1272"/>
      <point x="798" y="1314"/>
      <point x="837" y="1455" type="curve"/>
      <point x="804" y="1504" type="line"/>
      <point x="727" y="1443"/>
      <point x="670" y="1422"/>
      <point x="619" y="1422" type="curve" smooth="yes"/>
      <point x="545" y="1422"/>
      <point x="495" y="1489"/>
      <point x="372" y="1489" type="curve" smooth="yes"/>
      <point x="280" y="1489"/>
      <point x="202" y="1454"/>
      <point x="165" y="1335" type="curve"/>
      <point x="193" y="1292" type="line"/>
      <point x="243" y="1338"/>
      <point x="291" y="1355"/>
      <point x="338" y="1355" type="curve" smooth="yes"/>
      <point x="424" y="1355"/>
      <point x="510" y="1272"/>
    </contour>
  </outline>
</glyph>
<glyph name="hungarumlaut" format="1">
  <advance width="1119"/>
  <unicode hex="02DD"/>
  <outline>
    <contour>
      <point x="358" y="1095" type="move" name="_top"/>
    </contour>
    <contour>
      <point x="104" y="1327" type="curve"/>
      <point x="103" y="1326"/>
      <point x="473" y="1465"/>
      <point x="497" y="1475" type="curve" smooth="yes"/>
      <point x="546" y="1496"/>
      <point x="568" y="1540"/>
      <point x="568" y="1578" type="curve" smooth="yes"/>
      <point x="568" y="1629"/>
      <point x="531" y="1678"/>
      <point x="466" y="1678" type="curve" smooth="yes"/>
      <point x="434" y="1678"/>
      <point x="406" y="1661"/>
      <point x="382" y="1643" type="curve" smooth="yes"/>
      <point x="345" y="1611"/>
      <point x="86" y="1345"/>
      <point x="88" y="1347" type="curve"/>
      <point x="88" y="1347"/>
      <point x="89" y="1330"/>
      <point x="89" y="1330" type="curve"/>
      <point x="89" y="1331"/>
      <point x="105" y="1327"/>
    </contour>
    <contour>
      <point x="542" y="1327" type="curve"/>
      <point x="541" y="1326"/>
      <point x="911" y="1465"/>
      <point x="935" y="1475" type="curve" smooth="yes"/>
      <point x="984" y="1496"/>
      <point x="1005" y="1540"/>
      <point x="1005" y="1578" type="curve" smooth="yes"/>
      <point x="1005" y="1629"/>
      <point x="969" y="1678"/>
      <point x="903" y="1678" type="curve" smooth="yes"/>
      <point x="871" y="1678"/>
      <point x="843" y="1661"/>
      <point x="820" y="1643" type="curve" smooth="yes"/>
      <point x="782" y="1611"/>
      <point x="524" y="1345"/>
      <point x="525" y="1347" type="curve"/>
      <point x="526" y="1347"/>
      <point x="527" y="1330"/>
      <point x="527" y="1330" type="curve"/>
      <point x="526" y="1331"/>
      <point x="542" y="1327"/>
    </contour>
  </outline>
</glyph>
<glyph name="uni0307" format="1">
  <advance width="513"/>
  <unicode hex="0307"/>
  <outline>
    <contour>
      <point x="256" y="1117" type="move" name="_top"/>
    </contour>
    <contour>
      <point x="258" y="1347" type="curve" smooth="yes"/>
      <point x="348" y="1347"/>
      <point x="405" y="1413"/>
      <point x="405" y="1508" type="curve" smooth="yes"/>
      <point x="405" y="1602"/>
      <point x="342" y="1669"/>
      <point x="258" y="1669" type="curve" smooth="yes"/>
      <point x="169" y="1669"/>
      <point x="112" y="1603"/>
      <point x="112" y="1508" type="curve" smooth="yes"/>
      <point x="112" y="1415"/>
      <point x="175" y="1347"/>
    </contour>
  </outline>
</glyph>
<glyph name="dblgravecmb" format="1">
  <advance width="1121"/>
  <unicode hex="030F"/>
  <outline>
    <contour>
      <point x="741" y="1095" type="move" name="_top"/>
    </contour>
    <contour>
      <point x="552" y="1327" type="curve" smooth="yes"/>
      <point x="551" y="1327"/>
      <point x="567" y="1331"/>
      <point x="567" y="1330" type="curve"/>
      <point x="567" y="1330"/>
      <point x="568" y="1347"/>
      <point x="568" y="1347" type="curve"/>
      <point x="570" y="1345"/>
      <point x="312" y="1611"/>
      <point x="274" y="1643" type="curve" smooth="yes"/>
      <point x="250" y="1661"/>
      <point x="223" y="1678"/>
      <point x="191" y="1678" type="curve" smooth="yes"/>
      <point x="125" y="1678"/>
      <point x="88" y="1629"/>
      <point x="88" y="1578" type="curve" smooth="yes"/>
      <point x="88" y="1540"/>
      <point x="110" y="1496"/>
      <point x="159" y="1475" type="curve" smooth="yes"/>
      <point x="183" y="1465"/>
      <point x="553" y="1326"/>
    </contour>
    <contour>
      <point x="989" y="1327" type="curve" smooth="yes"/>
      <point x="989" y="1327"/>
      <point x="1005" y="1331"/>
      <point x="1005" y="1330" type="curve"/>
      <point x="1004" y="1330"/>
      <point x="1005" y="1347"/>
      <point x="1006" y="1347" type="curve"/>
      <point x="1007" y="1345"/>
      <point x="749" y="1611"/>
      <point x="712" y="1643" type="curve" smooth="yes"/>
      <point x="688" y="1661"/>
      <point x="660" y="1678"/>
      <point x="628" y="1678" type="curve" smooth="yes"/>
      <point x="562" y="1678"/>
      <point x="526" y="1629"/>
      <point x="526" y="1578" type="curve" smooth="yes"/>
      <point x="526" y="1540"/>
      <point x="548" y="1496"/>
      <point x="596" y="1475" type="curve" smooth="yes"/>
      <point x="621" y="1465"/>
      <point x="990" y="1326"/>
    </contour>
  </outline>
</glyph>
<glyph name="breveinvertedcomb" format="1">
  <advance width="838"/>
  <unicode hex="0311"/>
  <outline>
    <contour>
      <point x="446" y="1095" type="move" name="_top"/>
    </contour>
    <contour>
      <point x="143" y="1276" type="curve"/>
      <point x="282" y="1276" type="line"/>
      <point x="282" y="1395"/>
      <point x="328" y="1450"/>
      <point x="427" y="1450" type="curve" smooth="yes"/>
      <point x="526" y="1450"/>
      <point x="572" y="1395"/>
      <point x="572" y="1276" type="curve"/>
      <point x="711" y="1276" type="line"/>
      <point x="711" y="1481"/>
      <point x="622" y="1575"/>
      <point x="427" y="1575" type="curve" smooth="yes"/>
      <point x="232" y="1575"/>
      <point x="143" y="1481"/>
    </contour>
  </outline>
</glyph>
<glyph name="commaturnedabovecomb" format="1">
  <advance width="588"/>
  <unicode hex="0312"/>
  <outline>
    <contour>
      <point x="311" y="1091" type="move" name="_top"/>
    </contour>
    <contour>
      <point x="310" y="1238" type="curve" smooth="yes"/>
      <point x="407" y="1238"/>
      <point x="464" y="1338"/>
      <point x="464" y="1391" type="curve" smooth="yes"/>
      <point x="464" y="1499"/>
      <point x="418" y="1555"/>
      <point x="323" y="1559" type="curve"/>
      <point x="323" y="1652"/>
      <point x="373" y="1724"/>
      <point x="450" y="1727" type="curve"/>
      <point x="450" y="1784" type="line"/>
      <point x="271" y="1784"/>
      <point x="139" y="1622"/>
      <point x="139" y="1452" type="curve" smooth="yes"/>
      <point x="139" y="1321"/>
      <point x="206" y="1238"/>
    </contour>
  </outline>
</glyph>
<glyph name="commaaccent" format="1">
  <advance width="497"/>
  <unicode hex="0326"/>
  <outline>
    <contour>
      <point x="258" y="0" type="move" name="_bot"/>
    </contour>
    <contour>
      <point x="118" y="-691" type="line"/>
      <point x="298" y="-691"/>
      <point x="431" y="-528"/>
      <point x="431" y="-356" type="curve" smooth="yes"/>
      <point x="431" y="-225"/>
      <point x="371" y="-160"/>
      <point x="266" y="-160" type="curve" smooth="yes"/>
      <point x="169" y="-160"/>
      <point x="104" y="-223"/>
      <point x="104" y="-309" type="curve" smooth="yes"/>
      <point x="104" y="-398"/>
      <point x="151" y="-461"/>
      <point x="246" y="-466" type="curve"/>
      <point x="246" y="-558"/>
      <point x="195" y="-628"/>
      <point x="118" y="-631" type="curve"/>
    </contour>
  </outline>
</glyph>
<glyph name="Delta" format="1">
  <advance width="1398"/>
  <unicode hex="0394"/>
  <outline>
    <contour>
      <point x="68" y="0" type="line"/>
      <point x="1335" y="0" type="line"/>
      <point x="775" y="1504" type="line"/>
      <point x="600" y="1504" type="line"/>
    </contour>
    <contour>
      <point x="236" y="157" type="line"/>
      <point x="632" y="1301" type="line"/>
      <point x="1030" y="157" type="line"/>
    </contour>
  </outline>
</glyph>
<glyph name="Sigma" format="1">
  <advance width="1191"/>
  <unicode hex="03A3"/>
  <outline>
    <contour>
      <point x="125" y="0" type="line"/>
      <point x="1111" y="0" type="line"/>
      <point x="1111" y="200" type="line"/>
      <point x="359" y="200" type="line"/>
      <point x="837" y="726" type="line"/>
      <point x="837" y="827" type="line"/>
      <point x="372" y="1292" type="line"/>
      <point x="1063" y="1292" type="line"/>
      <point x="1063" y="1489" type="line"/>
      <point x="125" y="1489" type="line"/>
      <point x="125" y="1293" type="line"/>
      <point x="614" y="774" type="line"/>
      <point x="125" y="219" type="line"/>
    </contour>
  </outline>
</glyph>
